<?xml version="1.0" encoding="UTF-8" standalone="no"?>
<svg
   xmlns:dc="http://purl.org/dc/elements/1.1/"
   xmlns:cc="http://creativecommons.org/ns#"
   xmlns:rdf="http://www.w3.org/1999/02/22-rdf-syntax-ns#"
   xmlns:svg="http://www.w3.org/2000/svg"
   xmlns="http://www.w3.org/2000/svg"
   style="stroke-width:28.22200012;stroke-linejoin:round"
   id="svg4591"
   xml:space="preserve"
   version="1.1"
   viewBox="0 0 16440.977 10698.612"
   height="106.98612mm"
   width="164.40977mm"><metadata
     id="metadata5025"><rdf:RDF><cc:Work
         rdf:about=""><dc:format>image/svg+xml</dc:format><dc:type
           rdf:resource="http://purl.org/dc/dcmitype/StillImage" /><dc:title></dc:title></cc:Work></rdf:RDF></metadata><defs
     id="defs5023" /><path
     style="fill:#ffffff;stroke:none"
     id="path4593"
     d="m 8233.9768,10419 -7806.99997,0 0,-10419 15614.00017,0 0,10419 -7807.0002,0 z" /><path
     style="fill:none;stroke:#b3b3b3;stroke-linejoin:round"
     id="path4595"
     d="m 8379.9768,9711 -7220,0 0,-8831 14440.0002,0 0,8831 -7220.0002,0 z" /><path
     style="fill:none;stroke:#b3b3b3;stroke-linejoin:round"
     id="path4597"
     d="m 15598.977,9710 -14439.0002,0" /><path
     style="fill:none;stroke:#b3b3b3;stroke-linejoin:round"
     id="path4599"
     d="m 15598.977,8728 -14439.0002,0" /><path
     style="fill:none;stroke:#b3b3b3;stroke-linejoin:round"
     id="path4601"
     d="m 15598.977,7747 -14439.0002,0" /><path
     style="fill:none;stroke:#b3b3b3;stroke-linejoin:round"
     id="path4603"
     d="m 15598.977,6766 -14439.0002,0" /><path
     style="fill:none;stroke:#b3b3b3;stroke-linejoin:round"
     id="path4605"
     d="m 15598.977,5784 -14439.0002,0" /><path
     style="fill:none;stroke:#b3b3b3;stroke-linejoin:round"
     id="path4607"
     d="m 15598.977,4804 -14439.0002,0" /><path
     style="fill:none;stroke:#b3b3b3;stroke-linejoin:round"
     id="path4609"
     d="m 15598.977,3823 -14439.0002,0" /><path
     style="fill:none;stroke:#b3b3b3;stroke-linejoin:round"
     id="path4611"
     d="m 15598.977,2841 -14439.0002,0" /><path
     style="fill:none;stroke:#b3b3b3;stroke-linejoin:round"
     id="path4613"
     d="m 15598.977,1860 -14439.0002,0" /><path
     style="fill:none;stroke:#b3b3b3;stroke-linejoin:round"
     id="path4615"
     d="M 15598.977,879 1159.9768,879" /><path
     style="fill:none;stroke:#b3b3b3;stroke-linejoin:round"
     id="path4617"
     d="m 1159.9768,9860 0,-150" /><path
     style="fill:none;stroke:#b3b3b3;stroke-linejoin:round"
     id="path4619"
     d="m 1159.9768,9860 0,-150" /><path
     style="fill:none;stroke:#b3b3b3;stroke-linejoin:round"
     id="path4621"
     d="m 2471.9768,9860 0,-150" /><path
     style="fill:none;stroke:#b3b3b3;stroke-linejoin:round"
     id="path4623"
     d="m 2471.9768,9860 0,-150" /><path
     style="fill:none;stroke:#b3b3b3;stroke-linejoin:round"
     id="path4625"
     d="m 3784.9768,9860 0,-150" /><path
     style="fill:none;stroke:#b3b3b3;stroke-linejoin:round"
     id="path4627"
     d="m 3784.9768,9860 0,-150" /><path
     style="fill:none;stroke:#b3b3b3;stroke-linejoin:round"
     id="path4629"
     d="m 5097.9768,9860 0,-150" /><path
     style="fill:none;stroke:#b3b3b3;stroke-linejoin:round"
     id="path4631"
     d="m 5097.9768,9860 0,-150" /><path
     style="fill:none;stroke:#b3b3b3;stroke-linejoin:round"
     id="path4633"
     d="m 6410.9768,9860 0,-150" /><path
     style="fill:none;stroke:#b3b3b3;stroke-linejoin:round"
     id="path4635"
     d="m 6410.9768,9860 0,-150" /><path
     style="fill:none;stroke:#b3b3b3;stroke-linejoin:round"
     id="path4637"
     d="m 7723.9768,9860 0,-150" /><path
     style="fill:none;stroke:#b3b3b3;stroke-linejoin:round"
     id="path4639"
     d="m 7723.9768,9860 0,-150" /><path
     style="fill:none;stroke:#b3b3b3;stroke-linejoin:round"
     id="path4641"
     d="m 9034.9768,9860 0,-150" /><path
     style="fill:none;stroke:#b3b3b3;stroke-linejoin:round"
     id="path4643"
     d="m 9034.9768,9860 0,-150" /><path
     style="fill:none;stroke:#b3b3b3;stroke-linejoin:round"
     id="path4645"
     d="m 10347.977,9860 0,-150" /><path
     style="fill:none;stroke:#b3b3b3;stroke-linejoin:round"
     id="path4647"
     d="m 10347.977,9860 0,-150" /><path
     style="fill:none;stroke:#b3b3b3;stroke-linejoin:round"
     id="path4649"
     d="m 11660.977,9860 0,-150" /><path
     style="fill:none;stroke:#b3b3b3;stroke-linejoin:round"
     id="path4651"
     d="m 11660.977,9860 0,-150" /><path
     style="fill:none;stroke:#b3b3b3;stroke-linejoin:round"
     id="path4653"
     d="m 12973.977,9860 0,-150" /><path
     style="fill:none;stroke:#b3b3b3;stroke-linejoin:round"
     id="path4655"
     d="m 12973.977,9860 0,-150" /><path
     style="fill:none;stroke:#b3b3b3;stroke-linejoin:round"
     id="path4657"
     d="m 14286.977,9860 0,-150" /><path
     style="fill:none;stroke:#b3b3b3;stroke-linejoin:round"
     id="path4659"
     d="m 14286.977,9860 0,-150" /><path
     style="fill:none;stroke:#b3b3b3;stroke-linejoin:round"
     id="path4661"
     d="m 15598.977,9860 0,-150" /><path
     style="fill:none;stroke:#b3b3b3;stroke-linejoin:round"
     id="path4663"
     d="m 15598.977,9860 0,-150" /><path
     style="fill:none;stroke:#b3b3b3;stroke-linejoin:round"
     id="path4665"
     d="m 1159.9768,9710 14439.0002,0" /><path
     style="fill:none;stroke:#b3b3b3;stroke-linejoin:round"
     id="path4667"
     d="m 1009.9768,9710 150,0" /><path
     style="fill:none;stroke:#b3b3b3;stroke-linejoin:round"
     id="path4669"
     d="m 1009.9768,9710 150,0" /><path
     style="fill:none;stroke:#b3b3b3;stroke-linejoin:round"
     id="path4671"
     d="m 1009.9768,8728 150,0" /><path
     style="fill:none;stroke:#b3b3b3;stroke-linejoin:round"
     id="path4673"
     d="m 1009.9768,8728 150,0" /><path
     style="fill:none;stroke:#b3b3b3;stroke-linejoin:round"
     id="path4675"
     d="m 1009.9768,7747 150,0" /><path
     style="fill:none;stroke:#b3b3b3;stroke-linejoin:round"
     id="path4677"
     d="m 1009.9768,7747 150,0" /><path
     style="fill:none;stroke:#b3b3b3;stroke-linejoin:round"
     id="path4679"
     d="m 1009.9768,6766 150,0" /><path
     style="fill:none;stroke:#b3b3b3;stroke-linejoin:round"
     id="path4681"
     d="m 1009.9768,6766 150,0" /><path
     style="fill:none;stroke:#b3b3b3;stroke-linejoin:round"
     id="path4683"
     d="m 1009.9768,5784 150,0" /><path
     style="fill:none;stroke:#b3b3b3;stroke-linejoin:round"
     id="path4685"
     d="m 1009.9768,5784 150,0" /><path
     style="fill:none;stroke:#b3b3b3;stroke-linejoin:round"
     id="path4687"
     d="m 1009.9768,4804 150,0" /><path
     style="fill:none;stroke:#b3b3b3;stroke-linejoin:round"
     id="path4689"
     d="m 1009.9768,4804 150,0" /><path
     style="fill:none;stroke:#b3b3b3;stroke-linejoin:round"
     id="path4691"
     d="m 1009.9768,3822 150,0" /><path
     style="fill:none;stroke:#b3b3b3;stroke-linejoin:round"
     id="path4693"
     d="m 1009.9768,3822 150,0" /><path
     style="fill:none;stroke:#b3b3b3;stroke-linejoin:round"
     id="path4695"
     d="m 1009.9768,2841 150,0" /><path
     style="fill:none;stroke:#b3b3b3;stroke-linejoin:round"
     id="path4697"
     d="m 1009.9768,2841 150,0" /><path
     style="fill:none;stroke:#b3b3b3;stroke-linejoin:round"
     id="path4699"
     d="m 1009.9768,1860 150,0" /><path
     style="fill:none;stroke:#b3b3b3;stroke-linejoin:round"
     id="path4701"
     d="m 1009.9768,1860 150,0" /><path
     style="fill:none;stroke:#b3b3b3;stroke-linejoin:round"
     id="path4703"
     d="m 1009.9768,879 150,0" /><path
     style="fill:none;stroke:#b3b3b3;stroke-linejoin:round"
     id="path4705"
     d="m 1009.9768,879 150,0" /><path
     style="fill:none;stroke:#b3b3b3;stroke-linejoin:round"
     id="path4707"
     d="m 1159.9768,9710 0,-8831" /><path
     style="fill:none;stroke:#004586;stroke-width:80;stroke-linejoin:round"
     id="path4709"
     d="m 1159.9768,9611 1312,-98 1313,-98 1313,-98 1313,-98 1313,-98 1311,-98 1313.0002,-99 1313,-98 1313,-98 1313,-98 1312,-98" /><path
     style="fill:#004586;stroke:none"
     id="path4711"
     d="m 1034.9768,9486 0,250 250,0 0,-250 -250,0 z" /><path
     style="fill:none;stroke:#004586;stroke-linejoin:round"
     id="path4713"
     d="m 1034.9768,9486 0,250 250,0 0,-250 -250,0 z" /><path
     style="fill:#004586;stroke:none"
     id="path4715"
     d="m 2346.9768,9388 0,250 250,0 0,-250 -250,0 z" /><path
     style="fill:none;stroke:#004586;stroke-linejoin:round"
     id="path4717"
     d="m 2346.9768,9388 0,250 250,0 0,-250 -250,0 z" /><path
     style="fill:#004586;stroke:none"
     id="path4719"
     d="m 3659.9768,9290 0,250 250,0 0,-250 -250,0 z" /><path
     style="fill:none;stroke:#004586;stroke-linejoin:round"
     id="path4721"
     d="m 3659.9768,9290 0,250 250,0 0,-250 -250,0 z" /><path
     style="fill:#004586;stroke:none"
     id="path4723"
     d="m 4972.9768,9192 0,250 250,0 0,-250 -250,0 z" /><path
     style="fill:none;stroke:#004586;stroke-linejoin:round"
     id="path4725"
     d="m 4972.9768,9192 0,250 250,0 0,-250 -250,0 z" /><path
     style="fill:#004586;stroke:none"
     id="path4727"
     d="m 6285.9768,9094 0,250 250,0 0,-250 -250,0 z" /><path
     style="fill:none;stroke:#004586;stroke-linejoin:round"
     id="path4729"
     d="m 6285.9768,9094 0,250 250,0 0,-250 -250,0 z" /><path
     style="fill:#004586;stroke:none"
     id="path4731"
     d="m 7598.9768,8996 0,250 250,0 0,-250 -250,0 z" /><path
     style="fill:none;stroke:#004586;stroke-linejoin:round"
     id="path4733"
     d="m 7598.9768,8996 0,250 250,0 0,-250 -250,0 z" /><path
     style="fill:#004586;stroke:none"
     id="path4735"
     d="m 8909.9768,8898 0,250 250,0 0,-250 -250,0 z" /><path
     style="fill:none;stroke:#004586;stroke-linejoin:round"
     id="path4737"
     d="m 8909.9768,8898 0,250 250,0 0,-250 -250,0 z" /><path
     style="fill:#004586;stroke:none"
     id="path4739"
     d="m 10222.977,8799 0,250 250,0 0,-250 -250,0 z" /><path
     style="fill:none;stroke:#004586;stroke-linejoin:round"
     id="path4741"
     d="m 10222.977,8799 0,250 250,0 0,-250 -250,0 z" /><path
     style="fill:#004586;stroke:none"
     id="path4743"
     d="m 11535.977,8701 0,250 250,0 0,-250 -250,0 z" /><path
     style="fill:none;stroke:#004586;stroke-linejoin:round"
     id="path4745"
     d="m 11535.977,8701 0,250 250,0 0,-250 -250,0 z" /><path
     style="fill:#004586;stroke:none"
     id="path4747"
     d="m 12848.977,8603 0,250 250,0 0,-250 -250,0 z" /><path
     style="fill:none;stroke:#004586;stroke-linejoin:round"
     id="path4749"
     d="m 12848.977,8603 0,250 250,0 0,-250 -250,0 z" /><path
     style="fill:#004586;stroke:none"
     id="path4751"
     d="m 14161.977,8505 0,250 250,0 0,-250 -250,0 z" /><path
     style="fill:none;stroke:#004586;stroke-linejoin:round"
     id="path4753"
     d="m 14161.977,8505 0,250 250,0 0,-250 -250,0 z" /><path
     style="fill:#004586;stroke:none"
     id="path4755"
     d="m 15473.977,8407 0,250 250,0 0,-250 -250,0 z" /><path
     style="fill:none;stroke:#004586;stroke-linejoin:round"
     id="path4757"
     d="m 15473.977,8407 0,250 250,0 0,-250 -250,0 z" /><path
     style="fill:none;stroke:#ff420e;stroke-width:80;stroke-linejoin:round"
     id="path4759"
     d="m 1159.9768,9710 1312,0 1313,-786 1313,-785 1313,-785 1313,-785 1311,-785 1313.0002,-784 1313,-785 1313,-785 1313,-785 1312,-785" /><path
     style="fill:#ff420e;stroke:none"
     id="path4761"
     d="m 1284.9768,9710 -1,-6 0,-5 -1,-6 0,-5 -1,-6 -2,-5 -1,-5 -2,-5 -2,-5 -2,-5 -3,-5 -2,-5 -3,-5 -3,-4 -3,-5 -4,-4 -3,-4 -4,-4 -4,-4 -4,-3 -4,-4 -5,-3 -4,-3 -5,-3 -5,-2 -5,-3 -5,-2 -5,-2 -5,-2 -5,-1 -5,-2 -6,-1 -5,0 -6,-1 -5,0 -5,0 -6,0 -5,0 -6,1 -5,0 -6,1 -5,2 -5,1 -5,2 -5,2 -5,2 -5,3 -5,2 -5,3 -4,3 -5,3 -4,4 -4,3 -4,4 -4,4 -3,4 -4,4 -3,5 -3,4 -3,5 -2,5 -3,5 -2,5 -2,5 -2,5 -1,5 -2,5 -1,6 0,5 -1,6 0,5 0,6 0,5 0,5 1,6 0,5 1,6 2,5 1,5 2,5 2,5 2,5 3,5 2,5 3,5 3,4 3,5 4,4 3,4 4,4 4,4 4,3 4,4 5,3 4,3 5,3 5,2 5,3 5,2 5,2 5,2 5,1 5,2 6,1 5,0 6,1 5,0 6,1 5,-1 5,0 6,-1 5,0 6,-1 5,-2 5,-1 5,-2 5,-2 5,-2 5,-3 5,-2 5,-3 4,-3 5,-3 4,-4 4,-3 4,-4 4,-4 3,-4 4,-4 3,-5 3,-4 3,-5 2,-5 3,-5 2,-5 2,-5 2,-5 1,-5 2,-5 1,-6 0,-5 1,-6 0,-5 1,-5 z" /><path
     style="fill:none;stroke:#ff420e;stroke-linejoin:round"
     id="path4763"
     d="m 1284.9768,9710 -1,-6 0,-5 -1,-6 0,-5 -1,-6 -2,-5 -1,-5 -2,-5 -2,-5 -2,-5 -3,-5 -2,-5 -3,-5 -3,-4 -3,-5 -4,-4 -3,-4 -4,-4 -4,-4 -4,-3 -4,-4 -5,-3 -4,-3 -5,-3 -5,-2 -5,-3 -5,-2 -5,-2 -5,-2 -5,-1 -5,-2 -6,-1 -5,0 -6,-1 -5,0 -5,0 -6,0 -5,0 -6,1 -5,0 -6,1 -5,2 -5,1 -5,2 -5,2 -5,2 -5,3 -5,2 -5,3 -4,3 -5,3 -4,4 -4,3 -4,4 -4,4 -3,4 -4,4 -3,5 -3,4 -3,5 -2,5 -3,5 -2,5 -2,5 -2,5 -1,5 -2,5 -1,6 0,5 -1,6 0,5 0,6 0,5 0,5 1,6 0,5 1,6 2,5 1,5 2,5 2,5 2,5 3,5 2,5 3,5 3,4 3,5 4,4 3,4 4,4 4,4 4,3 4,4 5,3 4,3 5,3 5,2 5,3 5,2 5,2 5,2 5,1 5,2 6,1 5,0 6,1 5,0 6,1 5,-1 5,0 6,-1 5,0 6,-1 5,-2 5,-1 5,-2 5,-2 5,-2 5,-3 5,-2 5,-3 4,-3 5,-3 4,-4 4,-3 4,-4 4,-4 3,-4 4,-4 3,-5 3,-4 3,-5 2,-5 3,-5 2,-5 2,-5 2,-5 1,-5 2,-5 1,-6 0,-5 1,-6 0,-5 1,-5 z" /><path
     style="fill:#ff420e;stroke:none"
     id="path4765"
     d="m 2596.9768,9710 0,-6 0,-5 -1,-6 -1,-5 -1,-6 -1,-5 -1,-5 -2,-5 -2,-5 -2,-5 -3,-5 -2,-5 -3,-5 -3,-4 -4,-5 -3,-4 -4,-4 -3,-4 -4,-4 -4,-3 -5,-4 -4,-3 -5,-3 -4,-3 -5,-2 -5,-3 -5,-2 -5,-2 -5,-2 -5,-1 -6,-2 -5,-1 -5,0 -6,-1 -5,0 -6,0 -5,0 -6,0 -5,1 -5,0 -6,1 -5,2 -5,1 -5,2 -6,2 -5,2 -4,3 -5,2 -5,3 -4,3 -5,3 -4,4 -4,3 -4,4 -4,4 -3,4 -4,4 -3,5 -3,4 -3,5 -3,5 -2,5 -2,5 -2,5 -2,5 -1,5 -2,5 -1,6 -1,5 0,6 -1,5 0,6 0,5 1,5 0,6 1,5 1,6 2,5 1,5 2,5 2,5 2,5 2,5 3,5 3,5 3,4 3,5 4,4 3,4 4,4 4,4 4,3 4,4 5,3 4,3 5,3 5,2 4,3 5,2 6,2 5,2 5,1 5,2 6,1 5,0 5,1 6,0 5,1 6,-1 5,0 6,-1 5,0 5,-1 6,-2 5,-1 5,-2 5,-2 5,-2 5,-3 5,-2 4,-3 5,-3 4,-3 5,-4 4,-3 4,-4 3,-4 4,-4 3,-4 4,-5 3,-4 3,-5 2,-5 3,-5 2,-5 2,-5 2,-5 1,-5 1,-5 1,-6 1,-5 1,-6 0,-5 0,-5 z" /><path
     style="fill:none;stroke:#ff420e;stroke-linejoin:round"
     id="path4767"
     d="m 2596.9768,9710 0,-6 0,-5 -1,-6 -1,-5 -1,-6 -1,-5 -1,-5 -2,-5 -2,-5 -2,-5 -3,-5 -2,-5 -3,-5 -3,-4 -4,-5 -3,-4 -4,-4 -3,-4 -4,-4 -4,-3 -5,-4 -4,-3 -5,-3 -4,-3 -5,-2 -5,-3 -5,-2 -5,-2 -5,-2 -5,-1 -6,-2 -5,-1 -5,0 -6,-1 -5,0 -6,0 -5,0 -6,0 -5,1 -5,0 -6,1 -5,2 -5,1 -5,2 -6,2 -5,2 -4,3 -5,2 -5,3 -4,3 -5,3 -4,4 -4,3 -4,4 -4,4 -3,4 -4,4 -3,5 -3,4 -3,5 -3,5 -2,5 -2,5 -2,5 -2,5 -1,5 -2,5 -1,6 -1,5 0,6 -1,5 0,6 0,5 1,5 0,6 1,5 1,6 2,5 1,5 2,5 2,5 2,5 2,5 3,5 3,5 3,4 3,5 4,4 3,4 4,4 4,4 4,3 4,4 5,3 4,3 5,3 5,2 4,3 5,2 6,2 5,2 5,1 5,2 6,1 5,0 5,1 6,0 5,1 6,-1 5,0 6,-1 5,0 5,-1 6,-2 5,-1 5,-2 5,-2 5,-2 5,-3 5,-2 4,-3 5,-3 4,-3 5,-4 4,-3 4,-4 3,-4 4,-4 3,-4 4,-5 3,-4 3,-5 2,-5 3,-5 2,-5 2,-5 2,-5 1,-5 1,-5 1,-6 1,-5 1,-6 0,-5 0,-5 z" /><path
     style="fill:#ff420e;stroke:none"
     id="path4769"
     d="m 3909.9768,8924 0,-5 0,-5 -1,-6 -1,-5 -1,-6 -1,-5 -2,-5 -1,-5 -2,-5 -3,-5 -2,-5 -3,-5 -2,-5 -3,-4 -4,-5 -3,-4 -4,-4 -3,-4 -4,-4 -5,-3 -4,-4 -4,-3 -5,-3 -4,-3 -5,-2 -5,-3 -5,-2 -5,-2 -5,-2 -6,-1 -5,-2 -5,-1 -6,0 -5,-1 -5,0 -6,-1 -5,1 -6,0 -5,1 -6,0 -5,1 -5,2 -5,1 -6,2 -5,2 -5,2 -5,3 -4,2 -5,3 -5,3 -4,3 -4,4 -4,3 -4,4 -4,4 -4,4 -3,4 -3,5 -3,4 -3,5 -3,5 -2,5 -2,5 -2,5 -2,5 -2,5 -1,5 -1,6 -1,5 0,6 -1,5 0,5 0,6 1,5 0,6 1,5 1,5 1,6 2,5 2,5 2,5 2,5 2,5 3,5 3,5 3,4 3,5 3,4 4,4 4,4 4,4 4,3 4,4 4,3 5,3 5,3 4,2 5,3 5,2 5,2 6,2 5,1 5,1 5,2 6,0 5,1 6,0 5,0 6,0 5,0 5,-1 6,0 5,-2 5,-1 6,-1 5,-2 5,-2 5,-2 5,-3 5,-2 4,-3 5,-3 4,-3 4,-4 5,-3 4,-4 3,-4 4,-4 3,-4 4,-5 3,-4 2,-5 3,-5 2,-5 3,-5 2,-5 1,-5 2,-5 1,-6 1,-5 1,-5 1,-6 0,-5 0,-6 z" /><path
     style="fill:none;stroke:#ff420e;stroke-linejoin:round"
     id="path4771"
     d="m 3909.9768,8924 0,-5 0,-5 -1,-6 -1,-5 -1,-6 -1,-5 -2,-5 -1,-5 -2,-5 -3,-5 -2,-5 -3,-5 -2,-5 -3,-4 -4,-5 -3,-4 -4,-4 -3,-4 -4,-4 -5,-3 -4,-4 -4,-3 -5,-3 -4,-3 -5,-2 -5,-3 -5,-2 -5,-2 -5,-2 -6,-1 -5,-2 -5,-1 -6,0 -5,-1 -5,0 -6,-1 -5,1 -6,0 -5,1 -6,0 -5,1 -5,2 -5,1 -6,2 -5,2 -5,2 -5,3 -4,2 -5,3 -5,3 -4,3 -4,4 -4,3 -4,4 -4,4 -4,4 -3,4 -3,5 -3,4 -3,5 -3,5 -2,5 -2,5 -2,5 -2,5 -2,5 -1,5 -1,6 -1,5 0,6 -1,5 0,5 0,6 1,5 0,6 1,5 1,5 1,6 2,5 2,5 2,5 2,5 2,5 3,5 3,5 3,4 3,5 3,4 4,4 4,4 4,4 4,3 4,4 4,3 5,3 5,3 4,2 5,3 5,2 5,2 6,2 5,1 5,1 5,2 6,0 5,1 6,0 5,0 6,0 5,0 5,-1 6,0 5,-2 5,-1 6,-1 5,-2 5,-2 5,-2 5,-3 5,-2 4,-3 5,-3 4,-3 4,-4 5,-3 4,-4 3,-4 4,-4 3,-4 4,-5 3,-4 2,-5 3,-5 2,-5 3,-5 2,-5 1,-5 2,-5 1,-6 1,-5 1,-5 1,-6 0,-5 0,-6 z" /><path
     style="fill:#ff420e;stroke:none"
     id="path4773"
     d="m 5222.9768,8139 0,-5 -1,-6 0,-5 -1,-5 -1,-6 -1,-5 -2,-5 -2,-5 -2,-5 -2,-5 -2,-5 -3,-5 -3,-5 -3,-4 -3,-5 -3,-4 -4,-4 -4,-4 -4,-4 -4,-3 -4,-4 -4,-3 -5,-3 -5,-3 -4,-3 -5,-2 -5,-2 -5,-2 -5,-2 -6,-1 -5,-2 -5,-1 -6,-1 -5,0 -6,-1 -5,0 -5,0 -6,1 -5,0 -6,1 -5,1 -5,2 -6,1 -5,2 -5,2 -5,2 -5,2 -5,3 -4,3 -5,3 -4,3 -4,4 -4,3 -4,4 -4,4 -4,4 -3,4 -3,5 -3,4 -3,5 -3,5 -2,5 -3,5 -2,5 -1,5 -2,5 -1,5 -1,6 -1,5 -1,5 0,6 0,5 0,6 0,5 1,6 1,5 1,5 1,6 2,5 1,5 2,5 3,5 2,5 3,5 3,5 3,4 3,4 3,5 4,4 4,4 4,4 4,3 4,4 4,3 5,3 4,3 5,2 5,3 5,2 5,2 5,2 6,1 5,1 5,1 6,1 5,1 6,0 5,0 5,0 6,0 5,-1 6,-1 5,-1 5,-1 6,-1 5,-2 5,-2 5,-2 5,-3 4,-2 5,-3 5,-3 4,-3 4,-4 4,-3 4,-4 4,-4 4,-4 3,-5 3,-4 3,-4 3,-5 3,-5 2,-5 2,-5 2,-5 2,-5 2,-5 1,-6 1,-5 1,-5 0,-6 1,-5 0,-6 z" /><path
     style="fill:none;stroke:#ff420e;stroke-linejoin:round"
     id="path4775"
     d="m 5222.9768,8139 0,-5 -1,-6 0,-5 -1,-5 -1,-6 -1,-5 -2,-5 -2,-5 -2,-5 -2,-5 -2,-5 -3,-5 -3,-5 -3,-4 -3,-5 -3,-4 -4,-4 -4,-4 -4,-4 -4,-3 -4,-4 -4,-3 -5,-3 -5,-3 -4,-3 -5,-2 -5,-2 -5,-2 -5,-2 -6,-1 -5,-2 -5,-1 -6,-1 -5,0 -6,-1 -5,0 -5,0 -6,1 -5,0 -6,1 -5,1 -5,2 -6,1 -5,2 -5,2 -5,2 -5,2 -5,3 -4,3 -5,3 -4,3 -4,4 -4,3 -4,4 -4,4 -4,4 -3,4 -3,5 -3,4 -3,5 -3,5 -2,5 -3,5 -2,5 -1,5 -2,5 -1,5 -1,6 -1,5 -1,5 0,6 0,5 0,6 0,5 1,6 1,5 1,5 1,6 2,5 1,5 2,5 3,5 2,5 3,5 3,5 3,4 3,4 3,5 4,4 4,4 4,4 4,3 4,4 4,3 5,3 4,3 5,2 5,3 5,2 5,2 5,2 6,1 5,1 5,1 6,1 5,1 6,0 5,0 5,0 6,0 5,-1 6,-1 5,-1 5,-1 6,-1 5,-2 5,-2 5,-2 5,-3 4,-2 5,-3 5,-3 4,-3 4,-4 4,-3 4,-4 4,-4 4,-4 3,-5 3,-4 3,-4 3,-5 3,-5 2,-5 2,-5 2,-5 2,-5 2,-5 1,-6 1,-5 1,-5 0,-6 1,-5 0,-6 z" /><path
     style="fill:#ff420e;stroke:none"
     id="path4777"
     d="m 6535.9768,7354 0,-5 -1,-6 0,-5 -1,-5 -1,-6 -1,-5 -2,-5 -2,-5 -2,-6 -2,-5 -2,-4 -3,-5 -3,-5 -3,-4 -3,-5 -3,-4 -4,-4 -4,-4 -4,-4 -4,-3 -4,-4 -5,-3 -4,-3 -5,-3 -5,-3 -4,-2 -5,-2 -5,-2 -6,-2 -5,-1 -5,-2 -6,-1 -5,-1 -5,0 -6,-1 -5,0 -6,0 -5,1 -6,0 -5,1 -5,1 -6,2 -5,1 -5,2 -5,2 -5,2 -5,2 -5,3 -4,3 -5,3 -4,3 -5,4 -4,3 -4,4 -3,4 -4,4 -3,4 -4,5 -3,4 -2,5 -3,5 -3,4 -2,5 -2,6 -1,5 -2,5 -1,5 -1,6 -1,5 -1,5 0,6 0,5 0,6 0,5 1,6 1,5 1,5 1,6 2,5 1,5 2,5 2,5 3,5 3,5 2,4 3,5 4,4 3,5 4,4 3,4 4,3 4,4 5,3 4,4 5,3 4,3 5,2 5,3 5,2 5,2 5,2 5,1 6,1 5,1 5,1 6,1 5,0 6,0 5,0 6,0 5,-1 5,-1 6,-1 5,-1 5,-1 6,-2 5,-2 5,-2 4,-3 5,-2 5,-3 4,-3 5,-4 4,-3 4,-4 4,-3 4,-4 4,-4 3,-5 3,-4 3,-5 3,-4 3,-5 2,-5 2,-5 2,-5 2,-5 2,-5 1,-6 1,-5 1,-5 0,-6 1,-5 0,-6 z" /><path
     style="fill:none;stroke:#ff420e;stroke-linejoin:round"
     id="path4779"
     d="m 6535.9768,7354 0,-5 -1,-6 0,-5 -1,-5 -1,-6 -1,-5 -2,-5 -2,-5 -2,-6 -2,-5 -2,-4 -3,-5 -3,-5 -3,-4 -3,-5 -3,-4 -4,-4 -4,-4 -4,-4 -4,-3 -4,-4 -5,-3 -4,-3 -5,-3 -5,-3 -4,-2 -5,-2 -5,-2 -6,-2 -5,-1 -5,-2 -6,-1 -5,-1 -5,0 -6,-1 -5,0 -6,0 -5,1 -6,0 -5,1 -5,1 -6,2 -5,1 -5,2 -5,2 -5,2 -5,2 -5,3 -4,3 -5,3 -4,3 -5,4 -4,3 -4,4 -3,4 -4,4 -3,4 -4,5 -3,4 -2,5 -3,5 -3,4 -2,5 -2,6 -1,5 -2,5 -1,5 -1,6 -1,5 -1,5 0,6 0,5 0,6 0,5 1,6 1,5 1,5 1,6 2,5 1,5 2,5 2,5 3,5 3,5 2,4 3,5 4,4 3,5 4,4 3,4 4,3 4,4 5,3 4,4 5,3 4,3 5,2 5,3 5,2 5,2 5,2 5,1 6,1 5,1 5,1 6,1 5,0 6,0 5,0 6,0 5,-1 5,-1 6,-1 5,-1 5,-1 6,-2 5,-2 5,-2 4,-3 5,-2 5,-3 4,-3 5,-4 4,-3 4,-4 4,-3 4,-4 4,-4 3,-5 3,-4 3,-5 3,-4 3,-5 2,-5 2,-5 2,-5 2,-5 2,-5 1,-6 1,-5 1,-5 0,-6 1,-5 0,-6 z" /><path
     style="fill:#ff420e;stroke:none"
     id="path4781"
     d="m 7848.9768,6569 -1,-5 0,-6 0,-5 -1,-5 -1,-6 -2,-5 -1,-5 -2,-6 -2,-5 -2,-5 -3,-4 -2,-5 -3,-5 -3,-4 -3,-5 -4,-4 -3,-4 -4,-4 -4,-4 -4,-4 -4,-3 -5,-3 -4,-3 -5,-3 -5,-3 -5,-2 -5,-2 -5,-2 -5,-2 -5,-2 -5,-1 -6,-1 -5,-1 -6,0 -5,-1 -5,0 -6,0 -5,1 -6,0 -5,1 -5,1 -6,1 -5,2 -5,2 -5,2 -5,2 -5,2 -5,3 -5,3 -4,3 -5,3 -4,3 -4,4 -4,4 -4,4 -3,4 -4,4 -3,5 -3,4 -3,5 -2,5 -3,4 -2,5 -2,5 -2,6 -1,5 -1,5 -2,6 0,5 -1,5 0,6 0,5 0,6 0,5 1,6 0,5 2,5 1,6 1,5 2,5 2,5 2,5 3,5 2,5 3,4 3,5 3,4 4,5 3,4 4,4 4,3 4,4 4,3 5,4 4,3 5,2 5,3 5,3 5,2 5,2 5,1 5,2 6,1 5,1 5,1 6,1 5,0 6,0 5,0 5,0 6,-1 5,-1 6,-1 5,-1 5,-2 5,-1 5,-2 5,-2 5,-3 5,-3 5,-2 4,-3 5,-4 4,-3 4,-4 4,-3 4,-4 3,-4 4,-5 3,-4 3,-5 3,-4 2,-5 3,-5 2,-5 2,-5 2,-5 1,-5 2,-6 1,-5 1,-5 0,-6 0,-5 1,-6 z" /><path
     style="fill:none;stroke:#ff420e;stroke-linejoin:round"
     id="path4783"
     d="m 7848.9768,6569 -1,-5 0,-6 0,-5 -1,-5 -1,-6 -2,-5 -1,-5 -2,-6 -2,-5 -2,-5 -3,-4 -2,-5 -3,-5 -3,-4 -3,-5 -4,-4 -3,-4 -4,-4 -4,-4 -4,-4 -4,-3 -5,-3 -4,-3 -5,-3 -5,-3 -5,-2 -5,-2 -5,-2 -5,-2 -5,-2 -5,-1 -6,-1 -5,-1 -6,0 -5,-1 -5,0 -6,0 -5,1 -6,0 -5,1 -5,1 -6,1 -5,2 -5,2 -5,2 -5,2 -5,2 -5,3 -5,3 -4,3 -5,3 -4,3 -4,4 -4,4 -4,4 -3,4 -4,4 -3,5 -3,4 -3,5 -2,5 -3,4 -2,5 -2,5 -2,6 -1,5 -1,5 -2,6 0,5 -1,5 0,6 0,5 0,6 0,5 1,6 0,5 2,5 1,6 1,5 2,5 2,5 2,5 3,5 2,5 3,4 3,5 3,4 4,5 3,4 4,4 4,3 4,4 4,3 5,4 4,3 5,2 5,3 5,3 5,2 5,2 5,1 5,2 6,1 5,1 5,1 6,1 5,0 6,0 5,0 5,0 6,-1 5,-1 6,-1 5,-1 5,-2 5,-1 5,-2 5,-2 5,-3 5,-3 5,-2 4,-3 5,-4 4,-3 4,-4 4,-3 4,-4 3,-4 4,-5 3,-4 3,-5 3,-4 2,-5 3,-5 2,-5 2,-5 2,-5 1,-5 2,-6 1,-5 1,-5 0,-6 0,-5 1,-6 z" /><path
     style="fill:#ff420e;stroke:none"
     id="path4785"
     d="m 9159.9768,5784 0,-5 0,-6 -1,-5 0,-6 -2,-5 -1,-5 -1,-5 -2,-6 -2,-5 -2,-5 -3,-5 -2,-4 -3,-5 -3,-5 -3,-4 -4,-4 -3,-4 -4,-4 -4,-4 -4,-4 -4,-3 -5,-3 -4,-3 -5,-3 -5,-3 -5,-2 -5,-2 -5,-2 -5,-2 -5,-2 -6,-1 -5,-1 -5,-1 -6,0 -5,-1 -6,0 -5,0 -5,1 -6,0 -5,1 -6,1 -5,1 -5,2 -5,2 -5,2 -5,2 -5,2 -5,3 -5,3 -4,3 -5,3 -4,3 -4,4 -4,4 -4,4 -3,4 -4,4 -3,4 -3,5 -3,5 -2,4 -3,5 -2,5 -2,5 -2,6 -1,5 -2,5 -1,5 -1,6 0,5 0,6 -1,5 1,6 0,5 0,5 1,6 1,5 2,6 1,5 2,5 2,5 2,5 3,5 2,5 3,4 3,5 3,4 4,5 3,4 4,4 4,3 4,4 4,3 5,4 4,3 5,2 5,3 5,2 5,3 5,2 5,1 5,2 5,1 6,1 5,1 6,1 5,0 5,0 6,0 5,0 6,-1 5,-1 5,-1 6,-1 5,-2 5,-1 5,-2 5,-3 5,-2 5,-3 5,-2 4,-3 5,-4 4,-3 4,-4 4,-3 4,-4 3,-4 4,-5 3,-4 3,-5 3,-4 2,-5 3,-5 2,-5 2,-5 2,-5 1,-5 1,-6 2,-5 0,-6 1,-5 0,-5 0,-6 z" /><path
     style="fill:none;stroke:#ff420e;stroke-linejoin:round"
     id="path4787"
     d="m 9159.9768,5784 0,-5 0,-6 -1,-5 0,-6 -2,-5 -1,-5 -1,-5 -2,-6 -2,-5 -2,-5 -3,-5 -2,-4 -3,-5 -3,-5 -3,-4 -4,-4 -3,-4 -4,-4 -4,-4 -4,-4 -4,-3 -5,-3 -4,-3 -5,-3 -5,-3 -5,-2 -5,-2 -5,-2 -5,-2 -5,-2 -6,-1 -5,-1 -5,-1 -6,0 -5,-1 -6,0 -5,0 -5,1 -6,0 -5,1 -6,1 -5,1 -5,2 -5,2 -5,2 -5,2 -5,2 -5,3 -5,3 -4,3 -5,3 -4,3 -4,4 -4,4 -4,4 -3,4 -4,4 -3,4 -3,5 -3,5 -2,4 -3,5 -2,5 -2,5 -2,6 -1,5 -2,5 -1,5 -1,6 0,5 0,6 -1,5 1,6 0,5 0,5 1,6 1,5 2,6 1,5 2,5 2,5 2,5 3,5 2,5 3,4 3,5 3,4 4,5 3,4 4,4 4,3 4,4 4,3 5,4 4,3 5,2 5,3 5,2 5,3 5,2 5,1 5,2 5,1 6,1 5,1 6,1 5,0 5,0 6,0 5,0 6,-1 5,-1 5,-1 6,-1 5,-2 5,-1 5,-2 5,-3 5,-2 5,-3 5,-2 4,-3 5,-4 4,-3 4,-4 4,-3 4,-4 3,-4 4,-5 3,-4 3,-5 3,-4 2,-5 3,-5 2,-5 2,-5 2,-5 1,-5 1,-6 2,-5 0,-6 1,-5 0,-5 0,-6 z" /><path
     style="fill:#ff420e;stroke:none"
     id="path4789"
     d="m 10472.977,5000 0,-5 0,-6 -1,-5 -1,-6 -1,-5 -1,-5 -2,-5 -1,-6 -2,-5 -2,-5 -3,-5 -3,-4 -2,-5 -3,-5 -4,-4 -3,-4 -4,-4 -3,-4 -4,-4 -4,-4 -5,-3 -4,-3 -5,-3 -4,-3 -5,-3 -5,-2 -5,-2 -5,-2 -5,-2 -5,-2 -6,-1 -5,-1 -5,-1 -6,0 -5,-1 -6,0 -5,0 -6,1 -5,0 -5,1 -6,1 -5,1 -5,2 -6,2 -5,2 -5,2 -4,2 -5,3 -5,3 -4,3 -5,3 -4,3 -4,4 -4,4 -4,4 -4,4 -3,4 -3,4 -3,5 -3,5 -3,4 -2,5 -2,5 -2,5 -2,6 -2,5 -1,5 -1,5 -1,6 0,5 -1,6 0,5 0,6 1,5 0,5 1,6 1,5 1,5 2,6 2,5 2,5 2,5 2,5 3,5 3,4 3,5 3,4 3,4 4,5 4,3 4,4 4,4 4,3 5,3 4,4 5,2 5,3 4,2 5,3 5,2 6,1 5,2 5,1 6,1 5,1 5,1 6,0 5,0 6,0 5,0 6,-1 5,-1 5,-1 6,-1 5,-2 5,-1 5,-2 5,-3 5,-2 5,-3 4,-2 5,-4 4,-3 5,-3 4,-4 4,-4 3,-3 4,-5 3,-4 4,-4 3,-5 2,-4 3,-5 3,-5 2,-5 2,-5 1,-5 2,-6 1,-5 1,-5 1,-6 1,-5 0,-5 0,-6 z" /><path
     style="fill:none;stroke:#ff420e;stroke-linejoin:round"
     id="path4791"
     d="m 10472.977,5000 0,-5 0,-6 -1,-5 -1,-6 -1,-5 -1,-5 -2,-5 -1,-6 -2,-5 -2,-5 -3,-5 -3,-4 -2,-5 -3,-5 -4,-4 -3,-4 -4,-4 -3,-4 -4,-4 -4,-4 -5,-3 -4,-3 -5,-3 -4,-3 -5,-3 -5,-2 -5,-2 -5,-2 -5,-2 -5,-2 -6,-1 -5,-1 -5,-1 -6,0 -5,-1 -6,0 -5,0 -6,1 -5,0 -5,1 -6,1 -5,1 -5,2 -6,2 -5,2 -5,2 -4,2 -5,3 -5,3 -4,3 -5,3 -4,3 -4,4 -4,4 -4,4 -4,4 -3,4 -3,4 -3,5 -3,5 -3,4 -2,5 -2,5 -2,5 -2,6 -2,5 -1,5 -1,5 -1,6 0,5 -1,6 0,5 0,6 1,5 0,5 1,6 1,5 1,5 2,6 2,5 2,5 2,5 2,5 3,5 3,4 3,5 3,4 3,4 4,5 4,3 4,4 4,4 4,3 5,3 4,4 5,2 5,3 4,2 5,3 5,2 6,1 5,2 5,1 6,1 5,1 5,1 6,0 5,0 6,0 5,0 6,-1 5,-1 5,-1 6,-1 5,-2 5,-1 5,-2 5,-3 5,-2 5,-3 4,-2 5,-4 4,-3 5,-3 4,-4 4,-4 3,-3 4,-5 3,-4 4,-4 3,-5 2,-4 3,-5 3,-5 2,-5 2,-5 1,-5 2,-6 1,-5 1,-5 1,-6 1,-5 0,-5 0,-6 z" /><path
     style="fill:#ff420e;stroke:none"
     id="path4793"
     d="m 11785.977,4215 0,-5 0,-6 -1,-5 -1,-6 -1,-5 -1,-5 -2,-6 -1,-5 -2,-5 -3,-5 -2,-5 -3,-4 -3,-5 -3,-5 -3,-4 -3,-4 -4,-4 -4,-4 -4,-4 -4,-4 -4,-3 -4,-3 -5,-3 -4,-3 -5,-3 -5,-2 -5,-2 -5,-2 -5,-2 -6,-2 -5,-1 -5,-1 -6,-1 -5,0 -6,-1 -5,0 -5,0 -6,1 -5,0 -6,1 -5,1 -5,1 -6,2 -5,2 -5,2 -5,2 -5,2 -4,3 -5,3 -5,3 -4,3 -4,3 -4,4 -4,4 -4,4 -4,4 -3,4 -3,4 -3,5 -3,5 -3,4 -2,5 -2,5 -2,5 -2,5 -2,6 -1,5 -1,5 -1,6 0,5 -1,6 0,5 0,5 1,6 0,5 1,6 1,5 1,5 2,6 2,5 2,5 2,5 2,5 3,5 3,4 3,5 3,4 3,4 4,4 4,4 4,4 4,4 4,3 4,3 5,3 5,3 4,3 5,2 5,3 5,1 5,2 6,2 5,1 5,1 6,1 5,1 6,0 5,0 5,0 6,0 5,-1 6,-1 5,-1 5,-1 6,-2 5,-2 5,-1 5,-3 5,-2 5,-3 4,-3 5,-3 4,-3 4,-3 4,-4 4,-4 4,-4 4,-4 3,-4 3,-4 3,-5 3,-4 3,-5 2,-5 3,-5 2,-5 1,-5 2,-6 1,-5 1,-5 1,-6 1,-5 0,-6 0,-5 z" /><path
     style="fill:none;stroke:#ff420e;stroke-linejoin:round"
     id="path4795"
     d="m 11785.977,4215 0,-5 0,-6 -1,-5 -1,-6 -1,-5 -1,-5 -2,-6 -1,-5 -2,-5 -3,-5 -2,-5 -3,-4 -3,-5 -3,-5 -3,-4 -3,-4 -4,-4 -4,-4 -4,-4 -4,-4 -4,-3 -4,-3 -5,-3 -4,-3 -5,-3 -5,-2 -5,-2 -5,-2 -5,-2 -6,-2 -5,-1 -5,-1 -6,-1 -5,0 -6,-1 -5,0 -5,0 -6,1 -5,0 -6,1 -5,1 -5,1 -6,2 -5,2 -5,2 -5,2 -5,2 -4,3 -5,3 -5,3 -4,3 -4,3 -4,4 -4,4 -4,4 -4,4 -3,4 -3,4 -3,5 -3,5 -3,4 -2,5 -2,5 -2,5 -2,5 -2,6 -1,5 -1,5 -1,6 0,5 -1,6 0,5 0,5 1,6 0,5 1,6 1,5 1,5 2,6 2,5 2,5 2,5 2,5 3,5 3,4 3,5 3,4 3,4 4,4 4,4 4,4 4,4 4,3 4,3 5,3 5,3 4,3 5,2 5,3 5,1 5,2 6,2 5,1 5,1 6,1 5,1 6,0 5,0 5,0 6,0 5,-1 6,-1 5,-1 5,-1 6,-2 5,-2 5,-1 5,-3 5,-2 5,-3 4,-3 5,-3 4,-3 4,-3 4,-4 4,-4 4,-4 4,-4 3,-4 3,-4 3,-5 3,-4 3,-5 2,-5 3,-5 2,-5 1,-5 2,-6 1,-5 1,-5 1,-6 1,-5 0,-6 0,-5 z" /><path
     style="fill:#ff420e;stroke:none"
     id="path4797"
     d="m 13098.977,3430 0,-5 -1,-6 0,-5 -1,-6 -1,-5 -1,-5 -2,-6 -2,-5 -2,-5 -2,-5 -2,-5 -3,-5 -3,-4 -3,-5 -3,-4 -3,-4 -4,-4 -4,-4 -4,-4 -4,-4 -4,-3 -4,-3 -5,-3 -5,-3 -4,-3 -5,-2 -5,-3 -5,-1 -6,-2 -5,-2 -5,-1 -5,-1 -6,-1 -5,-1 -6,0 -5,0 -6,0 -5,0 -5,1 -6,1 -5,1 -5,1 -6,2 -5,2 -5,1 -5,3 -5,2 -5,3 -4,3 -5,3 -4,3 -4,3 -5,4 -4,4 -3,4 -4,4 -3,4 -4,4 -3,5 -2,4 -3,5 -2,5 -3,5 -2,5 -1,5 -2,6 -1,5 -1,5 -1,6 -1,5 0,6 0,5 0,5 0,6 1,5 1,6 1,5 1,5 2,6 1,5 2,5 3,5 2,5 3,4 2,5 3,5 4,4 3,4 4,4 3,4 4,4 5,4 4,3 4,3 5,3 4,3 5,3 5,2 5,2 5,2 5,2 6,2 5,1 5,1 6,1 5,0 5,1 6,0 5,0 6,-1 5,0 6,-1 5,-1 5,-1 5,-2 6,-2 5,-2 5,-2 5,-2 4,-3 5,-3 5,-3 4,-3 4,-3 4,-4 4,-4 4,-4 4,-4 3,-4 3,-4 3,-5 3,-5 3,-4 2,-5 2,-5 2,-5 2,-5 2,-6 1,-5 1,-5 1,-6 0,-5 1,-6 0,-5 z" /><path
     style="fill:none;stroke:#ff420e;stroke-linejoin:round"
     id="path4799"
     d="m 13098.977,3430 0,-5 -1,-6 0,-5 -1,-6 -1,-5 -1,-5 -2,-6 -2,-5 -2,-5 -2,-5 -2,-5 -3,-5 -3,-4 -3,-5 -3,-4 -3,-4 -4,-4 -4,-4 -4,-4 -4,-4 -4,-3 -4,-3 -5,-3 -5,-3 -4,-3 -5,-2 -5,-3 -5,-1 -6,-2 -5,-2 -5,-1 -5,-1 -6,-1 -5,-1 -6,0 -5,0 -6,0 -5,0 -5,1 -6,1 -5,1 -5,1 -6,2 -5,2 -5,1 -5,3 -5,2 -5,3 -4,3 -5,3 -4,3 -4,3 -5,4 -4,4 -3,4 -4,4 -3,4 -4,4 -3,5 -2,4 -3,5 -2,5 -3,5 -2,5 -1,5 -2,6 -1,5 -1,5 -1,6 -1,5 0,6 0,5 0,5 0,6 1,5 1,6 1,5 1,5 2,6 1,5 2,5 3,5 2,5 3,4 2,5 3,5 4,4 3,4 4,4 3,4 4,4 5,4 4,3 4,3 5,3 4,3 5,3 5,2 5,2 5,2 5,2 6,2 5,1 5,1 6,1 5,0 5,1 6,0 5,0 6,-1 5,0 6,-1 5,-1 5,-1 5,-2 6,-2 5,-2 5,-2 5,-2 4,-3 5,-3 5,-3 4,-3 4,-3 4,-4 4,-4 4,-4 4,-4 3,-4 3,-4 3,-5 3,-5 3,-4 2,-5 2,-5 2,-5 2,-5 2,-6 1,-5 1,-5 1,-6 0,-5 1,-6 0,-5 z" /><path
     style="fill:#ff420e;stroke:none"
     id="path4801"
     d="m 14411.977,2645 0,-6 -1,-5 0,-5 -1,-6 -1,-5 -2,-5 -1,-6 -2,-5 -2,-5 -2,-5 -2,-5 -3,-5 -3,-4 -3,-5 -3,-4 -4,-4 -3,-5 -4,-3 -4,-4 -4,-4 -4,-3 -5,-3 -4,-4 -5,-2 -5,-3 -4,-2 -5,-3 -6,-2 -5,-1 -5,-2 -5,-1 -6,-1 -5,-1 -5,-1 -6,0 -5,0 -6,0 -5,0 -6,1 -5,1 -5,1 -6,1 -5,2 -5,1 -5,2 -5,3 -5,2 -5,3 -4,2 -5,4 -4,3 -5,3 -4,4 -4,4 -3,3 -4,5 -3,4 -4,4 -3,5 -3,4 -2,5 -3,5 -2,5 -2,5 -2,5 -1,6 -1,5 -1,5 -1,6 -1,5 0,5 0,6 0,5 0,6 1,5 1,6 1,5 1,5 1,5 2,6 2,5 2,5 3,5 2,4 3,5 3,5 4,4 3,4 4,4 3,4 4,4 4,4 5,3 4,3 5,3 4,3 5,3 5,2 5,2 5,2 5,2 5,2 6,1 5,1 5,1 6,0 5,1 6,0 5,0 6,-1 5,0 5,-1 6,-1 5,-1 5,-2 5,-2 6,-2 5,-2 4,-2 5,-3 5,-3 4,-3 5,-3 4,-3 4,-4 4,-4 4,-4 3,-4 4,-4 3,-4 3,-5 3,-5 3,-4 2,-5 2,-5 2,-5 2,-6 1,-5 2,-5 1,-5 1,-6 0,-5 1,-6 0,-5 z" /><path
     style="fill:none;stroke:#ff420e;stroke-linejoin:round"
     id="path4803"
     d="m 14411.977,2645 0,-6 -1,-5 0,-5 -1,-6 -1,-5 -2,-5 -1,-6 -2,-5 -2,-5 -2,-5 -2,-5 -3,-5 -3,-4 -3,-5 -3,-4 -4,-4 -3,-5 -4,-3 -4,-4 -4,-4 -4,-3 -5,-3 -4,-4 -5,-2 -5,-3 -4,-2 -5,-3 -6,-2 -5,-1 -5,-2 -5,-1 -6,-1 -5,-1 -5,-1 -6,0 -5,0 -6,0 -5,0 -6,1 -5,1 -5,1 -6,1 -5,2 -5,1 -5,2 -5,3 -5,2 -5,3 -4,2 -5,4 -4,3 -5,3 -4,4 -4,4 -3,3 -4,5 -3,4 -4,4 -3,5 -3,4 -2,5 -3,5 -2,5 -2,5 -2,5 -1,6 -1,5 -1,5 -1,6 -1,5 0,5 0,6 0,5 0,6 1,5 1,6 1,5 1,5 1,5 2,6 2,5 2,5 3,5 2,4 3,5 3,5 4,4 3,4 4,4 3,4 4,4 4,4 5,3 4,3 5,3 4,3 5,3 5,2 5,2 5,2 5,2 5,2 6,1 5,1 5,1 6,0 5,1 6,0 5,0 6,-1 5,0 5,-1 6,-1 5,-1 5,-2 5,-2 6,-2 5,-2 4,-2 5,-3 5,-3 4,-3 5,-3 4,-3 4,-4 4,-4 4,-4 3,-4 4,-4 3,-4 3,-5 3,-5 3,-4 2,-5 2,-5 2,-5 2,-6 1,-5 2,-5 1,-5 1,-6 0,-5 1,-6 0,-5 z" /><path
     style="fill:#ff420e;stroke:none"
     id="path4805"
     d="m 15723.977,1860 0,-6 0,-5 -1,-5 0,-6 -1,-5 -2,-6 -1,-5 -2,-5 -2,-5 -2,-5 -3,-5 -2,-5 -3,-4 -3,-5 -3,-4 -4,-5 -3,-4 -4,-4 -4,-3 -4,-4 -4,-3 -5,-4 -4,-3 -5,-2 -5,-3 -5,-2 -5,-3 -5,-2 -5,-1 -5,-2 -5,-1 -6,-1 -5,-1 -6,-1 -5,0 -6,0 -5,0 -5,0 -6,1 -5,1 -6,1 -5,1 -5,2 -5,1 -5,2 -5,3 -5,2 -5,3 -5,2 -4,3 -5,4 -4,3 -4,4 -4,3 -4,4 -3,4 -4,5 -3,4 -3,5 -3,4 -2,5 -3,5 -2,5 -2,5 -2,5 -1,5 -2,6 -1,5 0,6 -1,5 0,5 -1,6 1,5 0,6 1,5 0,6 1,5 2,5 1,5 2,6 2,5 2,5 3,5 2,4 3,5 3,5 3,4 4,4 3,4 4,4 4,4 4,4 4,3 5,3 4,3 5,3 5,3 5,2 5,2 5,2 5,2 5,2 5,1 6,1 5,1 6,0 5,1 5,0 6,0 5,-1 6,0 5,-1 6,-1 5,-1 5,-2 5,-2 5,-2 5,-2 5,-2 5,-3 5,-3 4,-3 5,-3 4,-3 4,-4 4,-4 4,-4 3,-4 4,-4 3,-4 3,-5 3,-5 2,-4 3,-5 2,-5 2,-5 2,-6 1,-5 2,-5 1,-5 0,-6 1,-5 0,-6 0,-5 z" /><path
     style="fill:none;stroke:#ff420e;stroke-linejoin:round"
     id="path4807"
     d="m 15723.977,1860 0,-6 0,-5 -1,-5 0,-6 -1,-5 -2,-6 -1,-5 -2,-5 -2,-5 -2,-5 -3,-5 -2,-5 -3,-4 -3,-5 -3,-4 -4,-5 -3,-4 -4,-4 -4,-3 -4,-4 -4,-3 -5,-4 -4,-3 -5,-2 -5,-3 -5,-2 -5,-3 -5,-2 -5,-1 -5,-2 -5,-1 -6,-1 -5,-1 -6,-1 -5,0 -6,0 -5,0 -5,0 -6,1 -5,1 -6,1 -5,1 -5,2 -5,1 -5,2 -5,3 -5,2 -5,3 -5,2 -4,3 -5,4 -4,3 -4,4 -4,3 -4,4 -3,4 -4,5 -3,4 -3,5 -3,4 -2,5 -3,5 -2,5 -2,5 -2,5 -1,5 -2,6 -1,5 0,6 -1,5 0,5 -1,6 1,5 0,6 1,5 0,6 1,5 2,5 1,5 2,6 2,5 2,5 3,5 2,4 3,5 3,5 3,4 4,4 3,4 4,4 4,4 4,4 4,3 5,3 4,3 5,3 5,3 5,2 5,2 5,2 5,2 5,2 5,1 6,1 5,1 6,0 5,1 5,0 6,0 5,-1 6,0 5,-1 6,-1 5,-1 5,-2 5,-2 5,-2 5,-2 5,-2 5,-3 5,-3 4,-3 5,-3 4,-3 4,-4 4,-4 4,-4 3,-4 4,-4 3,-4 3,-5 3,-5 2,-4 3,-5 2,-5 2,-5 2,-6 1,-5 2,-5 1,-5 0,-6 1,-5 0,-6 0,-5 z" /><text
     y="-1535.6898"
     x="3190.0325"
     id="text4913"
     class="TextShape"><tspan
       style="font-weight:400;font-size:353px;font-family:'Liberation Sans', sans-serif"
       id="tspan4915"
       font-weight="400"
       font-size="353px"
       class="TextParagraph"><tspan
         id="tspan4917"
         y="7313.3101"
         x="3303.0325"
         class="TextPosition"><tspan
           style="fill:#000000;stroke:none"
           id="tspan4919">188880</tspan></tspan></tspan></text>
<text
     x="426.97684"
     id="text4985"
     class="TextShape"><tspan
       style="font-weight:400;font-size:459px;font-family:'Liberation Sans', sans-serif"
       id="tspan4987"
       font-weight="400"
       font-size="459px"
       class="TextParagraph"><tspan
         id="tspan4989"
         y="879"
         x="8167.9771"
         class="TextPosition"><tspan
           style="fill:#000000;stroke:none"
           id="tspan4991" /></tspan></tspan></text>
<path
     style="fill:none;stroke:#004586;stroke-width:80;stroke-linejoin:round"
     id="path4993"
     d="m 4140.9768,478 800,0" /><path
     style="fill:#004586;stroke:none"
     id="path4995"
     d="m 4434.9768,373 0,211 211,0 0,-211 -211,0 z" /><path
     style="fill:none;stroke:#004586;stroke-linejoin:round"
     id="path4997"
     d="m 4434.9768,373 0,211 211,0 0,-211 -211,0 z" /><path
     style="fill:none;stroke:#ff420e;stroke-width:80;stroke-linejoin:round"
     id="path4999"
     d="m 9958.9768,478 800.0002,0" /><path
     style="fill:#ff420e;stroke:none"
     id="path5001"
     d="m 10463.977,478 0,-5 0,-4 -1,-5 -1,-4 -1,-5 -1,-4 -1,-5 -1,-4 -2,-4 -2,-5 -2,-4 -2,-4 -3,-4 -2,-4 -3,-3 -3,-4 -3,-3 -3,-4 -3,-3 -4,-3 -3,-3 -4,-2 -4,-3 -4,-2 -4,-3 -4,-2 -4,-1 -4,-2 -5,-2 -4,-1 -5,-1 -4,-1 -5,-1 -4,0 -5,0 -4,0 -5,0 -5,0 -4,0 -5,1 -4,1 -5,1 -4,1 -5,2 -4,2 -4,1 -4,2 -4,3 -4,2 -4,3 -4,2 -3,3 -4,3 -3,3 -3,4 -3,3 -3,4 -3,3 -2,4 -3,4 -2,4 -2,4 -2,5 -2,4 -1,4 -1,5 -1,4 -1,5 -1,4 -1,5 0,4 0,5 0,5 0,4 1,5 1,4 1,5 1,4 1,5 1,4 2,4 2,5 2,4 2,4 3,4 2,4 3,3 3,4 3,3 3,4 3,3 4,3 3,3 4,2 4,3 4,2 4,3 4,2 4,1 4,2 5,2 4,1 5,1 4,1 5,1 4,0 5,0 5,1 4,-1 5,0 4,0 5,-1 4,-1 5,-1 4,-1 5,-2 4,-2 4,-1 4,-2 4,-3 4,-2 4,-3 4,-2 3,-3 4,-3 3,-3 3,-4 3,-3 3,-4 3,-3 2,-4 3,-4 2,-4 2,-4 2,-5 2,-4 1,-4 1,-5 1,-4 1,-5 1,-4 1,-5 0,-4 0,-5 z" /><path
     style="fill:none;stroke:#ff420e;stroke-linejoin:round"
     id="path5003"
     d="m 10463.977,478 0,-5 0,-4 -1,-5 -1,-4 -1,-5 -1,-4 -1,-5 -1,-4 -2,-4 -2,-5 -2,-4 -2,-4 -3,-4 -2,-4 -3,-3 -3,-4 -3,-3 -3,-4 -3,-3 -4,-3 -3,-3 -4,-2 -4,-3 -4,-2 -4,-3 -4,-2 -4,-1 -4,-2 -5,-2 -4,-1 -5,-1 -4,-1 -5,-1 -4,0 -5,0 -4,0 -5,0 -5,0 -4,0 -5,1 -4,1 -5,1 -4,1 -5,2 -4,2 -4,1 -4,2 -4,3 -4,2 -4,3 -4,2 -3,3 -4,3 -3,3 -3,4 -3,3 -3,4 -3,3 -2,4 -3,4 -2,4 -2,4 -2,5 -2,4 -1,4 -1,5 -1,4 -1,5 -1,4 -1,5 0,4 0,5 0,5 0,4 1,5 1,4 1,5 1,4 1,5 1,4 2,4 2,5 2,4 2,4 3,4 2,4 3,3 3,4 3,3 3,4 3,3 4,3 3,3 4,2 4,3 4,2 4,3 4,2 4,1 4,2 5,2 4,1 5,1 4,1 5,1 4,0 5,0 5,1 4,-1 5,0 4,0 5,-1 4,-1 5,-1 4,-1 5,-2 4,-2 4,-1 4,-2 4,-3 4,-2 4,-3 4,-2 3,-3 4,-3 3,-3 3,-4 3,-3 3,-4 3,-3 2,-4 3,-4 2,-4 2,-4 2,-5 2,-4 1,-4 1,-5 1,-4 1,-5 1,-4 1,-5 0,-4 0,-5 z" /><text
     id="text5027"
     y="628.27411"
     x="5075.5518"
     style="font-style:normal;font-weight:normal;font-size:352.777771px;line-height:125%;font-family:sans-serif;letter-spacing:0px;word-spacing:0px;fill:#000000;fill-opacity:1;stroke:none;stroke-width:1px;stroke-linecap:butt;stroke-linejoin:miter;stroke-opacity:1"
     xml:space="preserve"><tspan
       y="628.27411"
       x="5075.5518"
       id="tspan5029">ohne Bänke</tspan></text>
<text
     id="text5031"
     y="586.76898"
     x="10904.057"
     style="font-style:normal;font-weight:normal;font-size:352.777771px;line-height:125%;font-family:sans-serif;letter-spacing:0px;word-spacing:0px;fill:#000000;fill-opacity:1;stroke:none;stroke-width:1px;stroke-linecap:butt;stroke-linejoin:miter;stroke-opacity:1"
     xml:space="preserve"><tspan
       y="586.76898"
       x="10904.057"
       id="tspan5033">mit Bänken</tspan></text>
<text
     id="text5035"
     y="1038.8575"
     x="1006.6108"
     style="font-style:normal;font-weight:normal;font-size:352.777771px;line-height:125%;font-family:sans-serif;letter-spacing:0px;word-spacing:0px;fill:#000000;fill-opacity:1;stroke:none;stroke-width:1px;stroke-linecap:butt;stroke-linejoin:miter;stroke-opacity:1"
     xml:space="preserve"><tspan
       y="1038.8575"
       x="1006.6108"
       id="tspan5037" /></text>
<text
     id="text5039"
     y="1001.1237"
     x="565.31219"
     style="font-style:normal;font-weight:normal;font-size:352.777771px;line-height:125%;font-family:sans-serif;letter-spacing:0px;word-spacing:0px;fill:#000000;fill-opacity:1;stroke:none;stroke-width:1px;stroke-linecap:butt;stroke-linejoin:miter;stroke-opacity:1"
     xml:space="preserve"><tspan
       y="1001.1237"
       x="565.31219"
       id="tspan5041">90</tspan></text>
<text
     id="text5043"
     y="1971.7224"
     x="563.58966"
     style="font-style:normal;font-weight:normal;font-size:352.777771px;line-height:125%;font-family:sans-serif;letter-spacing:0px;word-spacing:0px;fill:#000000;fill-opacity:1;stroke:none;stroke-width:1px;stroke-linecap:butt;stroke-linejoin:miter;stroke-opacity:1"
     xml:space="preserve"><tspan
       y="1971.7224"
       x="563.58966"
       id="tspan5045">80</tspan></text>
<text
     id="text5047"
     y="2955.9473"
     x="558.59424"
     style="font-style:normal;font-weight:normal;font-size:352.777771px;line-height:125%;font-family:sans-serif;letter-spacing:0px;word-spacing:0px;fill:#000000;fill-opacity:1;stroke:none;stroke-width:1px;stroke-linecap:butt;stroke-linejoin:miter;stroke-opacity:1"
     xml:space="preserve"><tspan
       y="2955.9473"
       x="558.59424"
       id="tspan5049">70</tspan></text>
<text
     id="text5051"
     y="3941.2205"
     x="562.90063"
     style="font-style:normal;font-weight:normal;font-size:352.777771px;line-height:125%;font-family:sans-serif;letter-spacing:0px;word-spacing:0px;fill:#000000;fill-opacity:1;stroke:none;stroke-width:1px;stroke-linecap:butt;stroke-linejoin:miter;stroke-opacity:1"
     xml:space="preserve"><tspan
       y="3941.2205"
       x="562.90063"
       id="tspan5053">60</tspan></text>
<text
     id="text5055"
     y="4924.3975"
     x="560.31677"
     style="font-style:normal;font-weight:normal;font-size:352.777771px;line-height:125%;font-family:sans-serif;letter-spacing:0px;word-spacing:0px;fill:#000000;fill-opacity:1;stroke:none;stroke-width:1px;stroke-linecap:butt;stroke-linejoin:miter;stroke-opacity:1"
     xml:space="preserve"><tspan
       y="4924.3975"
       x="560.31677"
       id="tspan5057">50</tspan></text>
<text
     id="text5059"
     y="5910.7183"
     x="570.30756"
     style="font-style:normal;font-weight:normal;font-size:352.777771px;line-height:125%;font-family:sans-serif;letter-spacing:0px;word-spacing:0px;fill:#000000;fill-opacity:1;stroke:none;stroke-width:1px;stroke-linecap:butt;stroke-linejoin:miter;stroke-opacity:1"
     xml:space="preserve"><tspan
       y="5910.7183"
       x="570.30756"
       id="tspan5061">40</tspan></text>
<text
     id="text5063"
     y="6886.5576"
     x="560.66132"
     style="font-style:normal;font-weight:normal;font-size:352.777771px;line-height:125%;font-family:sans-serif;letter-spacing:0px;word-spacing:0px;fill:#000000;fill-opacity:1;stroke:none;stroke-width:1px;stroke-linecap:butt;stroke-linejoin:miter;stroke-opacity:1"
     xml:space="preserve"><tspan
       y="6886.5576"
       x="560.66132"
       id="tspan5065">30</tspan></text>
<text
     id="text5067"
     y="7874.9756"
     x="561.69482"
     style="font-style:normal;font-weight:normal;font-size:352.777771px;line-height:125%;font-family:sans-serif;letter-spacing:0px;word-spacing:0px;fill:#000000;fill-opacity:1;stroke:none;stroke-width:1px;stroke-linecap:butt;stroke-linejoin:miter;stroke-opacity:1"
     xml:space="preserve"><tspan
       y="7874.9756"
       x="561.69482"
       id="tspan5069">20</tspan></text>
<text
     id="text5071"
     y="8857.1045"
     x="548.76636"
     style="font-style:normal;font-weight:normal;font-size:352.777771px;line-height:125%;font-family:sans-serif;letter-spacing:0px;word-spacing:0px;fill:#000000;fill-opacity:1;stroke:none;stroke-width:1px;stroke-linecap:butt;stroke-linejoin:miter;stroke-opacity:1"
     xml:space="preserve"><tspan
       y="8857.1045"
       x="548.76636"
       id="tspan5073">10</tspan></text>
<text
     id="text5075"
     y="10273.172"
     x="1054.8264"
     style="font-style:normal;font-weight:normal;font-size:352.777771px;line-height:125%;font-family:sans-serif;letter-spacing:0px;word-spacing:0px;fill:#000000;fill-opacity:1;stroke:none;stroke-width:1px;stroke-linecap:butt;stroke-linejoin:miter;stroke-opacity:1"
     xml:space="preserve"><tspan
       y="10273.172"
       x="1054.8264"
       id="tspan5077">1</tspan></text>
<text
     id="text5079"
     y="10273.169"
     x="2356.6445"
     style="font-style:normal;font-weight:normal;font-size:352.777771px;line-height:125%;font-family:sans-serif;letter-spacing:0px;word-spacing:0px;fill:#000000;fill-opacity:1;stroke:none;stroke-width:1px;stroke-linecap:butt;stroke-linejoin:miter;stroke-opacity:1"
     xml:space="preserve"><tspan
       y="10273.169"
       x="2356.6445"
       id="tspan5081">2</tspan></text>
<text
     id="text5083"
     y="10268.174"
     x="3684.667"
     style="font-style:normal;font-weight:normal;font-size:352.777771px;line-height:125%;font-family:sans-serif;letter-spacing:0px;word-spacing:0px;fill:#000000;fill-opacity:1;stroke:none;stroke-width:1px;stroke-linecap:butt;stroke-linejoin:miter;stroke-opacity:1"
     xml:space="preserve"><tspan
       y="10268.174"
       x="3684.667"
       id="tspan5085">3</tspan></text>
<text
     id="text5087"
     y="10273.169"
     x="4991.2568"
     style="font-style:normal;font-weight:normal;font-size:352.777771px;line-height:125%;font-family:sans-serif;letter-spacing:0px;word-spacing:0px;fill:#000000;fill-opacity:1;stroke:none;stroke-width:1px;stroke-linecap:butt;stroke-linejoin:miter;stroke-opacity:1"
     xml:space="preserve"><tspan
       y="10273.169"
       x="4991.2568"
       id="tspan5089">4</tspan></text>
<text
     id="text5091"
     y="10268.174"
     x="6304.0254"
     style="font-style:normal;font-weight:normal;font-size:352.777771px;line-height:125%;font-family:sans-serif;letter-spacing:0px;word-spacing:0px;fill:#000000;fill-opacity:1;stroke:none;stroke-width:1px;stroke-linecap:butt;stroke-linejoin:miter;stroke-opacity:1"
     xml:space="preserve"><tspan
       y="10268.174"
       x="6304.0254"
       id="tspan5093">5</tspan></text>
<text
     id="text5095"
     y="10268.174"
     x="7611.0845"
     style="font-style:normal;font-weight:normal;font-size:352.777771px;line-height:125%;font-family:sans-serif;letter-spacing:0px;word-spacing:0px;fill:#000000;fill-opacity:1;stroke:none;stroke-width:1px;stroke-linecap:butt;stroke-linejoin:miter;stroke-opacity:1"
     xml:space="preserve"><tspan
       y="10268.174"
       x="7611.0845"
       id="tspan5097">6</tspan></text>
<text
     id="text5099"
     y="10273.169"
     x="8925.4805"
     style="font-style:normal;font-weight:normal;font-size:352.777771px;line-height:125%;font-family:sans-serif;letter-spacing:0px;word-spacing:0px;fill:#000000;fill-opacity:1;stroke:none;stroke-width:1px;stroke-linecap:butt;stroke-linejoin:miter;stroke-opacity:1"
     xml:space="preserve"><tspan
       y="10273.169"
       x="8925.4805"
       id="tspan5101">7</tspan></text>
<text
     id="text5103"
     y="10268.174"
     x="10237.78"
     style="font-style:normal;font-weight:normal;font-size:352.777771px;line-height:125%;font-family:sans-serif;letter-spacing:0px;word-spacing:0px;fill:#000000;fill-opacity:1;stroke:none;stroke-width:1px;stroke-linecap:butt;stroke-linejoin:miter;stroke-opacity:1"
     xml:space="preserve"><tspan
       y="10268.174"
       x="10237.78"
       id="tspan5105">8</tspan></text>
<text
     id="text5107"
     y="10268.174"
     x="11552.177"
     style="font-style:normal;font-weight:normal;font-size:352.777771px;line-height:125%;font-family:sans-serif;letter-spacing:0px;word-spacing:0px;fill:#000000;fill-opacity:1;stroke:none;stroke-width:1px;stroke-linecap:butt;stroke-linejoin:miter;stroke-opacity:1"
     xml:space="preserve"><tspan
       y="10268.174"
       x="11552.177"
       id="tspan5109">9</tspan></text>
<text
     id="text5111"
     y="10268.174"
     x="12739.901"
     style="font-style:normal;font-weight:normal;font-size:352.777771px;line-height:125%;font-family:sans-serif;letter-spacing:0px;word-spacing:0px;fill:#000000;fill-opacity:1;stroke:none;stroke-width:1px;stroke-linecap:butt;stroke-linejoin:miter;stroke-opacity:1"
     xml:space="preserve"><tspan
       y="10268.174"
       x="12739.901"
       id="tspan5113">10</tspan></text>
<text
     id="text5115"
     y="10273.169"
     x="14059.382"
     style="font-style:normal;font-weight:normal;font-size:352.777771px;line-height:125%;font-family:sans-serif;letter-spacing:0px;word-spacing:0px;fill:#000000;fill-opacity:1;stroke:none;stroke-width:1px;stroke-linecap:butt;stroke-linejoin:miter;stroke-opacity:1"
     xml:space="preserve"><tspan
       y="10273.169"
       x="14059.382"
       id="tspan5117">11</tspan></text>
<text
     id="text5119"
     y="10273.169"
     x="15372.73"
     style="font-style:normal;font-weight:normal;font-size:352.777771px;line-height:125%;font-family:sans-serif;letter-spacing:0px;word-spacing:0px;fill:#000000;fill-opacity:1;stroke:none;stroke-width:1px;stroke-linecap:butt;stroke-linejoin:miter;stroke-opacity:1"
     xml:space="preserve"><tspan
       y="10273.169"
       x="15372.73"
       id="tspan5121">12</tspan></text>
<text
     transform="matrix(0,-1,1,0,0,0)"
     id="text4811"
     y="268.02841"
     x="-6748.4023"
     style="font-style:normal;font-weight:normal;font-size:1128.88879395px;line-height:125%;font-family:sans-serif;letter-spacing:0px;word-spacing:0px;fill:#000000;fill-opacity:1;stroke:none;stroke-width:1px;stroke-linecap:butt;stroke-linejoin:miter;stroke-opacity:1"
     xml:space="preserve"><tspan
       style="font-size:352.777771px"
       y="268.02841"
       x="-6748.4023"
       id="tspan4813">Anzahl der Funktionen</tspan></text>
<text
     id="text4815"
     y="10693.616"
     x="6588.7852"
     style="font-style:normal;font-weight:normal;font-size:1128.88879395px;line-height:125%;font-family:sans-serif;letter-spacing:0px;word-spacing:0px;fill:#000000;fill-opacity:1;stroke:none;stroke-width:1px;stroke-linecap:butt;stroke-linejoin:miter;stroke-opacity:1"
     xml:space="preserve"><tspan
       style="font-size:352.777771px"
       y="10693.616"
       x="6588.7852"
       id="tspan4817">Anzahl der Schalter</tspan></text>
</svg>