<?xml version="1.0" encoding="UTF-8" standalone="no"?>
<!-- Created with Inkscape (http://www.inkscape.org/) -->

<svg
   xmlns:dc="http://purl.org/dc/elements/1.1/"
   xmlns:cc="http://creativecommons.org/ns#"
   xmlns:rdf="http://www.w3.org/1999/02/22-rdf-syntax-ns#"
   xmlns:svg="http://www.w3.org/2000/svg"
   xmlns="http://www.w3.org/2000/svg"
   xmlns:sodipodi="http://sodipodi.sourceforge.net/DTD/sodipodi-0.dtd"
   xmlns:inkscape="http://www.inkscape.org/namespaces/inkscape"
   width="170.00203mm"
   height="40.77375mm"
   viewBox="0 0 602.3694 144.47392"
   id="svg9782"
   version="1.1"
   inkscape:version="0.91 r13725"
   sodipodi:docname="hardwaremidi.svg">
  <defs
     id="defs9784" />
  <sodipodi:namedview
     id="base"
     pagecolor="#ffffff"
     bordercolor="#666666"
     borderopacity="1.0"
     inkscape:pageopacity="0.0"
     inkscape:pageshadow="2"
     inkscape:zoom="3.959798"
     inkscape:cx="365.49849"
     inkscape:cy="94.12724"
     inkscape:document-units="px"
     inkscape:current-layer="layer1"
     showgrid="false"
     fit-margin-top="0"
     fit-margin-left="0"
     fit-margin-right="0"
     fit-margin-bottom="0"
     inkscape:window-width="1920"
     inkscape:window-height="1040"
     inkscape:window-x="0"
     inkscape:window-y="0"
     inkscape:window-maximized="0" />
  <metadata
     id="metadata9787">
    <rdf:RDF>
      <cc:Work
         rdf:about="">
        <dc:format>image/svg+xml</dc:format>
        <dc:type
           rdf:resource="http://purl.org/dc/dcmitype/StillImage" />
        <dc:title></dc:title>
      </cc:Work>
    </rdf:RDF>
  </metadata>
  <g
     inkscape:label="Ebene 1"
     inkscape:groupmode="layer"
     id="layer1"
     transform="translate(21.18471,-271.55381)">
    <path
       d="m -21.18471,271.55382 602.36942,0 0,144.47392 -602.36942,0 0,-144.47392 z"
       style="fill:none;fill-opacity:1;fill-rule:nonzero;stroke:none"
       id="path4332"
       inkscape:connector-curvature="0" />
    <path
       d="m 74.736502,296.42227 26.550048,0"
       style="fill:none;stroke:#ffffff;stroke-width:0.78947502;stroke-linecap:butt;stroke-linejoin:miter;stroke-miterlimit:10;stroke-dasharray:none;stroke-opacity:1"
       id="path4354"
       inkscape:connector-curvature="0" />
    <path
       d="m 105.43129,296.42227 -5.52632,2.76316 1.38158,-2.76316 -1.38158,-2.76316 5.52632,2.76316 z"
       style="fill:none;stroke:#ffffff;stroke-width:0.78947502;stroke-linecap:butt;stroke-linejoin:miter;stroke-miterlimit:10;stroke-dasharray:none;stroke-opacity:1"
       id="path4362"
       inkscape:connector-curvature="0" />
    <path
       d="m -13.28996,272.34329 80.52645,0 c 3.924141,0 7.105275,3.18114 7.105275,7.10528 l 0,33.15795 c 0,3.92413 -3.181134,7.10527 -7.105275,7.10527 l -80.52645,0 c -3.924137,0 -7.105275,-3.18114 -7.105275,-7.10527 l 0,-33.15795 c 0,-3.92414 3.181138,-7.10528 7.105275,-7.10528 z"
       style="fill:none;stroke:#ffffff;stroke-width:1.57895005;stroke-linecap:butt;stroke-linejoin:miter;stroke-miterlimit:10;stroke-dasharray:none;stroke-opacity:1"
       id="path4372"
       inkscape:connector-curvature="0" />
    <path
       d="m -5.671604,300.76439 -5.672423,0 0,-8.60982 5.672423,0 0,1.01768 -4.527531,0 0,2.35917 4.527531,0 0,1.01768 -4.527531,0 0,3.19761 4.527531,0 0,1.01768 z m 2.896542,-7.5401 -1.225846,0 0,-1.12755 1.225846,0 0,1.12755 z m -0.06939,7.5401 -1.08707,0 0,-6.45881 1.08707,0 0,6.45881 z m 7.546271,0 -1.08707,0 0,-3.67753 c 0,-0.29683 -0.01735,-0.57534 -0.05204,-0.83554 -0.0347,-0.26021 -0.0983,-0.46355 -0.190816,-0.61004 -0.09637,-0.1619 -0.235146,-0.28236 -0.416325,-0.36139 -0.181179,-0.079 -0.416325,-0.11854 -0.705439,-0.11854 -0.296824,0 -0.60714,0.0732 -0.930948,0.21973 -0.32380899,0.14649 -0.63412499,0.33345 -0.93094899,0.56088 l 0,4.82243 -1.08707,0 0,-6.45881 1.08707,0 0,0.717 c 0.339228,-0.28141 0.69001999,-0.50113 1.05237599,-0.65918 0.362358,-0.15805 0.734351,-0.23707 1.115983,-0.23707 0.697729,0 1.229699,0.21008 1.595911,0.63026 0.366211,0.42018 0.549317,1.0254 0.549317,1.81564 l 0,4.19216 z m 7.325773,-0.73435 c 0,1.09478 -0.248639,1.89852 -0.745916,2.41121 -0.497276,0.5127 -1.262466,0.76905 -2.295567,0.76905 -0.343083,0 -0.677492,-0.0241 -1.003227,-0.0723 -0.325736,-0.0482 -0.646653,-0.11661 -0.962752,-0.20527 l 0,-1.1102 0.05782,0 c 0.177324,0.0694 0.458729,0.15516 0.844214,0.25731 0.385486,0.10215 0.770973,0.15323 1.156458,0.15323 0.370067,0 0.676528,-0.0443 0.919384,-0.13299 0.242856,-0.0887 0.431744,-0.21202 0.566664,-0.37007 0.13492,-0.15034 0.231292,-0.33152 0.289114,-0.54353 0.05782,-0.21202 0.08673,-0.44909 0.08673,-0.71122 l 0,-0.5898 c -0.327662,0.26213 -0.640869,0.45777 -0.939621,0.5869 -0.298751,0.12914 -0.679419,0.19371 -1.142002,0.19371 -0.770972,0 -1.38293,-0.27851 -1.835876,-0.83554 -0.452946,-0.55703 -0.679418,-1.34245 -0.679418,-2.35628 0,-0.5551 0.07806,-1.03407 0.234181,-1.4369 0.156122,-0.40283 0.369104,-0.75073 0.638944,-1.0437 0.250565,-0.2737 0.5551,-0.48668 0.913601,-0.63895 0.358502,-0.15226 0.715076,-0.2284 1.069724,-0.2284 0.37392,0 0.687128,0.0376 0.939621,0.11276 0.252493,0.0752 0.519442,0.18985 0.800846,0.34404 l 0.06939,-0.27755 1.017683,0 0,5.72447 z m -1.087071,-1.04081 0,-3.52141 c -0.289114,-0.13107 -0.557991,-0.22455 -0.806629,-0.28044 -0.248638,-0.0559 -0.496313,-0.0838 -0.743024,-0.0838 -0.597503,0 -1.067795,0.20045 -1.410878,0.60135 -0.343082,0.40091 -0.514623,0.98299 -0.514623,1.74625 0,0.72472 0.12721,1.27403 0.38163,1.64796 0.254421,0.37392 0.676528,0.56088 1.266321,0.56088 0.316099,0 0.633161,-0.0607 0.951187,-0.18214 0.318025,-0.12143 0.610031,-0.2843 0.876016,-0.48861 z m 8.244,1.77516 -1.081288,0 0,-0.68809 c -0.09637,0.0655 -0.226472,0.15709 -0.390303,0.27466 -0.163832,0.11757 -0.322845,0.21105 -0.477039,0.28044 -0.181179,0.0887 -0.389341,0.16287 -0.624487,0.22262 -0.235147,0.0598 -0.510769,0.0896 -0.826867,0.0896 -0.582084,0 -1.075506,-0.19275 -1.480266,-0.57823 -0.404761,-0.38549 -0.60714,-0.87698 -0.60714,-1.47449 0,-0.48956 0.105044,-0.88565 0.315135,-1.18826 0.210089,-0.3026 0.509805,-0.54064 0.899145,-0.71411 0.393195,-0.17347 0.865416,-0.29104 1.41666,-0.35272 0.551245,-0.0617 1.142966,-0.10793 1.775162,-0.13877 l 0,-0.16769 c 0,-0.24671 -0.04337,-0.45102 -0.1301,-0.61292 -0.08674,-0.16191 -0.211054,-0.28912 -0.372959,-0.38163 -0.154193,-0.0887 -0.339227,-0.14841 -0.555099,-0.17925 -0.215872,-0.0308 -0.441381,-0.0463 -0.676527,-0.0463 -0.28526,0 -0.603286,0.0376 -0.954078,0.11275 -0.350792,0.0752 -0.713149,0.18407 -1.08707,0.3267 l -0.05782,0 0,-1.10442 c 0.212018,-0.0578 0.518479,-0.12142 0.919384,-0.19081 0.400906,-0.0694 0.796029,-0.10408 1.185369,-0.10408 0.454874,0 0.85096,0.0376 1.188261,0.11275 0.3373,0.0752 0.629305,0.20334 0.876016,0.38452 0.242856,0.17733 0.427889,0.40669 0.5551,0.6881 0.12721,0.2814 0.190815,0.63026 0.190815,1.04659 l 0,4.38297 z m -1.081288,-1.59013 0,-1.79829 c -0.331517,0.0193 -0.721821,0.0482 -1.170913,0.0867 -0.449091,0.0386 -0.804701,0.0944 -1.066831,0.16769 -0.312244,0.0887 -0.564737,0.22647 -0.75748,0.41343 -0.192743,0.18696 -0.289115,0.44427 -0.289115,0.77194 0,0.37006 0.111792,0.64858 0.335373,0.83554 0.223582,0.18696 0.564737,0.28044 1.023465,0.28044 0.381631,0 0.730495,-0.0742 1.046594,-0.22262 0.316099,-0.14841 0.609067,-0.3267 0.878907,-0.53486 z m 8.851526,-1.68843 c 0,0.53968 -0.07613,1.0254 -0.2284,1.45714 -0.152266,0.43174 -0.357538,0.7941 -0.615814,1.08707 -0.273694,0.30453 -0.574374,0.53294 -0.902037,0.6852 -0.327662,0.15227 -0.688092,0.2284 -1.081287,0.2284 -0.366212,0 -0.686165,-0.0434 -0.95986,-0.1301 -0.273694,-0.0867 -0.543534,-0.20334 -0.80952,-0.34983 l -0.06939,0.30068 -1.017683,0 0,-8.99724 1.08707,0 0,3.21495 c 0.304534,-0.25056 0.628342,-0.45583 0.971424,-0.61581 0.343083,-0.15998 0.728569,-0.23996 1.156458,-0.23996 0.763262,0 1.365583,0.29296 1.806964,0.8789 0.441382,0.58594 0.662072,1.41281 0.662072,2.4806 z m -1.121763,0.0289 c 0,-0.77097 -0.127211,-1.35594 -0.381631,-1.75492 -0.254421,-0.39898 -0.664964,-0.59847 -1.231627,-0.59847 -0.316099,0 -0.636052,0.0684 -0.95986,0.20528 -0.323809,0.13684 -0.624487,0.3132 -0.902037,0.52907 l 0,3.70067 c 0.308388,0.13877 0.57341,0.23514 0.795065,0.28911 0.221654,0.054 0.473184,0.081 0.754588,0.081 0.601358,0 1.072615,-0.19756 1.41377,-0.59268 0.341155,-0.39512 0.511732,-1.01479 0.511732,-1.85901 z m 8.220871,0.133 -4.758823,0 c 0,0.39705 0.05975,0.74302 0.179251,1.03792 0.119501,0.29489 0.283332,0.53679 0.491494,0.72567 0.200454,0.18504 0.438491,0.32381 0.714113,0.41633 0.275622,0.0925 0.579193,0.13877 0.910711,0.13877 0.439453,0 0.881798,-0.0877 1.327034,-0.26309 0.445237,-0.1754 0.762298,-0.3479 0.951187,-0.51752 l 0.05782,0 0,1.18537 c -0.366212,0.1542 -0.740133,0.28334 -1.121764,0.38742 -0.381631,0.10408 -0.782536,0.15612 -1.202716,0.15612 -1.071651,0 -1.908155,-0.29008 -2.509513,-0.87023 -0.601358,-0.58016 -0.902036,-1.40414 -0.902036,-2.47193 0,-1.05623 0.28815,-1.89467 0.864452,-2.5153 0.576301,-0.62063 1.334745,-0.93095 2.27533,-0.93095 0.871197,0 1.542907,0.25442 2.015127,0.76327 0.47222,0.50884 0.70833,1.23162 0.70833,2.16835 l 0,0.5898 z m -1.058159,-0.83265 c -0.0039,-0.57052 -0.147448,-1.0119 -0.43078,-1.32415 -0.283332,-0.31224 -0.714112,-0.46836 -1.292341,-0.46836 -0.582084,0 -1.045631,0.17154 -1.390641,0.51462 -0.34501,0.34308 -0.540643,0.76905 -0.586902,1.27789 l 3.700664,0 z m 7.93407,3.21495 c 0,1.09478 -0.248639,1.89852 -0.745916,2.41121 -0.497276,0.5127 -1.262466,0.76905 -2.295568,0.76905 -0.343082,0 -0.677491,-0.0241 -1.003226,-0.0723 -0.325736,-0.0482 -0.646653,-0.11661 -0.962751,-0.20527 l 0,-1.1102 0.05782,0 c 0.177324,0.0694 0.458728,0.15515 0.844214,0.25731 0.385485,0.10215 0.770972,0.15323 1.156458,0.15323 0.370066,0 0.676527,-0.0443 0.919383,-0.13299 0.242856,-0.0887 0.431745,-0.21202 0.566664,-0.37007 0.134921,-0.15034 0.231292,-0.33152 0.289115,-0.54353 0.05782,-0.21202 0.08674,-0.4491 0.08674,-0.71123 l 0,-0.58979 c -0.327664,0.26213 -0.640871,0.45777 -0.939623,0.5869 -0.298751,0.12914 -0.679419,0.19371 -1.142001,0.19371 -0.770972,0 -1.382931,-0.27851 -1.835877,-0.83554 -0.452947,-0.55702 -0.67942,-1.34245 -0.67942,-2.35628 0,-0.5551 0.07806,-1.03406 0.234182,-1.4369 0.156122,-0.40283 0.369103,-0.75073 0.638943,-1.0437 0.250565,-0.27369 0.5551,-0.48668 0.913601,-0.63894 0.358502,-0.15227 0.715077,-0.2284 1.069724,-0.2284 0.37392,0 0.687128,0.0376 0.939621,0.11275 0.252493,0.0752 0.519442,0.18985 0.800848,0.34405 l 0.06939,-0.27755 1.017683,0 0,5.72446 z m -1.08707,-1.04081 0,-3.52142 c -0.289115,-0.13106 -0.557991,-0.22454 -0.806629,-0.28044 -0.248638,-0.0559 -0.496313,-0.0838 -0.743024,-0.0838 -0.597503,0 -1.067796,0.20046 -1.410878,0.60136 -0.343083,0.40091 -0.514624,0.98299 -0.514624,1.74625 0,0.72472 0.12721,1.27403 0.381631,1.64795 0.25442,0.37393 0.676527,0.56089 1.266321,0.56089 0.316098,0 0.63316,-0.0607 0.951186,-0.18215 0.318026,-0.12142 0.610031,-0.28429 0.876017,-0.4886 z m 8.631413,-1.34149 -4.758822,0 c 0,0.39705 0.05975,0.74302 0.179251,1.03792 0.1195,0.29489 0.283331,0.53679 0.491494,0.72567 0.200452,0.18504 0.43849,0.32381 0.714112,0.41633 0.275622,0.0925 0.579193,0.13877 0.910711,0.13877 0.439453,0 0.881798,-0.0877 1.327035,-0.26309 0.445236,-0.1754 0.762298,-0.3479 0.951186,-0.51751 l 0.05782,0 0,1.18536 c -0.366211,0.1542 -0.740133,0.28334 -1.121763,0.38742 -0.381632,0.10408 -0.782537,0.15612 -1.202717,0.15612 -1.07165,0 -1.908154,-0.29008 -2.509512,-0.87023 -0.601358,-0.58016 -0.902037,-1.40414 -0.902037,-2.47193 0,-1.05623 0.28815,-1.89467 0.864452,-2.5153 0.576301,-0.62063 1.334745,-0.93095 2.27533,-0.93095 0.871198,0 1.542907,0.25442 2.015127,0.76327 0.472221,0.50884 0.708331,1.23162 0.708331,2.16835 l 0,0.5898 z m -1.058158,-0.83265 c -0.0039,-0.57052 -0.147449,-1.0119 -0.430781,-1.32415 -0.283332,-0.31224 -0.714112,-0.46836 -1.292341,-0.46836 -0.582084,0 -1.04563,0.17154 -1.39064,0.51462 -0.34501,0.34308 -0.540644,0.76905 -0.586902,1.27789 l 3.700664,0 z m 6.725571,-1.32415 -0.05782,0 c -0.161904,-0.0386 -0.31899,-0.0665 -0.471257,-0.0838 -0.152266,-0.0173 -0.332482,-0.026 -0.540644,-0.026 -0.335372,0 -0.65918,0.0742 -0.971424,0.22262 -0.312243,0.14841 -0.612922,0.34019 -0.902037,0.57534 l 0,4.58535 -1.08707,0 0,-6.45881 1.08707,0 0,0.95408 c 0.431745,-0.34694 0.812411,-0.59269 1.142002,-0.73725 0.32959,-0.14455 0.665927,-0.21683 1.009009,-0.21683 0.188888,0 0.325736,0.005 0.410542,0.0145 0.08481,0.01 0.212018,0.0279 0.381632,0.0549 l 0,1.11598 z m 6.034008,5.27345 -1.081289,0 0,-0.68809 c -0.09637,0.0655 -0.226468,0.15708 -0.3903,0.27466 -0.163832,0.11757 -0.322848,0.21105 -0.477041,0.28044 -0.181176,0.0887 -0.389337,0.16287 -0.624486,0.22262 -0.235147,0.0598 -0.510769,0.0896 -0.826867,0.0896 -0.582084,0 -1.075506,-0.19275 -1.480266,-0.57823 -0.40476,-0.38549 -0.60714,-0.87698 -0.60714,-1.47449 0,-0.48956 0.105045,-0.88565 0.315135,-1.18826 0.210089,-0.3026 0.509805,-0.54064 0.899146,-0.71411 0.393195,-0.17347 0.865415,-0.29104 1.41666,-0.35272 0.551244,-0.0617 1.142964,-0.10793 1.775159,-0.13877 l 0,-0.16769 c 0,-0.24671 -0.04334,-0.45102 -0.130097,-0.61292 -0.08673,-0.16191 -0.211058,-0.28912 -0.372956,-0.38163 -0.1542,-0.0887 -0.33923,-0.14842 -0.555104,-0.17925 -0.215874,-0.0308 -0.44138,-0.0463 -0.676526,-0.0463 -0.285259,0 -0.603285,0.0376 -0.954077,0.11275 -0.350793,0.0752 -0.71315,0.18407 -1.087071,0.3267 l -0.05782,0 0,-1.10442 c 0.212017,-0.0578 0.518479,-0.12143 0.919384,-0.19081 0.400905,-0.0694 0.796028,-0.10408 1.185369,-0.10408 0.454868,0 0.850956,0.0376 1.188259,0.11275 0.337303,0.0752 0.629306,0.20334 0.876017,0.38452 0.242859,0.17733 0.427888,0.40669 0.555096,0.68809 0.127208,0.28141 0.190816,0.63027 0.190816,1.0466 l 0,4.38297 z m -1.081289,-1.59013 0,-1.79829 c -0.331516,0.0193 -0.721817,0.0482 -1.170909,0.0867 -0.449093,0.0386 -0.804703,0.0944 -1.066833,0.16769 -0.312244,0.0887 -0.564737,0.22647 -0.75748,0.41343 -0.192743,0.18696 -0.289114,0.44427 -0.289114,0.77194 0,0.37006 0.111791,0.64858 0.335373,0.83554 0.223581,0.18696 0.564736,0.28044 1.023465,0.28044 0.38163,0 0.730494,-0.0742 1.046592,-0.22262 0.316098,-0.14841 0.609072,-0.3267 0.878906,-0.53486 z m 0.346943,-5.94997 -1.150676,0 0,-1.12755 1.150676,0 0,1.12755 z m -2.388088,0 -1.150674,0 0,-1.12755 1.150674,0 0,1.12755 z m 8.562414,7.48228 c -0.204308,0.054 -0.426924,0.0983 -0.667856,0.13299 -0.240932,0.0347 -0.455835,0.052 -0.644725,0.052 -0.65918,0 -1.160315,-0.17732 -1.503397,-0.53197 -0.343082,-0.35465 -0.51462,-0.92324 -0.51462,-1.70578 l 0,-3.43467 -0.734353,0 0,-0.9136 0.734353,0 0,-1.85612 1.087068,0 0,1.85612 2.24353,0 0,0.9136 -2.24353,0 0,2.94318 c 0,0.33923 0.0079,0.60425 0.02313,0.79507 0.01539,0.19081 0.0694,0.3691 0.161897,0.53486 0.08481,0.15419 0.201419,0.26695 0.349833,0.33826 0.148413,0.0713 0.374882,0.10697 0.679422,0.10697 0.177324,0 0.362353,-0.026 0.555095,-0.0781 0.192743,-0.052 0.331517,-0.0954 0.416322,-0.1301 l 0.05787,0 0,0.97721 z"
       style="fill:#ffffff;fill-opacity:1;fill-rule:nonzero;stroke:none"
       id="path4380"
       inkscape:connector-curvature="0" />
    <path
       d="m 201.0525,296.42227 26.55005,0"
       style="fill:none;stroke:#ffffff;stroke-width:0.78947502;stroke-linecap:butt;stroke-linejoin:miter;stroke-miterlimit:10;stroke-dasharray:none;stroke-opacity:1"
       id="path4390"
       inkscape:connector-curvature="0" />
    <path
       d="m 231.74729,296.42227 -5.52632,2.76316 1.38158,-2.76316 -1.38158,-2.76316 5.52632,2.76316 z"
       style="fill:none;stroke:#ffffff;stroke-width:0.78947502;stroke-linecap:butt;stroke-linejoin:miter;stroke-miterlimit:10;stroke-dasharray:none;stroke-opacity:1"
       id="path4398"
       inkscape:connector-curvature="0" />
    <path
       d="m 113.02604,272.34329 80.52645,0 c 3.92412,0 7.10527,3.18114 7.10527,7.10528 l 0,33.15795 c 0,3.92413 -3.18115,7.10527 -7.10527,7.10527 l -80.52645,0 c -3.92414,0 -7.10527,-3.18114 -7.10527,-7.10527 l 0,-33.15795 c 0,-3.92414 3.18113,-7.10528 7.10527,-7.10528 z"
       style="fill:none;stroke:#ffffff;stroke-width:1.57895005;stroke-linecap:butt;stroke-linejoin:miter;stroke-miterlimit:10;stroke-dasharray:none;stroke-opacity:1"
       id="path4408"
       inkscape:connector-curvature="0" />
    <path
       d="m 135.3975,300.08769 -1.06856,0 0,-6.9241 -2.23428,4.71141 -0.63682,0 -2.21809,-4.71141 0,6.9241 -0.99841,0 0,-8.03584 1.45714,0 2.14253,4.47395 2.07237,-4.47395 1.48412,0 0,8.03584 z m 4.9905,0 -3.17332,0 0,-0.82032 1.05238,0 0,-6.39521 -1.05238,0 0,-0.82031 3.17332,0 0,0.82031 -1.05237,0 0,6.39521 1.05237,0 0,0.82032 z m 8.60636,-4.00983 c 0,0.73037 -0.15921,1.39238 -0.47762,1.98603 -0.31841,0.59364 -0.74206,1.05417 -1.27094,1.38158 -0.36699,0.22666 -0.77624,0.39037 -1.22778,0.49111 -0.45153,0.10074 -1.04607,0.15111 -1.78364,0.15111 l -2.0292,0 0,-8.03584 2.00761,0 c 0.78434,0 1.40767,0.0567 1.86999,0.17 0.46233,0.11333 0.8536,0.26894 1.17381,0.46682 0.54688,0.3418 0.97323,0.79693 1.27905,1.36539 0.30581,0.56847 0.45872,1.24307 0.45872,2.0238 z m -1.11714,-0.0162 c 0,-0.62962 -0.10974,-1.16031 -0.3292,-1.59205 -0.21948,-0.43175 -0.54688,-0.77175 -0.98222,-1.02 -0.31661,-0.17989 -0.65301,-0.30492 -1.0092,-0.37508 -0.35619,-0.0702 -0.78254,-0.10524 -1.27904,-0.10524 l -1.00381,0 0,6.20093 1.00381,0 c 0.51449,0 0.96333,-0.0378 1.3465,-0.11333 0.38317,-0.0756 0.73486,-0.21588 1.05507,-0.42095 0.39936,-0.25545 0.69889,-0.59185 0.89857,-1.00921 0.19968,-0.41735 0.29952,-0.93904 0.29952,-1.56507 z m 5.67281,4.02602 -3.17331,0 0,-0.82032 1.05237,0 0,-6.39521 -1.05237,0 0,-0.82031 3.17331,0 0,0.82031 -1.05237,0 0,6.39521 1.05237,0 0,0.82032 z m 4.93114,-3.02761 -3.3676,0 0,-0.97682 3.3676,0 0,0.97682 z m 7.88473,-4.08538 c 0.3274,0.35979 0.57835,0.80053 0.75285,1.32222 0.1745,0.52169 0.26174,1.11354 0.26174,1.77555 0,0.66201 -0.089,1.25475 -0.26714,1.77824 -0.17809,0.52349 -0.42724,0.95974 -0.74745,1.30873 -0.33101,0.36338 -0.72228,0.63682 -1.17381,0.82031 -0.45153,0.18349 -0.96693,0.27524 -1.54619,0.27524 -0.56486,0 -1.07845,-0.0935 -1.54078,-0.28063 -0.46233,-0.18709 -0.85539,-0.45873 -1.1792,-0.81492 -0.32381,-0.35619 -0.57296,-0.79333 -0.74746,-1.31142 -0.17449,-0.5181 -0.26174,-1.10995 -0.26174,-1.77555 0,-0.65481 0.0863,-1.24217 0.25905,-1.76206 0.17269,-0.51989 0.42454,-0.96513 0.75555,-1.33571 0.31661,-0.35259 0.70967,-0.62243 1.1792,-0.80952 0.46952,-0.18709 0.98131,-0.28063 1.53538,-0.28063 0.57566,0 1.09286,0.0944 1.55159,0.28333 0.45872,0.18889 0.8482,0.45783 1.16841,0.80682 z m -0.0971,3.09777 c 0,-1.04338 -0.23386,-1.84841 -0.70158,-2.41507 -0.46772,-0.56667 -1.10635,-0.85 -1.91587,-0.85 -0.81671,0 -1.45803,0.28333 -1.92396,0.85 -0.46592,0.56666 -0.69889,1.37169 -0.69889,2.41507 0,1.05417 0.23747,1.861 0.71239,2.42046 0.47491,0.55947 1.11174,0.83921 1.91046,0.83921 0.79873,0 1.43465,-0.27974 1.90777,-0.83921 0.47312,-0.55946 0.70968,-1.36629 0.70968,-2.42046 z m 7.71974,4.01522 -1.01459,0 0,-0.6692 c -0.34181,0.26984 -0.66921,0.47671 -0.98223,0.62063 -0.31301,0.14391 -0.6584,0.21587 -1.03618,0.21587 -0.63323,0 -1.12613,-0.19339 -1.47872,-0.58016 -0.3526,-0.38677 -0.52889,-0.95433 -0.52889,-1.70269 l 0,-3.91268 1.0146,0 0,3.43237 c 0,0.30582 0.0144,0.56756 0.0432,0.78523 0.0288,0.21767 0.09,0.40386 0.18349,0.55857 0.0971,0.15831 0.22307,0.27344 0.37778,0.3454 0.15471,0.072 0.37957,0.10793 0.6746,0.10793 0.26264,0 0.54957,-0.0684 0.86079,-0.20508 0.31122,-0.13672 0.60174,-0.31121 0.87159,-0.52349 l 0,-4.50093 1.01459,0 0,6.02823 z m 5.12696,-0.054 c -0.19069,0.0504 -0.39846,0.0918 -0.62333,0.12412 -0.22486,0.0324 -0.42545,0.0486 -0.60174,0.0486 -0.61523,0 -1.08296,-0.1655 -1.40317,-0.4965 -0.32021,-0.33101 -0.48032,-0.86169 -0.48032,-1.59206 l 0,-3.2057 -0.68539,0 0,-0.85269 0.68539,0 0,-1.73238 1.01461,0 0,1.73238 2.09395,0 0,0.85269 -2.09395,0 0,2.74697 c 0,0.31662 0.007,0.56397 0.0215,0.74206 0.0144,0.1781 0.0647,0.3445 0.15111,0.49921 0.0792,0.14391 0.18799,0.24915 0.32651,0.31571 0.13852,0.0666 0.34989,0.0998 0.63412,0.0998 0.1655,0 0.3382,-0.0243 0.51809,-0.0729 0.1799,-0.0486 0.30942,-0.089 0.38857,-0.12143 l 0.054,0 0,0.91206 z"
       style="fill:#ffffff;fill-opacity:1;fill-rule:nonzero;stroke:none"
       id="path4416"
       inkscape:connector-curvature="0" />
    <path
       d="m 327.3685,296.42227 26.55005,0"
       style="fill:none;stroke:#ffffff;stroke-width:0.78947502;stroke-linecap:butt;stroke-linejoin:miter;stroke-miterlimit:10;stroke-dasharray:none;stroke-opacity:1"
       id="path4436"
       inkscape:connector-curvature="0" />
    <path
       d="m 358.06329,296.42227 -5.52632,2.76316 1.38158,-2.76316 -1.38158,-2.76316 5.52632,2.76316 z"
       style="fill:none;stroke:#ffffff;stroke-width:0.78947502;stroke-linecap:butt;stroke-linejoin:miter;stroke-miterlimit:10;stroke-dasharray:none;stroke-opacity:1"
       id="path4444"
       inkscape:connector-curvature="0" />
    <path
       d="m 239.34204,272.34329 80.52645,0 c 3.92412,0 7.10527,3.18114 7.10527,7.10528 l 0,33.15795 c 0,3.92413 -3.18115,7.10527 -7.10527,7.10527 l -80.52645,0 c -3.92412,0 -7.10527,-3.18114 -7.10527,-7.10527 l 0,-33.15795 c 0,-3.92414 3.18115,-7.10528 7.10527,-7.10528 z"
       style="fill:none;stroke:#ffffff;stroke-width:1.57895005;stroke-linecap:butt;stroke-linejoin:miter;stroke-miterlimit:10;stroke-dasharray:none;stroke-opacity:1"
       id="path4454"
       inkscape:connector-curvature="0" />
    <path
       d="m 256.26178,299.97492 -1.06857,0 0,-6.9241 -2.23427,4.71141 -0.63682,0 -2.21809,-4.71141 0,6.9241 -0.9984,0 0,-8.03584 1.45713,0 2.14253,4.47395 2.07238,-4.47395 1.48411,0 0,8.03584 z m 4.9905,0 -3.17331,0 0,-0.82032 1.05237,0 0,-6.39521 -1.05237,0 0,-0.82031 3.17331,0 0,0.82031 -1.05237,0 0,6.39521 1.05237,0 0,0.82032 z m 8.60636,-4.00983 c 0,0.73037 -0.1592,1.39238 -0.47761,1.98603 -0.31841,0.59364 -0.74207,1.05417 -1.27096,1.38158 -0.36697,0.22666 -0.77623,0.39037 -1.22776,0.49111 -0.45154,0.10074 -1.04609,0.15111 -1.78365,0.15111 l -2.02919,0 0,-8.03584 2.00761,0 c 0.78433,0 1.40766,0.0567 1.86999,0.17 0.46232,0.11333 0.85359,0.26894 1.1738,0.46682 0.54687,0.3418 0.97322,0.79693 1.27904,1.36539 0.30582,0.56847 0.45873,1.24307 0.45873,2.0238 z m -1.11714,-0.0162 c 0,-0.62962 -0.10973,-1.16031 -0.3292,-1.59205 -0.21947,-0.43175 -0.54688,-0.77175 -0.98222,-1.02 -0.31661,-0.17989 -0.65301,-0.30492 -1.00921,-0.37508 -0.35618,-0.0702 -0.78253,-0.10524 -1.27903,-0.10524 l -1.00381,0 0,6.20093 1.00381,0 c 0.51449,0 0.96332,-0.0378 1.3465,-0.11333 0.38317,-0.0755 0.73486,-0.21588 1.05507,-0.42095 0.39937,-0.25545 0.69889,-0.59185 0.89857,-1.00921 0.19968,-0.41735 0.29952,-0.93904 0.29952,-1.56507 z m 5.67281,4.02602 -3.17332,0 0,-0.82032 1.05238,0 0,-6.39521 -1.05238,0 0,-0.82031 3.17332,0 0,0.82031 -1.05237,0 0,6.39521 1.05237,0 0,0.82032 z m 4.93114,-3.02761 -3.36761,0 0,-0.97682 3.36761,0 0,0.97682 z m 8.35425,3.02761 -1.38698,0 -3.17871,-3.57808 -0.79873,0.85269 0,2.72539 -1.06857,0 0,-8.03584 1.06857,0 0,4.19332 3.90188,-4.19332 1.29523,0 -3.58887,3.77776 3.75618,4.25808 z m 5.79154,0 -1.0092,0 0,-0.64222 c -0.09,0.0612 -0.21138,0.14661 -0.36429,0.25635 -0.15291,0.10973 -0.30132,0.19698 -0.44523,0.26174 -0.16911,0.0827 -0.36339,0.15201 -0.58286,0.20778 -0.21947,0.0558 -0.47672,0.0837 -0.77175,0.0837 -0.54328,0 -1.0038,-0.1799 -1.38158,-0.53968 -0.37777,-0.35979 -0.56666,-0.81852 -0.56666,-1.37619 0,-0.45693 0.098,-0.82661 0.29413,-1.10904 0.19608,-0.28243 0.47581,-0.5046 0.8392,-0.6665 0.36698,-0.16191 0.80772,-0.27164 1.32221,-0.32921 0.5145,-0.0576 1.06677,-0.10074 1.65683,-0.12952 l 0,-0.15651 c 0,-0.23026 -0.0405,-0.42095 -0.12143,-0.57206 -0.081,-0.15111 -0.19698,-0.26984 -0.3481,-0.35619 -0.14391,-0.0828 -0.31661,-0.13852 -0.51809,-0.1673 -0.20148,-0.0288 -0.41196,-0.0432 -0.63142,-0.0432 -0.26625,0 -0.56307,0.0351 -0.89048,0.10524 -0.32741,0.0702 -0.6656,0.1718 -1.0146,0.30492 l -0.054,0 0,-1.03079 c 0.19788,-0.054 0.48392,-0.11333 0.85809,-0.1781 0.37418,-0.0648 0.74296,-0.0971 1.10635,-0.0971 0.42455,0 0.79423,0.0351 1.10904,0.10524 0.31482,0.0702 0.58735,0.18979 0.81762,0.35889 0.22666,0.1655 0.39936,0.37957 0.51809,0.64222 0.11873,0.26264 0.1781,0.58825 0.1781,0.97682 l 0,4.09077 z m -1.0092,-1.48412 0,-1.67841 c -0.30942,0.018 -0.67371,0.045 -1.09286,0.081 -0.41915,0.036 -0.75106,0.0881 -0.99571,0.15651 -0.29142,0.0828 -0.52709,0.21137 -0.70698,0.38587 -0.17989,0.1745 -0.26984,0.41466 -0.26984,0.72047 0,0.3454 0.10434,0.60535 0.31302,0.77984 0.20867,0.1745 0.52708,0.26175 0.95523,0.26175 0.35619,0 0.6818,-0.0693 0.97682,-0.20778 0.29502,-0.13852 0.56847,-0.30492 0.82032,-0.4992 z m 8.26635,-1.57587 c 0,0.5037 -0.0711,0.95703 -0.21317,1.36 -0.14212,0.40296 -0.3337,0.74116 -0.57476,1.01459 -0.25545,0.28424 -0.53608,0.49741 -0.8419,0.63953 -0.30582,0.14211 -0.64222,0.21317 -1.0092,0.21317 -0.3418,0 -0.64042,-0.0405 -0.89587,-0.12143 -0.25545,-0.0809 -0.5073,-0.18979 -0.75555,-0.32651 l -0.0648,0.28064 -0.94984,0 0,-8.39743 1.01461,0 0,3.00063 c 0.28422,-0.23386 0.58645,-0.42545 0.90666,-0.57476 0.32021,-0.14931 0.67999,-0.22397 1.07935,-0.22397 0.71239,0 1.27455,0.27344 1.6865,0.82031 0.41196,0.54688 0.61794,1.31862 0.61794,2.31523 z m -1.04698,0.027 c 0,-0.71957 -0.11872,-1.26555 -0.35618,-1.63793 -0.23747,-0.37238 -0.62064,-0.55857 -1.14953,-0.55857 -0.29502,0 -0.59364,0.0639 -0.89587,0.19159 -0.30222,0.12772 -0.58285,0.29233 -0.84189,0.49381 l 0,3.45395 c 0.28782,0.12952 0.53518,0.21947 0.74205,0.26984 0.20689,0.0504 0.44164,0.0755 0.70429,0.0755 0.56127,0 1.00111,-0.18439 1.31952,-0.55317 0.31841,-0.36878 0.47761,-0.94714 0.47761,-1.73507 z m 7.67117,0.12413 -4.44157,0 c 0,0.37058 0.0557,0.69349 0.1673,0.96872 0.11154,0.27524 0.26444,0.50101 0.45873,0.6773 0.18709,0.1727 0.40926,0.30222 0.6665,0.38857 0.25725,0.0863 0.54059,0.12953 0.85001,0.12953 0.41015,0 0.82301,-0.0819 1.23856,-0.24556 0.41555,-0.1637 0.71148,-0.32471 0.88777,-0.48301 l 0.054,0 0,1.10634 c -0.3418,0.14392 -0.69079,0.26445 -1.04698,0.36159 -0.35619,0.0971 -0.73037,0.14571 -1.12253,0.14571 -1.00021,0 -1.78094,-0.27074 -2.34221,-0.81222 -0.56127,-0.54148 -0.84191,-1.31052 -0.84191,-2.30713 0,-0.98582 0.26894,-1.76835 0.80683,-2.34761 0.53788,-0.57926 1.24576,-0.86888 2.12364,-0.86888 0.81312,0 1.44004,0.23746 1.88078,0.71237 0.44074,0.47492 0.66111,1.14952 0.66111,2.0238 l 0,0.55048 z m -0.98761,-0.77714 c -0.004,-0.53249 -0.13762,-0.94444 -0.40207,-1.23587 -0.26444,-0.29143 -0.6665,-0.43714 -1.20618,-0.43714 -0.54328,0 -0.97593,0.16011 -1.29793,0.48032 -0.32201,0.32021 -0.5046,0.71777 -0.54778,1.19269 l 3.45396,0 z m 3.54184,3.68601 -1.0146,0 0,-8.39742 1.0146,0 0,8.39742 z"
       style="fill:#ffffff;fill-opacity:1;fill-rule:nonzero;stroke:none"
       id="path4462"
       inkscape:connector-curvature="0" />
    <path
       d="m 453.6845,296.42227 c 52.63169,0 78.9475,6.21844 78.9475,18.6553"
       style="fill:none;stroke:#ffffff;stroke-width:0.78947502;stroke-linecap:butt;stroke-linejoin:miter;stroke-miterlimit:10;stroke-dasharray:none;stroke-opacity:1"
       id="path4472"
       inkscape:connector-curvature="0" />
    <path
       d="m 532.632,319.22231 -2.76316,-5.52632 2.76316,1.38158 2.76316,-1.38158 -2.76316,5.52632 z"
       style="fill:none;stroke:#ffffff;stroke-width:0.78947502;stroke-linecap:butt;stroke-linejoin:miter;stroke-miterlimit:10;stroke-dasharray:none;stroke-opacity:1"
       id="path4480"
       inkscape:connector-curvature="0" />
    <path
       d="m 365.65804,272.34329 80.52645,0 c 3.92415,0 7.10528,3.18114 7.10528,7.10528 l 0,33.15795 c 0,3.92413 -3.18113,7.10527 -7.10528,7.10527 l -80.52645,0 c -3.92412,0 -7.10527,-3.18114 -7.10527,-7.10527 l 0,-33.15795 c 0,-3.92414 3.18115,-7.10528 7.10527,-7.10528 z"
       style="fill:none;stroke:#ffffff;stroke-width:1.57895005;stroke-linecap:butt;stroke-linejoin:miter;stroke-miterlimit:10;stroke-dasharray:none;stroke-opacity:1"
       id="path4490"
       inkscape:connector-curvature="0" />
    <path
       d="m 391.86645,293.65912 -1.06857,0 0,-6.9241 -2.23427,4.71141 -0.63682,0 -2.21809,-4.71141 0,6.9241 -0.99841,0 0,-8.03584 1.45714,0 2.14253,4.47395 2.07237,-4.47395 1.48412,0 0,8.03584 z m 4.9905,0 -3.17332,0 0,-0.82032 1.05238,0 0,-6.39521 -1.05238,0 0,-0.82031 3.17332,0 0,0.82031 -1.05237,0 0,6.39521 1.05237,0 0,0.82032 z m 8.60636,-4.00983 c 0,0.73037 -0.15921,1.39238 -0.47762,1.98603 -0.31841,0.59364 -0.74206,1.05417 -1.27094,1.38158 -0.36699,0.22666 -0.77625,0.39037 -1.22778,0.49111 -0.45153,0.10074 -1.04608,0.15111 -1.78365,0.15111 l -2.02919,0 0,-8.03584 2.00761,0 c 0.78434,0 1.40767,0.0567 1.86999,0.17 0.46232,0.11333 0.8536,0.26894 1.17381,0.46682 0.54687,0.3418 0.97322,0.79693 1.27904,1.36539 0.30582,0.56847 0.45873,1.24307 0.45873,2.0238 z m -1.11714,-0.0162 c 0,-0.62962 -0.10974,-1.16031 -0.32921,-1.59205 -0.21947,-0.43175 -0.54687,-0.77175 -0.98221,-1.02 -0.31661,-0.17989 -0.65302,-0.30492 -1.0092,-0.37508 -0.35619,-0.0702 -0.78254,-0.10524 -1.27905,-0.10524 l -1.0038,0 0,6.20093 1.0038,0 c 0.51449,0 0.96333,-0.0378 1.34651,-0.11333 0.38317,-0.0756 0.73486,-0.21588 1.05507,-0.42095 0.39936,-0.25545 0.69889,-0.59185 0.89857,-1.00921 0.19968,-0.41735 0.29952,-0.93904 0.29952,-1.56507 z m 5.67281,4.02602 -3.17332,0 0,-0.82032 1.05238,0 0,-6.39521 -1.05238,0 0,-0.82031 3.17332,0 0,0.82031 -1.05238,0 0,6.39521 1.05238,0 0,0.82032 z m 4.93113,-3.02761 -3.3676,0 0,-0.97682 3.3676,0 0,0.97682 z m 4.7276,3.02761 -3.17332,0 0,-0.82032 1.05238,0 0,-6.39521 -1.05238,0 0,-0.82031 3.17332,0 0,0.82031 -1.05237,0 0,6.39521 1.05237,0 0,0.82032 z m 6.77684,0 -1.0146,0 0,-3.43237 c 0,-0.27703 -0.0162,-0.53698 -0.0485,-0.77984 -0.0324,-0.24285 -0.0917,-0.43264 -0.1781,-0.56936 -0.0899,-0.15111 -0.21946,-0.26354 -0.38856,-0.3373 -0.16911,-0.0738 -0.38857,-0.11063 -0.65842,-0.11063 -0.27703,0 -0.56666,0.0684 -0.86888,0.20508 -0.30222,0.13671 -0.59185,0.31121 -0.86888,0.52349 l 0,4.50093 -1.01461,0 0,-6.02823 1.01461,0 0,0.6692 c 0.31661,-0.26264 0.64401,-0.46772 0.98221,-0.61523 0.33821,-0.14751 0.68539,-0.22127 1.04159,-0.22127 0.65121,0 1.14771,0.19608 1.48951,0.58825 0.3418,0.39217 0.5127,0.95703 0.5127,1.6946 l 0,3.91268 z"
       style="fill:#ffffff;fill-opacity:1;fill-rule:nonzero;stroke:none"
       id="path4498"
       inkscape:connector-curvature="0" />
    <path
       d="m 385.70485,307.08019 -1.13873,0 -0.78793,-2.23967 -3.47555,0 -0.78792,2.23967 -1.08477,0 2.92507,-8.03584 1.42476,0 2.92507,8.03584 z m -2.25586,-3.15713 -1.40857,-3.94506 -1.41397,3.94506 2.82254,0 z m 8.42902,3.15713 -1.01459,0 0,-3.43236 c 0,-0.27704 -0.0162,-0.53699 -0.0486,-0.77984 -0.0324,-0.24286 -0.0917,-0.43265 -0.17809,-0.56937 -0.0899,-0.15111 -0.21948,-0.26354 -0.38858,-0.3373 -0.16909,-0.0738 -0.38857,-0.11063 -0.6584,-0.11063 -0.27704,0 -0.56667,0.0684 -0.86889,0.20508 -0.30222,0.13672 -0.59185,0.31121 -0.86889,0.52349 l 0,4.50093 -1.01459,0 0,-6.02823 1.01459,0 0,0.66921 c 0.31662,-0.26265 0.64402,-0.46773 0.98222,-0.61524 0.3382,-0.14751 0.6854,-0.22127 1.04159,-0.22127 0.65121,0 1.14772,0.19609 1.48951,0.58825 0.3418,0.39217 0.5127,0.95704 0.5127,1.6946 l 0,3.91268 z m 6.26029,-1.73777 c 0,0.55048 -0.22756,1.00201 -0.68269,1.3546 -0.45513,0.35259 -1.07666,0.52888 -1.86459,0.52888 -0.44614,0 -0.8554,-0.0531 -1.22778,-0.1592 -0.37238,-0.10614 -0.68449,-0.22217 -0.93634,-0.34809 l 0,-1.13873 0.054,0 c 0.32021,0.24106 0.6764,0.43264 1.06856,0.57476 0.39217,0.14212 0.76815,0.21317 1.12793,0.21317 0.44614,0 0.79513,-0.072 1.04698,-0.21587 0.25186,-0.14391 0.37778,-0.37058 0.37778,-0.68 0,-0.23745 -0.0684,-0.41735 -0.20507,-0.53968 -0.13673,-0.12232 -0.39937,-0.22666 -0.78794,-0.31301 -0.14391,-0.0324 -0.3319,-0.0702 -0.56397,-0.11333 -0.23206,-0.0432 -0.44343,-0.0899 -0.63412,-0.14032 -0.52889,-0.14032 -0.90397,-0.34629 -1.12523,-0.61793 -0.22128,-0.27164 -0.3319,-0.60535 -0.3319,-1.00111 0,-0.24825 0.0512,-0.48211 0.1538,-0.70158 0.10254,-0.21947 0.25815,-0.41556 0.46683,-0.58826 0.20148,-0.1691 0.45783,-0.30312 0.76904,-0.40206 0.31122,-0.0989 0.65931,-0.14841 1.04428,-0.14841 0.35978,0 0.72407,0.0441 1.09285,0.13222 0.36878,0.0881 0.6755,0.19519 0.92016,0.32111 l 0,1.08476 -0.054,0 c -0.25904,-0.19069 -0.57386,-0.35169 -0.94444,-0.48302 -0.37058,-0.13132 -0.73397,-0.19698 -1.09016,-0.19698 -0.37058,0 -0.68359,0.0711 -0.93904,0.21318 -0.25545,0.14211 -0.38317,0.35349 -0.38317,0.63412 0,0.24825 0.0774,0.43534 0.23206,0.56127 0.15111,0.12592 0.39576,0.22846 0.73396,0.30761 0.18709,0.0432 0.39667,0.0863 0.62873,0.12953 0.23206,0.0432 0.42545,0.0827 0.58016,0.11873 0.47132,0.10793 0.8347,0.29322 1.09015,0.55587 0.25545,0.26624 0.38317,0.61883 0.38317,1.05777 z m 5.89948,1.36 c -0.3382,0.1619 -0.65931,0.28783 -0.96333,0.37777 -0.30402,0.0899 -0.62693,0.13492 -0.96873,0.13492 -0.43534,0 -0.8347,-0.0639 -1.19809,-0.19158 -0.36338,-0.12773 -0.6746,-0.32111 -0.93364,-0.58016 -0.26265,-0.25905 -0.46592,-0.58645 -0.60984,-0.98222 -0.14392,-0.39576 -0.21587,-0.85809 -0.21587,-1.38698 0,-0.98581 0.27073,-1.75935 0.81222,-2.32062 0.54148,-0.56127 1.25655,-0.8419 2.14522,-0.8419 0.3454,0 0.6845,0.0486 1.01731,0.14571 0.33279,0.0971 0.63772,0.21587 0.91475,0.35619 l 0,1.12793 -0.054,0 c -0.30942,-0.24106 -0.62873,-0.42635 -0.95793,-0.55587 -0.3292,-0.12952 -0.65031,-0.19428 -0.96333,-0.19428 -0.57566,0 -1.02989,0.19338 -1.36269,0.58015 -0.33281,0.38677 -0.4992,0.95434 -0.4992,1.70269 0,0.72677 0.16279,1.28534 0.48841,1.67571 0.3256,0.39037 0.78343,0.58555 1.37348,0.58555 0.20508,0 0.41375,-0.027 0.62603,-0.0809 0.21227,-0.054 0.40296,-0.12412 0.57206,-0.21047 0.14751,-0.0756 0.28603,-0.15561 0.41555,-0.24016 0.12953,-0.0846 0.23206,-0.15741 0.30762,-0.21857 l 0.054,0 0,1.11714 z m 6.33122,0.37777 -1.0146,0 0,-3.43236 c 0,-0.27704 -0.0162,-0.53699 -0.0485,-0.77984 -0.0324,-0.24286 -0.0917,-0.43265 -0.1781,-0.56937 -0.0899,-0.15111 -0.21947,-0.26354 -0.38856,-0.3373 -0.16911,-0.0738 -0.38858,-0.11063 -0.65842,-0.11063 -0.27703,0 -0.56666,0.0684 -0.86888,0.20508 -0.30223,0.13672 -0.59185,0.31121 -0.86889,0.52349 l 0,4.50093 -1.0146,0 0,-8.39742 1.0146,0 0,3.0384 c 0.31661,-0.26265 0.64402,-0.46773 0.98222,-0.61524 0.3382,-0.14751 0.68539,-0.22127 1.04159,-0.22127 0.65121,0 1.14771,0.19609 1.48951,0.58825 0.3418,0.39217 0.5127,0.95704 0.5127,1.6946 l 0,3.91268 z m 2.97904,0 -1.0146,0 0,-8.39742 1.0146,0 0,8.39742 z m 6.99425,0 -1.0146,0 0,-0.6692 c -0.3418,0.26984 -0.6692,0.47672 -0.98222,0.62063 -0.31301,0.14391 -0.65841,0.21587 -1.03619,0.21587 -0.63322,0 -1.12613,-0.19338 -1.47871,-0.58015 -0.3526,-0.38677 -0.52889,-0.95434 -0.52889,-1.70269 l 0,-3.91269 1.01459,0 0,3.43237 c 0,0.30582 0.0144,0.56756 0.0432,0.78523 0.0288,0.21768 0.0899,0.40387 0.18349,0.55857 0.0971,0.15831 0.22306,0.27344 0.37778,0.3454 0.1547,0.072 0.37957,0.10793 0.6746,0.10793 0.26264,0 0.54957,-0.0684 0.86078,-0.20507 0.31122,-0.13672 0.60175,-0.31122 0.87159,-0.52349 l 0,-4.50094 1.0146,0 0,6.02823 z m 6.30347,-1.73777 c 0,0.55048 -0.22757,1.00201 -0.6827,1.3546 -0.45513,0.35259 -1.07666,0.52888 -1.8646,0.52888 -0.44613,0 -0.85539,-0.0531 -1.22777,-0.1592 -0.37238,-0.10614 -0.6845,-0.22217 -0.93635,-0.34809 l 0,-1.13873 0.054,0 c 0.32022,0.24106 0.6764,0.43264 1.06857,0.57476 0.39217,0.14212 0.76815,0.21317 1.12794,0.21317 0.44613,0 0.79512,-0.072 1.04697,-0.21587 0.25185,-0.14391 0.37778,-0.37058 0.37778,-0.68 0,-0.23745 -0.0684,-0.41735 -0.20508,-0.53968 -0.13672,-0.12232 -0.39936,-0.22666 -0.78793,-0.31301 -0.14392,-0.0324 -0.33191,-0.0702 -0.56397,-0.11333 -0.23206,-0.0432 -0.44344,-0.0899 -0.63412,-0.14032 -0.52889,-0.14032 -0.90396,-0.34629 -1.12524,-0.61793 -0.22126,-0.27164 -0.3319,-0.60535 -0.3319,-1.00111 0,-0.24825 0.0512,-0.48211 0.15381,-0.70158 0.10254,-0.21947 0.25815,-0.41556 0.46683,-0.58826 0.20147,-0.1691 0.45782,-0.30312 0.76904,-0.40206 0.31121,-0.0989 0.65931,-0.14841 1.04428,-0.14841 0.35979,0 0.72407,0.0441 1.09285,0.13222 0.36878,0.0881 0.6755,0.19519 0.92015,0.32111 l 0,1.08476 -0.054,0 c -0.25905,-0.19069 -0.57386,-0.35169 -0.94444,-0.48302 -0.37059,-0.13132 -0.73397,-0.19698 -1.09015,-0.19698 -0.37058,0 -0.6836,0.0711 -0.93905,0.21318 -0.25544,0.14211 -0.38317,0.35349 -0.38317,0.63412 0,0.24825 0.0774,0.43534 0.23206,0.56127 0.15111,0.12592 0.39577,0.22846 0.73396,0.30761 0.18709,0.0432 0.39667,0.0863 0.62873,0.12953 0.23207,0.0432 0.42545,0.0827 0.58016,0.11873 0.47132,0.10793 0.83471,0.29322 1.09015,0.55587 0.25545,0.26624 0.38318,0.61883 0.38318,1.05777 z m 5.74836,0 c 0,0.55048 -0.22756,1.00201 -0.6827,1.3546 -0.45513,0.35259 -1.07666,0.52888 -1.86459,0.52888 -0.44614,0 -0.85539,-0.0531 -1.22777,-0.1592 -0.37238,-0.10614 -0.6845,-0.22217 -0.93635,-0.34809 l 0,-1.13873 0.054,0 c 0.32021,0.24106 0.6764,0.43264 1.06857,0.57476 0.39216,0.14212 0.76814,0.21317 1.12793,0.21317 0.44613,0 0.79513,-0.072 1.04698,-0.21587 0.25185,-0.14391 0.37778,-0.37058 0.37778,-0.68 0,-0.23745 -0.0684,-0.41735 -0.20508,-0.53968 -0.13673,-0.12232 -0.39937,-0.22666 -0.78794,-0.31301 -0.14391,-0.0324 -0.3319,-0.0702 -0.56396,-0.11333 -0.23207,-0.0432 -0.44344,-0.0899 -0.63412,-0.14032 -0.5289,-0.14032 -0.90397,-0.34629 -1.12524,-0.61793 -0.22127,-0.27164 -0.33191,-0.60535 -0.33191,-1.00111 0,-0.24825 0.0512,-0.48211 0.15382,-0.70158 0.10254,-0.21947 0.25814,-0.41556 0.46682,-0.58826 0.20148,-0.1691 0.45783,-0.30312 0.76905,-0.40206 0.31121,-0.0989 0.6593,-0.14841 1.04427,-0.14841 0.35979,0 0.72408,0.0441 1.09286,0.13222 0.36878,0.0881 0.6755,0.19519 0.92015,0.32111 l 0,1.08476 -0.054,0 c -0.25905,-0.19069 -0.57386,-0.35169 -0.94444,-0.48302 -0.37059,-0.13132 -0.73397,-0.19698 -1.09016,-0.19698 -0.37058,0 -0.6836,0.0711 -0.93905,0.21318 -0.25544,0.14211 -0.38317,0.35349 -0.38317,0.63412 0,0.24825 0.0774,0.43534 0.23207,0.56127 0.1511,0.12592 0.39576,0.22846 0.73396,0.30761 0.18709,0.0432 0.39667,0.0863 0.62873,0.12953 0.23206,0.0432 0.42544,0.0827 0.58015,0.11873 0.47132,0.10793 0.83471,0.29322 1.09015,0.55587 0.25546,0.26624 0.38318,0.61883 0.38318,1.05777 z"
       style="fill:#ffffff;fill-opacity:1;fill-rule:nonzero;stroke:none"
       id="path4508"
       inkscape:connector-curvature="0" />
    <path
       d="m 532.632,367.47502 c 0,15.7895 -24.63948,23.68425 -73.91855,23.68425"
       style="fill:none;stroke:#ffffff;stroke-width:0.78947502;stroke-linecap:butt;stroke-linejoin:miter;stroke-miterlimit:10;stroke-dasharray:none;stroke-opacity:1;fill-opacity:1"
       id="path4518"
       inkscape:connector-curvature="0" />
    <path
       d="m 454.56871,391.15927 5.52633,-2.76316 -1.38159,2.76316 1.38159,2.76317 -5.52633,-2.76317 z"
       style="fill:none;stroke:#ffffff;stroke-width:0.78947502;stroke-linecap:butt;stroke-linejoin:miter;stroke-miterlimit:10;stroke-dasharray:none;stroke-opacity:1"
       id="path4526"
       inkscape:connector-curvature="0" />
    <path
       d="m 491.97404,319.71179 80.52645,0 c 3.92415,0 7.10528,3.18114 7.10528,7.10528 l 0,33.15795 c 0,3.92414 -3.18113,7.10527 -7.10528,7.10527 l -80.52645,0 c -3.92415,0 -7.10527,-3.18113 -7.10527,-7.10527 l 0,-33.15795 c 0,-3.92414 3.18112,-7.10528 7.10527,-7.10528 z"
       style="fill:none;stroke:#ffffff;stroke-width:1.57895005;stroke-linecap:butt;stroke-linejoin:miter;stroke-miterlimit:10;stroke-dasharray:none;stroke-opacity:1"
       id="path4536"
       inkscape:connector-curvature="0" />
    <path
       d="m 511.76874,347.34342 -5.29426,0 0,-8.03584 5.29426,0 0,0.94984 -4.2257,0 0,2.20189 4.2257,0 0,0.94984 -4.2257,0 0,2.98443 4.2257,0 0,0.94984 z m 6.82541,0 -1.27904,0 -1.71079,-2.31523 -1.72158,2.31523 -1.18189,0 2.353,-3.00602 -2.33142,-3.02221 1.27904,0 1.7,2.27745 1.70538,-2.27745 1.1873,0 -2.3692,2.96824 2.3692,3.05999 z m 6.62419,-3.08697 c 0,0.48931 -0.0702,0.93634 -0.21048,1.3411 -0.14031,0.40476 -0.33819,0.74746 -0.59364,1.02809 -0.23746,0.26624 -0.5172,0.47222 -0.83921,0.61794 -0.32201,0.14571 -0.66291,0.21857 -1.02269,0.21857 -0.31301,0 -0.59635,-0.0342 -0.85,-0.10254 -0.25365,-0.0684 -0.51179,-0.1745 -0.77444,-0.31841 l 0,2.5257 -1.0146,0 0,-8.25171 1.0146,0 0,0.63142 c 0.26984,-0.22666 0.57296,-0.41645 0.90936,-0.56936 0.33641,-0.15291 0.69529,-0.22936 1.07666,-0.22936 0.72677,0 1.29254,0.27434 1.6973,0.82301 0.40476,0.54868 0.60714,1.31052 0.60714,2.28555 z m -1.04698,0.027 c 0,-0.72677 -0.12412,-1.27005 -0.37238,-1.62984 -0.24825,-0.35978 -0.62962,-0.53968 -1.14413,-0.53968 -0.29142,0 -0.58465,0.063 -0.87967,0.18889 -0.29503,0.12593 -0.57746,0.29143 -0.8473,0.49651 l 0,3.41617 c 0.28783,0.12952 0.53518,0.21767 0.74206,0.26445 0.20688,0.0468 0.44164,0.0702 0.70429,0.0702 0.56486,0 1.0056,-0.19069 1.32221,-0.57207 0.31661,-0.38137 0.47492,-0.94623 0.47492,-1.69459 z m 7.30958,3.05998 -1.0092,0 0,-0.64222 c -0.0899,0.0612 -0.21138,0.14662 -0.36428,0.25635 -0.15291,0.10974 -0.30133,0.19698 -0.44524,0.26175 -0.1691,0.0827 -0.36339,0.15201 -0.58285,0.20777 -0.21948,0.0558 -0.47672,0.0837 -0.77175,0.0837 -0.54328,0 -1.0038,-0.17989 -1.38158,-0.53968 -0.37777,-0.35978 -0.56666,-0.81851 -0.56666,-1.37618 0,-0.45693 0.098,-0.82661 0.29413,-1.10905 0.19608,-0.28243 0.47581,-0.5046 0.83919,-0.6665 0.36699,-0.1619 0.80773,-0.27164 1.32222,-0.3292 0.5145,-0.0576 1.06677,-0.10075 1.65682,-0.12953 l 0,-0.15651 c 0,-0.23026 -0.0405,-0.42095 -0.12143,-0.57206 -0.081,-0.15111 -0.19698,-0.26984 -0.3481,-0.35619 -0.14391,-0.0827 -0.31661,-0.13851 -0.51809,-0.1673 -0.20147,-0.0288 -0.41195,-0.0432 -0.63142,-0.0432 -0.26624,0 -0.56307,0.0351 -0.89047,0.10524 -0.32741,0.0702 -0.66561,0.1718 -1.01461,0.30492 l -0.054,0 0,-1.03079 c 0.19789,-0.054 0.48392,-0.11333 0.8581,-0.17809 0.37418,-0.0648 0.74296,-0.0971 1.10635,-0.0971 0.42455,0 0.79422,0.0351 1.10904,0.10524 0.31481,0.0702 0.58735,0.18978 0.81762,0.35888 0.22665,0.1655 0.39935,0.37958 0.51809,0.64222 0.11873,0.26265 0.17809,0.58825 0.17809,0.97682 l 0,4.09078 z m -1.0092,-1.48412 0,-1.6784 c -0.30942,0.018 -0.6737,0.045 -1.09286,0.081 -0.41914,0.036 -0.75105,0.0881 -0.99571,0.1565 -0.29142,0.0827 -0.52708,0.21138 -0.70697,0.38587 -0.1799,0.1745 -0.26984,0.41466 -0.26984,0.72048 0,0.34539 0.10433,0.60534 0.31301,0.77984 0.20868,0.17449 0.52709,0.26174 0.95523,0.26174 0.3562,0 0.6818,-0.0693 0.97683,-0.20778 0.29502,-0.13851 0.56846,-0.30492 0.82031,-0.4992 z m 8.00191,1.48412 -1.01459,0 0,-3.43236 c 0,-0.27704 -0.0162,-0.53699 -0.0485,-0.77984 -0.0324,-0.24286 -0.0918,-0.43265 -0.17809,-0.56936 -0.09,-0.15111 -0.21948,-0.26355 -0.38858,-0.3373 -0.16909,-0.0738 -0.38857,-0.11064 -0.6584,-0.11064 -0.27705,0 -0.56667,0.0684 -0.86889,0.20508 -0.30222,0.13672 -0.59185,0.31122 -0.86889,0.52349 l 0,4.50093 -1.01459,0 0,-6.02822 1.01459,0 0,0.6692 c 0.31662,-0.26265 0.64402,-0.46772 0.98222,-0.61524 0.3382,-0.14751 0.6854,-0.22127 1.04158,-0.22127 0.65122,0 1.14773,0.19609 1.48952,0.58826 0.3418,0.39216 0.5127,0.95703 0.5127,1.69459 l 0,3.91268 z m 6.84315,0 -1.0146,0 0,-0.63142 c -0.29142,0.25185 -0.59545,0.44793 -0.91206,0.58825 -0.31661,0.14032 -0.66021,0.21047 -1.03079,0.21047 -0.71957,0 -1.29073,-0.27703 -1.71348,-0.8311 -0.42275,-0.55408 -0.63412,-1.32222 -0.63412,-2.30444 0,-0.5109 0.0729,-0.96603 0.21856,-1.36539 0.14572,-0.39936 0.3427,-0.73936 0.59096,-1.01999 0.24465,-0.27344 0.52978,-0.48212 0.85538,-0.62603 0.32562,-0.14392 0.66291,-0.21588 1.01191,-0.21588 0.31661,0 0.59724,0.0333 0.8419,0.0998 0.24465,0.0666 0.5019,0.17 0.77174,0.31032 l 0,-2.61205 1.0146,0 0,8.39742 z m -1.0146,-1.48412 0,-3.45935 c -0.27344,-0.12233 -0.51809,-0.20688 -0.73396,-0.25365 -0.21588,-0.0468 -0.45154,-0.0702 -0.70699,-0.0702 -0.56846,0 -1.011,0.19789 -1.32761,0.59365 -0.31661,0.39577 -0.47492,0.95703 -0.47492,1.6838 0,0.71598 0.12233,1.26016 0.36698,1.63254 0.24466,0.37237 0.63683,0.55856 1.17651,0.55856 0.28783,0 0.57925,-0.0639 0.87428,-0.19158 0.29503,-0.12773 0.57026,-0.29233 0.82571,-0.49381 z m 8.05435,-1.42475 -4.44157,0 c 0,0.37058 0.0557,0.69349 0.16729,0.96872 0.11154,0.27524 0.26445,0.50101 0.45874,0.6773 0.18709,0.1727 0.40925,0.30222 0.66649,0.38857 0.25725,0.0863 0.54059,0.12952 0.85,0.12952 0.41016,0 0.82302,-0.0819 1.23857,-0.24555 0.41555,-0.1637 0.71148,-0.32471 0.88777,-0.48301 l 0.054,0 0,1.10634 c -0.34179,0.14391 -0.69079,0.26444 -1.04698,0.36159 -0.35619,0.0971 -0.73036,0.14571 -1.12253,0.14571 -1.00021,0 -1.78094,-0.27074 -2.34221,-0.81222 -0.56127,-0.54148 -0.84191,-1.31052 -0.84191,-2.30713 0,-0.98582 0.26895,-1.76835 0.80683,-2.34761 0.53788,-0.57926 1.24576,-0.86889 2.12364,-0.86889 0.81312,0 1.44004,0.23746 1.88078,0.71238 0.44074,0.47492 0.66112,1.14952 0.66112,2.0238 l 0,0.55048 z m -0.98762,-0.77714 c -0.004,-0.53249 -0.13762,-0.94444 -0.40207,-1.23587 -0.26444,-0.29143 -0.6665,-0.43714 -1.20618,-0.43714 -0.54328,0 -0.97592,0.1601 -1.29793,0.48031 -0.32201,0.32021 -0.5046,0.71778 -0.54777,1.1927 l 3.45395,0 z m 6.27802,-1.23587 -0.054,0 c -0.15111,-0.036 -0.29772,-0.0621 -0.43984,-0.0783 -0.14212,-0.0162 -0.31032,-0.0243 -0.5046,-0.0243 -0.31302,0 -0.61524,0.0693 -0.90666,0.20778 -0.29143,0.13851 -0.57207,0.31751 -0.84191,0.53698 l 0,4.27966 -1.01459,0 0,-6.02823 1.01459,0 0,0.89048 c 0.40297,-0.32381 0.75825,-0.55318 1.06587,-0.6881 0.30762,-0.13492 0.62153,-0.20238 0.94174,-0.20238 0.1763,0 0.30402,0.005 0.38318,0.0135 0.0791,0.009 0.19788,0.0261 0.35619,0.0513 l 0,1.04159 z"
       style="fill:#ffffff;fill-opacity:1;fill-rule:nonzero;stroke:none"
       id="path4544"
       inkscape:connector-curvature="0" />
    <path
       d="m 358.9475,391.15927 c 0,0 -8.85,0 -26.55004,0"
       style="fill:none;stroke:#ffffff;stroke-width:0.78947502;stroke-linecap:butt;stroke-linejoin:miter;stroke-miterlimit:10;stroke-dasharray:none;stroke-opacity:1"
       id="path4554"
       inkscape:connector-curvature="0" />
    <path
       d="m 328.25271,391.15927 5.52633,-2.76316 -1.38158,2.76316 1.38158,2.76317 -5.52633,-2.76317 z"
       style="fill:none;stroke:#ffffff;stroke-width:0.78947502;stroke-linecap:butt;stroke-linejoin:miter;stroke-miterlimit:10;stroke-dasharray:none;stroke-opacity:1"
       id="path4562"
       inkscape:connector-curvature="0" />
    <path
       d="m 365.65804,367.08029 80.52645,0 c 3.92415,0 7.10528,3.18114 7.10528,7.10528 l 0,33.15795 c 0,3.92413 -3.18113,7.10528 -7.10528,7.10528 l -80.52645,0 c -3.92412,0 -7.10527,-3.18115 -7.10527,-7.10528 l 0,-33.15795 c 0,-3.92414 3.18115,-7.10528 7.10527,-7.10528 z"
       style="fill:none;stroke:#ffffff;stroke-width:1.57895005;stroke-linecap:butt;stroke-linejoin:miter;stroke-miterlimit:10;stroke-dasharray:none;stroke-opacity:1"
       id="path4572"
       inkscape:connector-curvature="0" />
    <path
       d="m 232.6315,391.15927 c 0,0 -8.85,0 -26.55004,0"
       style="fill:none;stroke:#ffffff;stroke-width:0.78947502;stroke-linecap:butt;stroke-linejoin:miter;stroke-miterlimit:10;stroke-dasharray:none;stroke-opacity:1"
       id="path4600"
       inkscape:connector-curvature="0" />
    <path
       d="m 201.93671,391.15927 5.52633,-2.76316 -1.38158,2.76316 1.38158,2.76317 -5.52633,-2.76317 z"
       style="fill:none;stroke:#ffffff;stroke-width:0.78947502;stroke-linecap:butt;stroke-linejoin:miter;stroke-miterlimit:10;stroke-dasharray:none;stroke-opacity:1"
       id="path4608"
       inkscape:connector-curvature="0" />
    <path
       d="m 239.34204,367.08029 80.52645,0 c 3.92412,0 7.10527,3.18114 7.10527,7.10528 l 0,33.15795 c 0,3.92413 -3.18115,7.10528 -7.10527,7.10528 l -80.52645,0 c -3.92412,0 -7.10527,-3.18115 -7.10527,-7.10528 l 0,-33.15795 c 0,-3.92414 3.18115,-7.10528 7.10527,-7.10528 z"
       style="fill:none;stroke:#ffffff;stroke-width:1.57895005;stroke-linecap:butt;stroke-linejoin:miter;stroke-miterlimit:10;stroke-dasharray:none;stroke-opacity:1"
       id="path4618"
       inkscape:connector-curvature="0" />
    <path
       d="m 256.26178,394.71192 -1.06857,0 0,-6.9241 -2.23427,4.71141 -0.63682,0 -2.21809,-4.71141 0,6.9241 -0.9984,0 0,-8.03584 1.45713,0 2.14253,4.47395 2.07238,-4.47395 1.48411,0 0,8.03584 z m 4.9905,0 -3.17331,0 0,-0.82031 1.05237,0 0,-6.39522 -1.05237,0 0,-0.82031 3.17331,0 0,0.82031 -1.05237,0 0,6.39522 1.05237,0 0,0.82031 z m 8.60636,-4.00982 c 0,0.73036 -0.1592,1.39237 -0.47761,1.98602 -0.31841,0.59365 -0.74207,1.05417 -1.27096,1.38158 -0.36697,0.22666 -0.77623,0.39037 -1.22776,0.49111 -0.45154,0.10074 -1.04609,0.15111 -1.78365,0.15111 l -2.02919,0 0,-8.03584 2.00761,0 c 0.78433,0 1.40766,0.0567 1.86999,0.17 0.46232,0.11333 0.85359,0.26894 1.1738,0.46683 0.54687,0.34179 0.97322,0.79692 1.27904,1.36538 0.30582,0.56847 0.45873,1.24307 0.45873,2.02381 z m -1.11714,-0.0162 c 0,-0.62963 -0.10973,-1.16031 -0.3292,-1.59205 -0.21947,-0.43175 -0.54688,-0.77175 -0.98222,-1.02 -0.31661,-0.17989 -0.65301,-0.30491 -1.00921,-0.37508 -0.35618,-0.0702 -0.78253,-0.10523 -1.27903,-0.10523 l -1.00381,0 0,6.20092 1.00381,0 c 0.51449,0 0.96332,-0.0377 1.3465,-0.11334 0.38317,-0.0755 0.73486,-0.21586 1.05507,-0.42094 0.39937,-0.25545 0.69889,-0.59185 0.89857,-1.00921 0.19968,-0.41734 0.29952,-0.93904 0.29952,-1.56507 z m 5.67281,4.02601 -3.17332,0 0,-0.82031 1.05238,0 0,-6.39522 -1.05238,0 0,-0.82031 3.17332,0 0,0.82031 -1.05237,0 0,6.39522 1.05237,0 0,0.82031 z m 4.93114,-3.02761 -3.36761,0 0,-0.97682 3.36761,0 0,0.97682 z m 8.35425,3.02761 -1.38698,0 -3.17871,-3.57808 -0.79873,0.85269 0,2.72539 -1.06857,0 0,-8.03584 1.06857,0 0,4.19332 3.90188,-4.19332 1.29523,0 -3.58887,3.77776 3.75618,4.25808 z m 5.79154,0 -1.0092,0 0,-0.64222 c -0.09,0.0612 -0.21138,0.14661 -0.36429,0.25635 -0.15291,0.10974 -0.30132,0.19698 -0.44523,0.26174 -0.16911,0.0828 -0.36339,0.15201 -0.58286,0.20778 -0.21947,0.0557 -0.47672,0.0837 -0.77175,0.0837 -0.54328,0 -1.0038,-0.17989 -1.38158,-0.53968 -0.37777,-0.35979 -0.56666,-0.81851 -0.56666,-1.37618 0,-0.45693 0.098,-0.82661 0.29413,-1.10905 0.19608,-0.28243 0.47581,-0.5046 0.8392,-0.6665 0.36698,-0.16191 0.80772,-0.27164 1.32221,-0.32921 0.5145,-0.0575 1.06677,-0.10073 1.65683,-0.12952 l 0,-0.15651 c 0,-0.23026 -0.0405,-0.42095 -0.12143,-0.57206 -0.081,-0.15111 -0.19698,-0.26984 -0.3481,-0.35619 -0.14391,-0.0828 -0.31661,-0.13851 -0.51809,-0.1673 -0.20148,-0.0288 -0.41196,-0.0432 -0.63142,-0.0432 -0.26625,0 -0.56307,0.035 -0.89048,0.10523 -0.32741,0.0702 -0.6656,0.1718 -1.0146,0.30492 l -0.054,0 0,-1.03078 c 0.19788,-0.054 0.48392,-0.11334 0.85809,-0.1781 0.37418,-0.0647 0.74296,-0.0971 1.10635,-0.0971 0.42455,0 0.79423,0.0351 1.10904,0.10524 0.31482,0.0702 0.58735,0.18978 0.81762,0.35889 0.22666,0.16549 0.39936,0.37957 0.51809,0.64221 0.11873,0.26265 0.1781,0.58826 0.1781,0.97683 l 0,4.09077 z m -1.0092,-1.48412 0,-1.67841 c -0.30942,0.018 -0.67371,0.045 -1.09286,0.081 -0.41915,0.036 -0.75106,0.0881 -0.99571,0.1565 -0.29142,0.0828 -0.52709,0.21138 -0.70698,0.38587 -0.17989,0.1745 -0.26984,0.41466 -0.26984,0.72048 0,0.34539 0.10434,0.60534 0.31302,0.77983 0.20867,0.1745 0.52708,0.26175 0.95523,0.26175 0.35619,0 0.6818,-0.0692 0.97682,-0.20778 0.29502,-0.13852 0.56847,-0.30492 0.82032,-0.4992 z m 8.26635,-1.57587 c 0,0.5037 -0.0711,0.95703 -0.21317,1.36 -0.14212,0.40296 -0.3337,0.74116 -0.57476,1.01459 -0.25545,0.28424 -0.53608,0.49741 -0.8419,0.63952 -0.30582,0.14212 -0.64222,0.21318 -1.0092,0.21318 -0.3418,0 -0.64042,-0.0405 -0.89587,-0.12143 -0.25545,-0.081 -0.5073,-0.18978 -0.75555,-0.3265 l -0.0647,0.28063 -0.94984,0 0,-8.39742 1.0146,0 0,3.00062 c 0.28423,-0.23386 0.58645,-0.42545 0.90666,-0.57477 0.32021,-0.1493 0.67999,-0.22396 1.07936,-0.22396 0.71238,0 1.27454,0.27344 1.6865,0.82032 0.41195,0.54687 0.61794,1.31861 0.61794,2.31522 z m -1.04698,0.027 c 0,-0.71957 -0.11872,-1.26555 -0.35618,-1.63792 -0.23747,-0.37238 -0.62064,-0.55857 -1.14953,-0.55857 -0.29502,0 -0.59364,0.0639 -0.89587,0.19158 -0.30222,0.12773 -0.58285,0.29233 -0.84189,0.49381 l 0,3.45395 c 0.28782,0.12952 0.53518,0.21948 0.74205,0.26984 0.20689,0.0504 0.44164,0.0756 0.70429,0.0756 0.56127,0 1.00111,-0.18439 1.31952,-0.55317 0.31841,-0.36879 0.47761,-0.94714 0.47761,-1.73508 z m 7.67117,0.12413 -4.44157,0 c 0,0.37058 0.0557,0.69349 0.1673,0.96873 0.11154,0.27523 0.26444,0.501 0.45873,0.67729 0.18709,0.1727 0.40926,0.30222 0.6665,0.38858 0.25725,0.0863 0.54059,0.12952 0.85001,0.12952 0.41015,0 0.82301,-0.0819 1.23856,-0.24556 0.41555,-0.1637 0.71148,-0.3247 0.88777,-0.48301 l 0.054,0 0,1.10635 c -0.3418,0.14391 -0.69079,0.26444 -1.04698,0.36158 -0.35619,0.0971 -0.73037,0.14571 -1.12253,0.14571 -1.00021,0 -1.78094,-0.27074 -2.34221,-0.81222 -0.56127,-0.54148 -0.84191,-1.31052 -0.84191,-2.30713 0,-0.98582 0.26894,-1.76835 0.80683,-2.34761 0.53788,-0.57926 1.24576,-0.86889 2.12364,-0.86889 0.81312,0 1.44004,0.23746 1.88078,0.71239 0.44074,0.47491 0.66111,1.14951 0.66111,2.02379 l 0,0.55048 z m -0.98761,-0.77714 c -0.004,-0.53249 -0.13762,-0.94444 -0.40207,-1.23587 -0.26444,-0.29143 -0.6665,-0.43714 -1.20618,-0.43714 -0.54328,0 -0.97593,0.1601 -1.29793,0.48032 -0.32201,0.32021 -0.5046,0.71777 -0.54778,1.19269 l 3.45396,0 z m 3.54184,3.68602 -1.0146,0 0,-8.39743 1.0146,0 0,8.39743 z"
       style="fill:#ffffff;fill-opacity:1;fill-rule:nonzero;stroke:none"
       id="path4626"
       inkscape:connector-curvature="0" />
    <path
       d="m 106.3155,391.15927 c 0,0 -8.85,0 -26.55004,0"
       style="fill:none;stroke:#ffffff;stroke-width:0.78947502;stroke-linecap:butt;stroke-linejoin:miter;stroke-miterlimit:10;stroke-dasharray:none;stroke-opacity:1"
       id="path4636"
       inkscape:connector-curvature="0" />
    <path
       d="m 75.620714,391.15927 5.526316,-2.76316 -1.38157,2.76316 1.38157,2.76317 -5.526316,-2.76317 z"
       style="fill:none;stroke:#ffffff;stroke-width:0.78947502;stroke-linecap:butt;stroke-linejoin:miter;stroke-miterlimit:10;stroke-dasharray:none;stroke-opacity:1"
       id="path4644"
       inkscape:connector-curvature="0" />
    <path
       d="m 113.02604,367.08029 80.52645,0 c 3.92412,0 7.10527,3.18114 7.10527,7.10528 l 0,33.15795 c 0,3.92413 -3.18115,7.10528 -7.10527,7.10528 l -80.52645,0 c -3.92414,0 -7.10527,-3.18115 -7.10527,-7.10528 l 0,-33.15795 c 0,-3.92414 3.18113,-7.10528 7.10527,-7.10528 z"
       style="fill:none;stroke:#ffffff;stroke-width:1.57895005;stroke-linecap:butt;stroke-linejoin:miter;stroke-miterlimit:10;stroke-dasharray:none;stroke-opacity:1"
       id="path4654"
       inkscape:connector-curvature="0" />
    <path
       d="m 139.23445,388.39612 -1.06857,0 0,-6.9241 -2.23427,4.71141 -0.63682,0 -2.21809,-4.71141 0,6.9241 -0.99841,0 0,-8.03584 1.45713,0 2.14254,4.47395 2.07237,-4.47395 1.48412,0 0,8.03584 z m 4.9905,0 -3.17332,0 0,-0.82031 1.05238,0 0,-6.39522 -1.05238,0 0,-0.82031 3.17332,0 0,0.82031 -1.05237,0 0,6.39522 1.05237,0 0,0.82031 z m 8.60636,-4.00982 c 0,0.73036 -0.15921,1.39237 -0.47762,1.98602 -0.31841,0.59365 -0.74206,1.05417 -1.27094,1.38158 -0.36699,0.22666 -0.77625,0.39037 -1.22778,0.49111 -0.45153,0.10074 -1.04608,0.15111 -1.78365,0.15111 l -2.02919,0 0,-8.03584 2.00761,0 c 0.78434,0 1.40767,0.0567 1.86999,0.17 0.46232,0.11333 0.8536,0.26894 1.17381,0.46683 0.54687,0.34179 0.97322,0.79692 1.27904,1.36538 0.30582,0.56847 0.45873,1.24307 0.45873,2.02381 z m -1.11714,-0.0162 c 0,-0.62963 -0.10974,-1.16031 -0.32921,-1.59205 -0.21947,-0.43175 -0.54687,-0.77175 -0.98221,-1.02 -0.31661,-0.17989 -0.65302,-0.30491 -1.0092,-0.37508 -0.35619,-0.0702 -0.78254,-0.10523 -1.27905,-0.10523 l -1.0038,0 0,6.20092 1.0038,0 c 0.51449,0 0.96333,-0.0377 1.34651,-0.11334 0.38317,-0.0755 0.73486,-0.21586 1.05507,-0.42094 0.39936,-0.25545 0.69889,-0.59185 0.89857,-1.00921 0.19968,-0.41734 0.29952,-0.93904 0.29952,-1.56507 z m 5.67281,4.02602 -3.17332,0 0,-0.82031 1.05238,0 0,-6.39522 -1.05238,0 0,-0.82031 3.17332,0 0,0.82031 -1.05238,0 0,6.39522 1.05238,0 0,0.82031 z m 4.93113,-3.02761 -3.3676,0 0,-0.97682 3.3676,0 0,0.97682 z m 4.7276,3.0276 -3.17332,0 0,-0.82031 1.05238,0 0,-6.39522 -1.05238,0 0,-0.82031 3.17332,0 0,0.82031 -1.05237,0 0,6.39522 1.05237,0 0,0.82031 z m 6.77684,0 -1.0146,0 0,-3.43237 c 0,-0.27703 -0.0162,-0.53698 -0.0486,-0.77983 -0.0324,-0.24286 -0.0917,-0.43264 -0.1781,-0.56937 -0.0899,-0.15111 -0.21946,-0.26354 -0.38857,-0.3373 -0.1691,-0.0737 -0.38856,-0.11063 -0.65841,-0.11063 -0.27703,0 -0.56666,0.0684 -0.86888,0.20508 -0.30222,0.13672 -0.59185,0.31121 -0.86888,0.52349 l 0,4.50093 -1.01461,0 0,-6.02823 1.01461,0 0,0.6692 c 0.31661,-0.26264 0.64401,-0.46771 0.98221,-0.61523 0.3382,-0.14751 0.68539,-0.22127 1.04159,-0.22127 0.65121,0 1.14771,0.19609 1.48951,0.58825 0.3418,0.39217 0.5127,0.95704 0.5127,1.69459 l 0,3.91269 z"
       style="fill:#ffffff;fill-opacity:1;fill-rule:nonzero;stroke:none"
       id="path4662"
       inkscape:connector-curvature="0" />
    <path
       d="m 133.07285,401.81719 -1.13873,0 -0.78793,-2.23967 -3.47555,0 -0.78792,2.23967 -1.08477,0 2.92507,-8.03583 1.42476,0 2.92507,8.03583 z m -2.25586,-3.15712 -1.40857,-3.94506 -1.41397,3.94506 2.82254,0 z m 8.42902,3.15712 -1.01459,0 0,-3.43236 c 0,-0.27704 -0.0162,-0.53698 -0.0486,-0.77984 -0.0324,-0.24286 -0.0917,-0.43264 -0.17809,-0.56936 -0.09,-0.15111 -0.21948,-0.26354 -0.38858,-0.3373 -0.16909,-0.0737 -0.38857,-0.11063 -0.6584,-0.11063 -0.27704,0 -0.56667,0.0684 -0.86889,0.20507 -0.30222,0.13672 -0.59185,0.31122 -0.86889,0.52349 l 0,4.50094 -1.01459,0 0,-6.02823 1.01459,0 0,0.6692 c 0.31662,-0.26264 0.64402,-0.46772 0.98223,-0.61523 0.33819,-0.14752 0.68539,-0.22128 1.04158,-0.22128 0.65121,0 1.14772,0.19609 1.48951,0.58826 0.3418,0.39216 0.5127,0.95703 0.5127,1.69459 l 0,3.91269 z m 6.26029,-1.73776 c 0,0.55047 -0.22756,1.002 -0.68269,1.35459 -0.45513,0.35259 -1.07667,0.52889 -1.86459,0.52889 -0.44614,0 -0.8554,-0.053 -1.22778,-0.15921 -0.37238,-0.10613 -0.68449,-0.22216 -0.93634,-0.34809 l 0,-1.13873 0.054,0 c 0.32021,0.24106 0.6764,0.43264 1.06856,0.57477 0.39217,0.14211 0.76815,0.21317 1.12793,0.21317 0.44614,0 0.79513,-0.0719 1.04698,-0.21587 0.25186,-0.14392 0.37778,-0.37058 0.37778,-0.68 0,-0.23746 -0.0684,-0.41736 -0.20508,-0.53968 -0.13672,-0.12233 -0.39936,-0.22667 -0.78793,-0.31302 -0.14391,-0.0324 -0.3319,-0.0702 -0.56397,-0.11333 -0.23206,-0.0432 -0.44343,-0.09 -0.63412,-0.14032 -0.52889,-0.14031 -0.90397,-0.34629 -1.12523,-0.61793 -0.22128,-0.27164 -0.3319,-0.60534 -0.3319,-1.00111 0,-0.24825 0.0512,-0.48212 0.1538,-0.70158 0.10254,-0.21948 0.25815,-0.41556 0.46683,-0.58825 0.20148,-0.1691 0.45782,-0.30312 0.76904,-0.40207 0.31122,-0.0989 0.65931,-0.1484 1.04428,-0.1484 0.35978,0 0.72407,0.044 1.09285,0.13222 0.36878,0.0881 0.6755,0.19518 0.92016,0.32111 l 0,1.08475 -0.054,0 c -0.25905,-0.19069 -0.57386,-0.35169 -0.94444,-0.48301 -0.37058,-0.13133 -0.73397,-0.19699 -1.09016,-0.19699 -0.37058,0 -0.68359,0.0711 -0.93904,0.21318 -0.25545,0.14211 -0.38317,0.35349 -0.38317,0.63412 0,0.24826 0.0774,0.43535 0.23206,0.56127 0.15111,0.12593 0.39576,0.22847 0.73396,0.30762 0.18709,0.0432 0.39667,0.0863 0.62873,0.12952 0.23206,0.0432 0.42545,0.0828 0.58016,0.11873 0.47132,0.10794 0.8347,0.29323 1.09015,0.55587 0.25545,0.26624 0.38317,0.61884 0.38317,1.05778 z m 5.89948,1.35999 c -0.3382,0.1619 -0.65931,0.28783 -0.96333,0.37777 -0.30402,0.0899 -0.62693,0.13493 -0.96873,0.13493 -0.43534,0 -0.8347,-0.0639 -1.19809,-0.19159 -0.36338,-0.12772 -0.6746,-0.32111 -0.93364,-0.58016 -0.26265,-0.25905 -0.46592,-0.58645 -0.60984,-0.98221 -0.14392,-0.39577 -0.21587,-0.8581 -0.21587,-1.38699 0,-0.98581 0.27073,-1.75935 0.81222,-2.32062 0.54148,-0.56127 1.25655,-0.8419 2.14522,-0.8419 0.3454,0 0.6845,0.0485 1.01731,0.14571 0.33279,0.0971 0.63772,0.21588 0.91475,0.3562 l 0,1.12793 -0.054,0 c -0.30942,-0.24106 -0.62873,-0.42635 -0.95793,-0.55588 -0.3292,-0.12952 -0.65031,-0.19428 -0.96333,-0.19428 -0.57566,0 -1.02989,0.19338 -1.36269,0.58015 -0.33281,0.38677 -0.4992,0.95434 -0.4992,1.70269 0,0.72677 0.16279,1.28535 0.48841,1.67571 0.3256,0.39037 0.78343,0.58556 1.37348,0.58556 0.20508,0 0.41375,-0.027 0.62603,-0.081 0.21227,-0.054 0.40296,-0.12413 0.57206,-0.21047 0.14751,-0.0756 0.28603,-0.15561 0.41555,-0.24016 0.12953,-0.0846 0.23206,-0.1574 0.30762,-0.21857 l 0.054,0 0,1.11714 z m 6.33122,0.37777 -1.0146,0 0,-3.43236 c 0,-0.27704 -0.0162,-0.53698 -0.0485,-0.77984 -0.0324,-0.24286 -0.0918,-0.43264 -0.1781,-0.56936 -0.09,-0.15111 -0.21947,-0.26354 -0.38857,-0.3373 -0.1691,-0.0737 -0.38857,-0.11063 -0.65841,-0.11063 -0.27703,0 -0.56666,0.0684 -0.86889,0.20507 -0.30222,0.13672 -0.59184,0.31122 -0.86888,0.52349 l 0,4.50094 -1.0146,0 0,-8.39743 1.0146,0 0,3.0384 c 0.31661,-0.26264 0.64402,-0.46772 0.98222,-0.61523 0.3382,-0.14752 0.68539,-0.22128 1.04159,-0.22128 0.65121,0 1.14771,0.19609 1.48951,0.58826 0.3418,0.39216 0.5127,0.95703 0.5127,1.69459 l 0,3.91269 z m 2.97904,0 -1.0146,0 0,-8.39742 1.0146,0 0,8.39742 z m 6.99425,0 -1.01459,0 0,-0.6692 c -0.34181,0.26984 -0.66921,0.47672 -0.98223,0.62064 -0.31301,0.14391 -0.65841,0.21586 -1.03619,0.21586 -0.63322,0 -1.12613,-0.19338 -1.47871,-0.58015 -0.3526,-0.38677 -0.52889,-0.95433 -0.52889,-1.70269 l 0,-3.91268 1.01459,0 0,3.43236 c 0,0.30582 0.0144,0.56757 0.0432,0.78524 0.0288,0.21767 0.0899,0.40386 0.18349,0.55857 0.0971,0.1583 0.22306,0.27344 0.37778,0.34539 0.1547,0.0719 0.37957,0.10794 0.6746,0.10794 0.26264,0 0.54957,-0.0684 0.86078,-0.20508 0.31122,-0.13672 0.60175,-0.31122 0.87159,-0.52349 l 0,-4.50093 1.0146,0 0,6.02822 z m 6.30347,-1.73776 c 0,0.55047 -0.22757,1.002 -0.6827,1.35459 -0.45513,0.35259 -1.07666,0.52889 -1.8646,0.52889 -0.44613,0 -0.85539,-0.053 -1.22777,-0.15921 -0.37238,-0.10613 -0.6845,-0.22216 -0.93635,-0.34809 l 0,-1.13873 0.054,0 c 0.32022,0.24106 0.6764,0.43264 1.06857,0.57477 0.39217,0.14211 0.76815,0.21317 1.12794,0.21317 0.44613,0 0.79512,-0.0719 1.04697,-0.21587 0.25185,-0.14392 0.37778,-0.37058 0.37778,-0.68 0,-0.23746 -0.0684,-0.41736 -0.20508,-0.53968 -0.13672,-0.12233 -0.39936,-0.22667 -0.78793,-0.31302 -0.14392,-0.0324 -0.33191,-0.0702 -0.56397,-0.11333 -0.23206,-0.0432 -0.44344,-0.09 -0.63413,-0.14032 -0.52888,-0.14031 -0.90395,-0.34629 -1.12523,-0.61793 -0.22126,-0.27164 -0.3319,-0.60534 -0.3319,-1.00111 0,-0.24825 0.0512,-0.48212 0.15381,-0.70158 0.10254,-0.21948 0.25815,-0.41556 0.46682,-0.58825 0.20148,-0.1691 0.45783,-0.30312 0.76905,-0.40207 0.31121,-0.0989 0.65931,-0.1484 1.04428,-0.1484 0.35979,0 0.72407,0.044 1.09285,0.13222 0.36878,0.0881 0.6755,0.19518 0.92015,0.32111 l 0,1.08475 -0.0539,0 c -0.25905,-0.19069 -0.57386,-0.35169 -0.94444,-0.48301 -0.37059,-0.13133 -0.73397,-0.19699 -1.09015,-0.19699 -0.37058,0 -0.6836,0.0711 -0.93905,0.21318 -0.25545,0.14211 -0.38317,0.35349 -0.38317,0.63412 0,0.24826 0.0774,0.43535 0.23206,0.56127 0.15111,0.12593 0.39577,0.22847 0.73396,0.30762 0.18709,0.0432 0.39667,0.0863 0.62873,0.12952 0.23207,0.0432 0.42545,0.0828 0.58015,0.11873 0.47133,0.10794 0.83472,0.29323 1.09016,0.55587 0.25545,0.26624 0.38318,0.61884 0.38318,1.05778 z m 5.74836,0 c 0,0.55047 -0.22756,1.002 -0.6827,1.35459 -0.45513,0.35259 -1.07666,0.52889 -1.86459,0.52889 -0.44614,0 -0.85539,-0.053 -1.22777,-0.15921 -0.37238,-0.10613 -0.6845,-0.22216 -0.93635,-0.34809 l 0,-1.13873 0.054,0 c 0.32021,0.24106 0.6764,0.43264 1.06857,0.57477 0.39216,0.14211 0.76814,0.21317 1.12793,0.21317 0.44613,0 0.79513,-0.0719 1.04698,-0.21587 0.25185,-0.14392 0.37778,-0.37058 0.37778,-0.68 0,-0.23746 -0.0684,-0.41736 -0.20508,-0.53968 -0.13673,-0.12233 -0.39937,-0.22667 -0.78794,-0.31302 -0.14391,-0.0324 -0.3319,-0.0702 -0.56396,-0.11333 -0.23207,-0.0432 -0.44344,-0.09 -0.63413,-0.14032 -0.52889,-0.14031 -0.90396,-0.34629 -1.12523,-0.61793 -0.22127,-0.27164 -0.33191,-0.60534 -0.33191,-1.00111 0,-0.24825 0.0512,-0.48212 0.15382,-0.70158 0.10254,-0.21948 0.25814,-0.41556 0.46681,-0.58825 0.20149,-0.1691 0.45784,-0.30312 0.76906,-0.40207 0.31121,-0.0989 0.6593,-0.1484 1.04427,-0.1484 0.35979,0 0.72407,0.044 1.09286,0.13222 0.36878,0.0881 0.6755,0.19518 0.92015,0.32111 l 0,1.08475 -0.054,0 c -0.25904,-0.19069 -0.57386,-0.35169 -0.94444,-0.48301 -0.37058,-0.13133 -0.73396,-0.19699 -1.09015,-0.19699 -0.37058,0 -0.6836,0.0711 -0.93905,0.21318 -0.25544,0.14211 -0.38317,0.35349 -0.38317,0.63412 0,0.24826 0.0774,0.43535 0.23207,0.56127 0.1511,0.12593 0.39576,0.22847 0.73395,0.30762 0.18709,0.0432 0.39668,0.0863 0.62873,0.12952 0.23207,0.0432 0.42545,0.0828 0.58016,0.11873 0.47132,0.10794 0.83471,0.29323 1.09015,0.55587 0.25545,0.26624 0.38318,0.61884 0.38318,1.05778 z"
       style="fill:#ffffff;fill-opacity:1;fill-rule:nonzero;stroke:none"
       id="path4672"
       inkscape:connector-curvature="0" />
    <path
       d="m -13.28996,367.08029 80.52645,0 c 3.924141,0 7.105275,3.18114 7.105275,7.10528 l 0,33.15795 c 0,3.92413 -3.181134,7.10528 -7.105275,7.10528 l -80.52645,0 c -3.924137,0 -7.105275,-3.18115 -7.105275,-7.10528 l 0,-33.15795 c 0,-3.92414 3.181138,-7.10528 7.105275,-7.10528 z"
       style="fill:none;stroke:#ffffff;stroke-width:1.57895005;stroke-linecap:butt;stroke-linejoin:miter;stroke-miterlimit:10;stroke-dasharray:none;stroke-opacity:1"
       id="path4686"
       inkscape:connector-curvature="0" />
    <path
       d="m 2.807157,393.04393 c 0,0.33536 -0.07806,0.66688 -0.234182,0.99454 -0.156121,0.32767 -0.374885,0.60522 -0.656289,0.83266 -0.308389,0.24671 -0.667855,0.43945 -1.07839699,0.57822 -0.410543,0.13878 -0.904928,0.20816 -1.483157,0.20816 -0.62063201,0 -1.17862301,-0.0578 -1.67397301,-0.17346 -0.495349,-0.11565 -0.999372,-0.28719 -1.512068,-0.51463 l 0,-1.43401 0.08095,0 c 0.435599,0.36236 0.938658,0.64184 1.509177,0.83844 0.57052,0.1966 1.106345,0.29489 1.60747601,0.29489 0.709295,0 1.261503,-0.13299 1.65662599,-0.39897 0.395123,-0.26599 0.592684,-0.62063 0.592684,-1.06395 0,-0.38162 -0.09348,-0.66303 -0.28044,-0.84421 -0.186961,-0.18117 -0.47125699,-0.32188 -0.85288799,-0.42211 -0.289115,-0.0771 -0.602322,-0.1407 -0.939622,-0.19081 -0.3373,-0.0501 -0.69483801,-0.11372 -1.07261401,-0.19082 -0.763262,-0.1619 -1.328962,-0.43849 -1.697102,-0.82975 -0.368139,-0.39127 -0.552208,-0.90108 -0.552208,-1.52942 0,-0.72086 0.304534,-1.31162 0.913602,-1.77227 0.609067,-0.46066 1.381966,-0.69099 2.31869601,-0.69099 0.605214,0 1.160313,0.0579 1.66529899,0.17347 0.504987,0.11565 0.952151,0.25828 1.341491,0.42789 l 0,1.35306 -0.08095,0 c -0.327663,-0.27755 -0.758443,-0.50788 -1.292341,-0.69098 -0.53389799,-0.18311 -1.08032399,-0.27467 -1.63927899,-0.27467 -0.61292201,0 -1.10538001,0.12722 -1.47737401,0.38164 -0.371994,0.25442 -0.557991,0.58208 -0.557991,0.98299 0,0.3585 0.09252,0.63991 0.27755,0.84421 0.185034,0.20431 0.510769,0.36043 0.977207,0.46837 0.246711,0.054 0.59750301,0.1195 1.05237601,0.19659 0.454873,0.0771 0.840359,0.15613 1.156457,0.23707 0.63990699,0.16962 1.12176499,0.42597 1.44557199,0.76906 0.323808,0.34308 0.485712,0.82301 0.485712,1.43979 z m 7.155389,-0.65918 -4.758823,0 c 0,0.39704 0.05975,0.74302 0.179251,1.03791 0.119501,0.2949 0.283332,0.53679 0.491494,0.72568 0.200453,0.18503 0.43849,0.32381 0.714113,0.41633 0.275622,0.0925 0.579193,0.13877 0.91071,0.13877 0.439454,0 0.881799,-0.0877 1.327035,-0.2631 0.445237,-0.17539 0.762298,-0.3479 0.951187,-0.51751 l 0.05782,0 0,1.18537 c -0.366212,0.15419 -0.740133,0.28333 -1.121764,0.38741 -0.381631,0.10408 -0.782536,0.15612 -1.202716,0.15612 -1.071651,0 -1.908155,-0.29007 -2.509513,-0.87023 -0.601358,-0.58016 -0.902036,-1.40413 -0.902036,-2.47193 0,-1.05623 0.28815,-1.89466 0.864452,-2.51529 0.576301,-0.62064 1.334745,-0.93095 2.27533,-0.93095 0.871198,0 1.542907,0.25442 2.015127,0.76326 0.47222,0.50884 0.70833,1.23163 0.70833,2.16835 l 0,0.58981 z m -1.058159,-0.83266 c -0.0039,-0.57052 -0.147448,-1.0119 -0.43078,-1.32414 -0.283332,-0.31225 -0.714112,-0.46837 -1.292341,-0.46837 -0.582084,0 -1.045631,0.17154 -1.390641,0.51463 -0.34501,0.34308 -0.540643,0.76904 -0.586902,1.27788 l 3.700664,0 z m 7.93407,6.33161 -1.087071,0 0,-3.11087 c -0.335372,0.28911 -0.668818,0.50402 -1.000335,0.64472 -0.331518,0.1407 -0.69002,0.21105 -1.075506,0.21105 -0.767117,0 -1.379075,-0.29585 -1.835876,-0.88758 -0.456801,-0.59172 -0.685201,-1.40798 -0.685201,-2.44879 0,-0.55511 0.07999,-1.04564 0.239965,-1.4716 0.159976,-0.42596 0.37103,-0.7835 0.633161,-1.07261 0.25442,-0.2814 0.553171,-0.4992 0.896254,-0.6534 0.343083,-0.1542 0.705439,-0.23129 1.08707,-0.23129 0.346938,0 0.654362,0.0385 0.922275,0.11564 0.267913,0.0771 0.540644,0.19082 0.818193,0.34116 l 0.06939,-0.27755 1.017683,0 0,8.84112 z m -1.087071,-4.02448 0,-3.6544 c -0.300678,-0.13492 -0.566664,-0.22936 -0.797955,-0.28333 -0.231292,-0.054 -0.481857,-0.081 -0.751697,-0.081 -0.628343,0 -1.106344,0.21297 -1.434007,0.63894 -0.327663,0.42596 -0.491495,1.01286 -0.491495,1.7607 0,0.75556 0.132028,1.33667 0.396087,1.74336 0.264058,0.40669 0.679419,0.61004 1.246082,0.61004 0.316099,0 0.632197,-0.0684 0.948296,-0.20527 0.316098,-0.13685 0.610995,-0.31321 0.884689,-0.52909 z m 8.579374,1.64218 -1.08707,0 0,-0.71701 c -0.366212,0.28912 -0.717004,0.51077 -1.052377,0.66496 -0.335373,0.1542 -0.705439,0.2313 -1.110199,0.2313 -0.678455,0 -1.206571,-0.2072 -1.584347,-0.6216 -0.377776,-0.4144 -0.566664,-1.0225 -0.566664,-1.82431 l 0,-4.19216 1.08707,0 0,3.67753 c 0,0.32767 0.01542,0.60811 0.04625,0.84132 0.03084,0.23322 0.09637,0.43272 0.196598,0.59847 0.104081,0.16961 0.239001,0.29297 0.40476,0.37007 0.165759,0.0771 0.406688,0.11564 0.722786,0.11564 0.281405,0 0.588829,-0.0733 0.922275,-0.21972 0.333445,-0.14648 0.644725,-0.33345 0.933839,-0.56088 l 0,-4.82243 1.08707,0 0,6.45882 z m 7.539717,-3.11665 -4.758823,0 c 0,0.39704 0.05975,0.74302 0.179252,1.03791 0.1195,0.2949 0.283331,0.53679 0.491494,0.72568 0.200453,0.18503 0.43849,0.32381 0.714112,0.41633 0.275622,0.0925 0.579193,0.13877 0.910711,0.13877 0.439453,0 0.881798,-0.0877 1.327035,-0.2631 0.445236,-0.17539 0.762298,-0.3479 0.951186,-0.51751 l 0.05782,0 0,1.18537 c -0.366211,0.15419 -0.740133,0.28333 -1.121763,0.38741 -0.381632,0.10408 -0.782537,0.15612 -1.202717,0.15612 -1.07165,0 -1.908154,-0.29007 -2.509512,-0.87023 -0.601359,-0.58016 -0.902037,-1.40413 -0.902037,-2.47193 0,-1.05623 0.28815,-1.89466 0.864452,-2.51529 0.576301,-0.62064 1.334745,-0.93095 2.27533,-0.93095 0.871198,0 1.542907,0.25442 2.015127,0.76326 0.472221,0.50884 0.708331,1.23163 0.708331,2.16835 l 0,0.58981 z m -1.058158,-0.83266 c -0.0039,-0.57052 -0.147449,-1.0119 -0.430781,-1.32414 -0.283332,-0.31225 -0.714112,-0.46837 -1.292341,-0.46837 -0.582084,0 -1.04563,0.17154 -1.390641,0.51463 -0.34501,0.34308 -0.540643,0.76904 -0.586902,1.27788 l 3.700665,0 z m 8.095973,3.94931 -1.08707,0 0,-3.67754 c 0,-0.29682 -0.01734,-0.57534 -0.05204,-0.83554 -0.0347,-0.2602 -0.0983,-0.46355 -0.190816,-0.61003 -0.09637,-0.16191 -0.235146,-0.28237 -0.416324,-0.36139 -0.181178,-0.079 -0.416325,-0.11854 -0.705439,-0.11854 -0.296825,0 -0.607141,0.0733 -0.930949,0.21972 -0.323808,0.14649 -0.634124,0.33345 -0.930949,0.56089 l 0,4.82243 -1.087069,0 0,-6.45882 1.087069,0 0,0.717 c 0.339228,-0.28141 0.690021,-0.50113 1.052377,-0.65918 0.362357,-0.15805 0.734351,-0.23707 1.115982,-0.23707 0.697729,0 1.2297,0.21009 1.595911,0.63027 0.366212,0.42018 0.549318,1.02539 0.549318,1.81564 l 0,4.19216 z m 6.770674,0 -5.215624,0 0,-0.80375 3.764269,-4.74725 -3.683317,0 0,-0.90782 5.036373,0 0,0.77482 -3.781617,4.76461 3.879916,0 0,0.91938 z m 6.939901,-3.11665 -4.758823,0 c 0,0.39704 0.05975,0.74302 0.179251,1.03791 0.119501,0.2949 0.283332,0.53679 0.491494,0.72568 0.200453,0.18503 0.438491,0.32381 0.714113,0.41633 0.275622,0.0925 0.579193,0.13877 0.910711,0.13877 0.439453,0 0.881798,-0.0877 1.327034,-0.2631 0.445237,-0.17539 0.762299,-0.3479 0.951187,-0.51751 l 0.05782,0 0,1.18537 c -0.366212,0.15419 -0.740133,0.28333 -1.121764,0.38741 -0.381631,0.10408 -0.782536,0.15612 -1.202716,0.15612 -1.07165,0 -1.908155,-0.29007 -2.509513,-0.87023 -0.601358,-0.58016 -0.902036,-1.40413 -0.902036,-2.47193 0,-1.05623 0.28815,-1.89466 0.864452,-2.51529 0.576301,-0.62064 1.334745,-0.93095 2.27533,-0.93095 0.871197,0 1.542907,0.25442 2.015127,0.76326 0.472221,0.50884 0.70833,1.23163 0.70833,2.16835 l 0,0.58981 z m -1.058159,-0.83266 c -0.0039,-0.57052 -0.147448,-1.0119 -0.43078,-1.32414 -0.283332,-0.31225 -0.714112,-0.46837 -1.292341,-0.46837 -0.582084,0 -1.045631,0.17154 -1.390641,0.51463 -0.34501,0.34308 -0.540643,0.76904 -0.586902,1.27788 l 3.700664,0 z m 6.725567,-1.32414 -0.05779,0 c -0.161898,-0.0385 -0.318988,-0.0665 -0.471254,-0.0838 -0.152267,-0.0174 -0.332482,-0.0261 -0.540644,-0.0261 -0.335372,0 -0.65918,0.0742 -0.971424,0.22262 -0.312244,0.14841 -0.612922,0.34019 -0.902038,0.57534 l 0,4.58535 -1.087069,0 0,-6.45881 1.087069,0 0,0.95407 c 0.431745,-0.34693 0.812412,-0.59268 1.142003,-0.73724 0.32959,-0.14455 0.665927,-0.21683 1.009009,-0.21683 0.188888,0 0.325739,0.005 0.410544,0.0144 0.08481,0.01 0.212014,0.0279 0.381625,0.0549 l 0,1.11598 z"
       style="fill:#ffffff;fill-opacity:1;fill-rule:nonzero;stroke:none"
       id="path4694"
       inkscape:connector-curvature="0" />
    <path
       d="m 385.47403,388.57511 -1.06857,0 0,-6.92409 -2.23427,4.7114 -0.63682,0 -2.21809,-4.7114 0,6.92409 -0.99841,0 0,-8.03583 1.45714,0 2.14253,4.47394 2.07237,-4.47394 1.48412,0 0,8.03583 z m 4.9905,0 -3.17332,0 0,-0.82031 1.05238,0 0,-6.39521 -1.05238,0 0,-0.82031 3.17332,0 0,0.82031 -1.05238,0 0,6.39521 1.05238,0 0,0.82031 z m 8.60636,-4.00982 c 0,0.73037 -0.15921,1.39238 -0.47762,1.98602 -0.31841,0.59365 -0.74206,1.05418 -1.27095,1.38158 -0.36698,0.22667 -0.77623,0.39037 -1.22777,0.49111 -0.45153,0.10075 -1.04608,0.15111 -1.78364,0.15111 l -2.0292,0 0,-8.03583 2.00761,0 c 0.78433,0 1.40767,0.0567 1.86999,0.17 0.46233,0.11332 0.8536,0.26894 1.1738,0.46682 0.54688,0.34179 0.97323,0.79693 1.27905,1.36539 0.30582,0.56846 0.45873,1.24307 0.45873,2.0238 z m -1.11714,-0.0162 c 0,-0.62963 -0.10974,-1.16032 -0.32921,-1.59206 -0.21947,-0.43175 -0.54687,-0.77174 -0.98222,-1.01999 -0.31661,-0.1799 -0.653,-0.30492 -1.0092,-0.37508 -0.35619,-0.0702 -0.78253,-0.10524 -1.27904,-0.10524 l -1.00381,0 0,6.20093 1.00381,0 c 0.5145,0 0.96333,-0.0377 1.3465,-0.11334 0.38317,-0.0756 0.73487,-0.21587 1.05508,-0.42095 0.39936,-0.25545 0.69888,-0.59185 0.89856,-1.0092 0.19969,-0.41735 0.29953,-0.93904 0.29953,-1.56507 z m 5.67281,4.026 -3.17332,0 0,-0.82031 1.05237,0 0,-6.39521 -1.05237,0 0,-0.82031 3.17332,0 0,0.82031 -1.05238,0 0,6.39521 1.05238,0 0,0.82031 z m 4.93113,-3.0276 -3.3676,0 0,-0.97683 3.3676,0 0,0.97683 z m 7.62569,-4.0584 -2.8711,0 0,7.086 -1.06857,0 0,-7.086 -2.8711,0 0,-0.94983 6.81077,0 0,0.94983 z m 6.03747,7.086 -1.0146,0 0,-3.43236 c 0,-0.27704 -0.0162,-0.53698 -0.0486,-0.77984 -0.0324,-0.24286 -0.0917,-0.43264 -0.1781,-0.56936 -0.0899,-0.15111 -0.21946,-0.26354 -0.38856,-0.3373 -0.16911,-0.0737 -0.38857,-0.11063 -0.65842,-0.11063 -0.27703,0 -0.56666,0.0684 -0.86888,0.20507 -0.30222,0.13672 -0.59185,0.31122 -0.86888,0.52349 l 0,4.50093 -1.01461,0 0,-8.39742 1.01461,0 0,3.0384 c 0.31661,-0.26265 0.64401,-0.46772 0.98221,-0.61523 0.3382,-0.14752 0.68539,-0.22128 1.04159,-0.22128 0.65121,0 1.14771,0.19609 1.48951,0.58826 0.3418,0.39216 0.5127,0.95703 0.5127,1.69459 l 0,3.91268 z m 5.71522,-4.92188 -0.054,0 c -0.15111,-0.036 -0.29773,-0.0621 -0.43984,-0.0782 -0.14212,-0.0162 -0.31032,-0.0243 -0.5046,-0.0243 -0.31302,0 -0.61524,0.0692 -0.90667,0.20779 -0.29142,0.13851 -0.57206,0.31751 -0.8419,0.53697 l 0,4.27967 -1.01459,0 0,-6.02823 1.01459,0 0,0.89048 c 0.40296,-0.32382 0.75825,-0.55318 1.06587,-0.6881 0.30762,-0.13492 0.62153,-0.20238 0.94174,-0.20238 0.1763,0 0.30402,0.005 0.38317,0.0135 0.0792,0.009 0.19789,0.0261 0.3562,0.0512 l 0,1.04158 z m 5.94805,4.92188 -1.01461,0 0,-0.6692 c -0.34179,0.26984 -0.6692,0.47671 -0.98221,0.62064 -0.31302,0.14391 -0.65842,0.21586 -1.03619,0.21586 -0.63322,0 -1.12613,-0.19338 -1.47873,-0.58015 -0.35258,-0.38677 -0.52888,-0.95433 -0.52888,-1.70269 l 0,-3.91268 1.0146,0 0,3.43236 c 0,0.30582 0.0144,0.56757 0.0432,0.78524 0.0288,0.21767 0.0899,0.40386 0.1835,0.55856 0.0971,0.15831 0.22307,0.27345 0.37777,0.3454 0.15471,0.0719 0.37958,0.10794 0.6746,0.10794 0.26265,0 0.54958,-0.0684 0.8608,-0.20509 0.31121,-0.13671 0.60173,-0.31121 0.87158,-0.52348 l 0,-4.50093 1.0146,0 0,6.02822 z"
       style="fill:#ffffff;fill-opacity:1;fill-rule:nonzero;stroke:none"
       id="path10831"
       inkscape:connector-curvature="0" />
    <path
       d="m 386.19566,401.99619 -1.13873,0 -0.78793,-2.23968 -3.47554,0 -0.78793,2.23968 -1.08476,0 2.92507,-8.03584 1.42476,0 2.92506,8.03584 z m -2.25586,-3.15713 -1.40857,-3.94506 -1.41396,3.94506 2.82253,0 z m 8.42903,3.15713 -1.0146,0 0,-3.43237 c 0,-0.27703 -0.0162,-0.53698 -0.0485,-0.77984 -0.0324,-0.24285 -0.0917,-0.43264 -0.1781,-0.56936 -0.0899,-0.15111 -0.21946,-0.26354 -0.38856,-0.3373 -0.16911,-0.0737 -0.38857,-0.11063 -0.65842,-0.11063 -0.27703,0 -0.56666,0.0684 -0.86888,0.20508 -0.30222,0.13672 -0.59185,0.31121 -0.86888,0.52349 l 0,4.50093 -1.01461,0 0,-6.02823 1.01461,0 0,0.6692 c 0.31661,-0.26264 0.64401,-0.46771 0.98221,-0.61523 0.3382,-0.14751 0.68539,-0.22127 1.04159,-0.22127 0.65121,0 1.14771,0.19609 1.48951,0.58825 0.3418,0.39217 0.5127,0.95703 0.5127,1.69459 l 0,3.91269 z m 6.26029,-1.73777 c 0,0.55047 -0.22756,1.002 -0.6827,1.3546 -0.45513,0.35258 -1.07666,0.52888 -1.86459,0.52888 -0.44614,0 -0.85539,-0.053 -1.22777,-0.1592 -0.37238,-0.10614 -0.6845,-0.22217 -0.93635,-0.3481 l 0,-1.13872 0.054,0 c 0.32021,0.24106 0.6764,0.43264 1.06857,0.57476 0.39216,0.14211 0.76814,0.21318 1.12793,0.21318 0.44613,0 0.79513,-0.0719 1.04698,-0.21588 0.25185,-0.14391 0.37778,-0.37058 0.37778,-0.68 0,-0.23746 -0.0684,-0.41735 -0.20508,-0.53968 -0.13672,-0.12232 -0.39937,-0.22666 -0.78794,-0.31301 -0.14391,-0.0324 -0.3319,-0.0702 -0.56396,-0.11333 -0.23207,-0.0432 -0.44344,-0.0899 -0.63412,-0.14032 -0.5289,-0.14032 -0.90397,-0.3463 -1.12524,-0.61793 -0.22127,-0.27165 -0.3319,-0.60535 -0.3319,-1.00111 0,-0.24825 0.0512,-0.48212 0.15381,-0.70159 0.10254,-0.21947 0.25814,-0.41555 0.46682,-0.58825 0.20148,-0.1691 0.45783,-0.30312 0.76905,-0.40206 0.31121,-0.0989 0.6593,-0.14841 1.04428,-0.14841 0.35978,0 0.72406,0.044 1.09285,0.13222 0.36878,0.0881 0.6755,0.19518 0.92016,0.32111 l 0,1.08476 -0.054,0 c -0.25905,-0.19069 -0.57387,-0.3517 -0.94444,-0.48302 -0.37059,-0.13132 -0.73397,-0.19698 -1.09016,-0.19698 -0.37058,0 -0.6836,0.071 -0.93905,0.21317 -0.25544,0.14212 -0.38317,0.35349 -0.38317,0.63412 0,0.24826 0.0774,0.43535 0.23207,0.56127 0.1511,0.12593 0.39576,0.22847 0.73396,0.30762 0.18709,0.0432 0.39667,0.0863 0.62873,0.12952 0.23206,0.0432 0.42544,0.0828 0.58016,0.11873 0.47131,0.10794 0.8347,0.29323 1.09015,0.55587 0.25544,0.26624 0.38317,0.61884 0.38317,1.05778 z m 5.89947,1.35999 c -0.33819,0.1619 -0.6593,0.28784 -0.96332,0.37778 -0.30402,0.0899 -0.62693,0.13492 -0.96873,0.13492 -0.43535,0 -0.83471,-0.0639 -1.19809,-0.19159 -0.36339,-0.12772 -0.6746,-0.32111 -0.93365,-0.58015 -0.26264,-0.25905 -0.46592,-0.58646 -0.60984,-0.98222 -0.14391,-0.39576 -0.21587,-0.8581 -0.21587,-1.38698 0,-0.98582 0.27074,-1.75935 0.81222,-2.32062 0.54148,-0.56127 1.25656,-0.84191 2.14523,-0.84191 0.3454,0 0.68449,0.0486 1.0173,0.14572 0.3328,0.0971 0.63772,0.21587 0.91475,0.35619 l 0,1.12793 -0.054,0 c -0.30941,-0.24106 -0.62872,-0.42635 -0.95793,-0.55588 -0.3292,-0.12952 -0.65031,-0.19428 -0.96333,-0.19428 -0.57566,0 -1.02989,0.19338 -1.36269,0.58016 -0.33281,0.38677 -0.4992,0.95434 -0.4992,1.70269 0,0.72677 0.1628,1.28534 0.48841,1.67571 0.32561,0.39037 0.78343,0.58555 1.37348,0.58555 0.20508,0 0.41376,-0.027 0.62603,-0.0809 0.21228,-0.054 0.40296,-0.12413 0.57207,-0.21047 0.14751,-0.0756 0.28602,-0.15561 0.41555,-0.24016 0.12952,-0.0846 0.23206,-0.15741 0.30761,-0.21858 l 0.054,0 0,1.11714 z m 6.33122,0.37778 -1.01459,0 0,-3.43237 c 0,-0.27703 -0.0162,-0.53698 -0.0485,-0.77984 -0.0324,-0.24285 -0.0917,-0.43264 -0.17809,-0.56936 -0.0899,-0.15111 -0.21948,-0.26354 -0.38857,-0.3373 -0.1691,-0.0737 -0.38857,-0.11063 -0.65841,-0.11063 -0.27704,0 -0.56667,0.0684 -0.86889,0.20508 -0.30222,0.13672 -0.59184,0.31121 -0.86889,0.52349 l 0,4.50093 -1.01459,0 0,-8.39743 1.01459,0 0,3.0384 c 0.31662,-0.26264 0.64403,-0.46771 0.98222,-0.61523 0.3382,-0.14751 0.6854,-0.22127 1.04159,-0.22127 0.65121,0 1.14772,0.19609 1.48952,0.58825 0.34179,0.39217 0.51269,0.95703 0.51269,1.69459 l 0,3.91269 z m 2.97904,0 -1.0146,0 0,-8.39743 1.0146,0 0,8.39743 z m 6.99426,0 -1.0146,0 0,-0.66921 c -0.3418,0.26985 -0.66921,0.47672 -0.98222,0.62064 -0.31301,0.14391 -0.65842,0.21587 -1.03619,0.21587 -0.63322,0 -1.12613,-0.19339 -1.47872,-0.58016 -0.35259,-0.38677 -0.52889,-0.95433 -0.52889,-1.70269 l 0,-3.91268 1.0146,0 0,3.43236 c 0,0.30582 0.0144,0.56757 0.0432,0.78524 0.0288,0.21767 0.0899,0.40386 0.1835,0.55857 0.0971,0.1583 0.22307,0.27344 0.37777,0.34539 0.15471,0.0719 0.37958,0.10794 0.6746,0.10794 0.26265,0 0.54958,-0.0684 0.8608,-0.20508 0.31121,-0.13671 0.60173,-0.31121 0.87158,-0.52349 l 0,-4.50093 1.0146,0 0,6.02823 z m 6.30346,-1.73777 c 0,0.55047 -0.22757,1.002 -0.6827,1.3546 -0.45512,0.35258 -1.07665,0.52888 -1.86459,0.52888 -0.44614,0 -0.8554,-0.053 -1.22778,-0.1592 -0.37238,-0.10614 -0.68449,-0.22217 -0.93634,-0.3481 l 0,-1.13872 0.054,0 c 0.32021,0.24106 0.6764,0.43264 1.06857,0.57476 0.39217,0.14211 0.76814,0.21318 1.12793,0.21318 0.44614,0 0.79513,-0.0719 1.04698,-0.21588 0.25185,-0.14391 0.37777,-0.37058 0.37777,-0.68 0,-0.23746 -0.0684,-0.41735 -0.20507,-0.53968 -0.13672,-0.12232 -0.39936,-0.22666 -0.78794,-0.31301 -0.14391,-0.0324 -0.3319,-0.0702 -0.56397,-0.11333 -0.23205,-0.0432 -0.44343,-0.0899 -0.63412,-0.14032 -0.52888,-0.14032 -0.90396,-0.3463 -1.12523,-0.61793 -0.22127,-0.27165 -0.3319,-0.60535 -0.3319,-1.00111 0,-0.24825 0.0512,-0.48212 0.1538,-0.70159 0.10254,-0.21947 0.25815,-0.41555 0.46683,-0.58825 0.20148,-0.1691 0.45782,-0.30312 0.76904,-0.40206 0.31122,-0.0989 0.65931,-0.14841 1.04428,-0.14841 0.35979,0 0.72407,0.044 1.09285,0.13222 0.36879,0.0881 0.6755,0.19518 0.92016,0.32111 l 0,1.08476 -0.054,0 c -0.25904,-0.19069 -0.57386,-0.3517 -0.94444,-0.48302 -0.37058,-0.13132 -0.73397,-0.19698 -1.09015,-0.19698 -0.37058,0 -0.68359,0.071 -0.93905,0.21317 -0.25545,0.14212 -0.38317,0.35349 -0.38317,0.63412 0,0.24826 0.0774,0.43535 0.23206,0.56127 0.15111,0.12593 0.39577,0.22847 0.73397,0.30762 0.18709,0.0432 0.39666,0.0863 0.62873,0.12952 0.23206,0.0432 0.42545,0.0828 0.58015,0.11873 0.47132,0.10794 0.83471,0.29323 1.09016,0.55587 0.25545,0.26624 0.38317,0.61884 0.38317,1.05778 z m 5.74836,0 c 0,0.55047 -0.22756,1.002 -0.6827,1.3546 -0.45512,0.35258 -1.07665,0.52888 -1.86459,0.52888 -0.44614,0 -0.85539,-0.053 -1.22777,-0.1592 -0.37238,-0.10614 -0.68449,-0.22217 -0.93634,-0.3481 l 0,-1.13872 0.054,0 c 0.32021,0.24106 0.6764,0.43264 1.06856,0.57476 0.39217,0.14211 0.76814,0.21318 1.12793,0.21318 0.44614,0 0.79513,-0.0719 1.04699,-0.21588 0.25185,-0.14391 0.37777,-0.37058 0.37777,-0.68 0,-0.23746 -0.0684,-0.41735 -0.20508,-0.53968 -0.13672,-0.12232 -0.39936,-0.22666 -0.78793,-0.31301 -0.14391,-0.0324 -0.3319,-0.0702 -0.56397,-0.11333 -0.23206,-0.0432 -0.44343,-0.0899 -0.63412,-0.14032 -0.52889,-0.14032 -0.90397,-0.3463 -1.12523,-0.61793 -0.22128,-0.27165 -0.33191,-0.60535 -0.33191,-1.00111 0,-0.24825 0.0512,-0.48212 0.15381,-0.70159 0.10254,-0.21947 0.25815,-0.41555 0.46682,-0.58825 0.20149,-0.1691 0.45783,-0.30312 0.76905,-0.40206 0.31122,-0.0989 0.6593,-0.14841 1.04428,-0.14841 0.35978,0 0.72407,0.044 1.09285,0.13222 0.36878,0.0881 0.6755,0.19518 0.92016,0.32111 l 0,1.08476 -0.054,0 c -0.25905,-0.19069 -0.57387,-0.3517 -0.94444,-0.48302 -0.37058,-0.13132 -0.73397,-0.19698 -1.09016,-0.19698 -0.37058,0 -0.68359,0.071 -0.93904,0.21317 -0.25545,0.14212 -0.38317,0.35349 -0.38317,0.63412 0,0.24826 0.0774,0.43535 0.23206,0.56127 0.15111,0.12593 0.39576,0.22847 0.73396,0.30762 0.18709,0.0432 0.39667,0.0863 0.62873,0.12952 0.23206,0.0432 0.42545,0.0828 0.58016,0.11873 0.47131,0.10794 0.8347,0.29323 1.09015,0.55587 0.25545,0.26624 0.38317,0.61884 0.38317,1.05778 z"
       style="fill:#ffffff;fill-opacity:1;fill-rule:nonzero;stroke:none"
       id="path10841"
       inkscape:connector-curvature="0" />
  </g>
</svg>
