<?xml version="1.0" encoding="UTF-8" standalone="no"?>
<svg
   xmlns:dc="http://purl.org/dc/elements/1.1/"
   xmlns:cc="http://creativecommons.org/ns#"
   xmlns:rdf="http://www.w3.org/1999/02/22-rdf-syntax-ns#"
   xmlns:svg="http://www.w3.org/2000/svg"
   xmlns="http://www.w3.org/2000/svg"
   version="1.1"
   id="svg2"
   viewBox="0 0 828.43753 302.48394"
   height="85.367691mm"
   width="233.80348mm">
  <defs
     id="defs4" />
  <metadata
     id="metadata7">
    <rdf:RDF>
      <cc:Work
         rdf:about="">
        <dc:format>image/svg+xml</dc:format>
        <dc:type
           rdf:resource="http://purl.org/dc/dcmitype/StillImage" />
        <dc:title></dc:title>
      </cc:Work>
    </rdf:RDF>
  </metadata>
  <g
     transform="translate(25.28572,-349.60429)"
     id="layer1">
    <path
       id="path4217"
       d="M 358.21428,651.12275 C 324.70503,644.5165 297.7333,624.28091 282.88215,594.6047 l -3.06001,-6.11465 7.69607,-3.07062 c 4.23284,-1.68884 13.09013,-5.34974 19.68288,-8.13535 6.59274,-2.7856 12.09766,-5.06473 12.23315,-5.06473 0.13549,0 1.34368,2.16547 2.68486,4.81216 10.50482,20.73027 36.04679,34.87982 59.06879,32.72248 9.24437,-0.86627 21.51375,-5.09182 28.77026,-9.90842 12.24371,-8.1269 22.65021,-22.62535 26.24843,-36.56957 2.08336,-8.0737 2.10033,-22.58606 0.0355,-30.38467 -4.66403,-17.61569 -16.76771,-32.28908 -33.21326,-40.26469 -6.96531,-3.37797 -17.94177,-6.35442 -23.56457,-6.38993 l -2.74997,-0.0174 0,-21.57959 0,-21.5796 6.75,0.67346 c 44.46124,4.43595 79.67624,32.21779 92.54342,73.00939 7.02755,22.27876 6.03088,49.01577 -2.62608,70.44823 -11.85941,29.36095 -37.77088,52.46111 -69.16734,61.66292 -7.74745,2.27065 -11.22676,2.68066 -25,2.94604 -8.8,0.16956 -18.25,-0.1353 -21,-0.67745 z m 269.5,-0.39645 c -15.85017,-2.72201 -27.29635,-6.27509 -39.93001,-12.39492 -3.53343,-1.71162 -6.79467,-3.11203 -7.2472,-3.11203 -0.45254,0 -0.82279,2.475 -0.82279,5.5 l 0,5.5 -20.99332,0 -20.99333,0 -0.25667,-145.00003 -0.25668,-145.00004 21.25,4e-5 21.25,3e-5 0,5 c 0,3.01828 0.44308,5 1.11792,5 0.61486,0 5.12887,-1.80603 10.03113,-4.0134 19.88616,-8.95425 37.17484,-12.44629 61.35095,-12.39189 19.36885,0.0436 29.29359,1.53819 46.77344,7.04385 26.85206,8.45763 54.15611,27.68956 72.30852,50.93135 34.06107,43.61077 41.45034,103.44999 19.05762,154.33108 -21.08426,47.908 -64.89175,81.14474 -117.33113,89.01912 -9.56732,1.43664 -35.93734,1.19618 -45.30845,-0.41316 z m -38.51879,-40.5128 c 4.38967,-7.69678 8.28047,-13.99415 8.64621,-13.99415 0.36575,0 3.9742,1.55712 8.01879,3.46027 29.46518,13.86459 63.90228,13.51139 93.35379,-0.95749 12.95234,-6.3632 21.51149,-12.62433 31.19813,-22.82184 38.14423,-40.15596 40.34082,-100.5548 5.23876,-144.04877 -12.40593,-15.37185 -32.50903,-29.02449 -51.46055,-34.94847 -24.74189,-7.73396 -55.3816,-5.67485 -78.19235,5.25484 l -8.21601,3.93668 -6.88996,-11.68761 c -3.78948,-6.42819 -7.42061,-12.70011 -8.06917,-13.93761 -0.64857,-1.2375 -1.61338,-2.25 -2.14403,-2.25 -0.61453,0 -0.96482,44.65694 -0.96482,123 0,67.65 0.3375,122.99737 0.75,122.99415 0.4125,-0.003 4.34155,-6.30322 8.73121,-14 z m -614.48121,-108.99415 0,-145 21.5,0 21.5,0 0,61.5 0,61.5 77.5,0 77.5,0 0,-61.5 0,-61.5 21.5,0 21.5,0 0,145 0,145 -21.5,0 -21.5,0 0,-62 0,-62 -77.5,0 -77.5,0 0,62 0,62 -21.5,0 -21.5,0 0,-145 z m 386.5,55.99176 c -21.30379,-3.23277 -41.65471,-13.49259 -57.50677,-28.99176 -12.39609,-12.12014 -21.62758,-26.92909 -26.805,-43 -6.23033,-19.3392 -6.005,-46.25083 0.53986,-64.47444 6.11675,-17.03159 13.93229,-29.38025 26.28177,-41.52556 13.68574,-13.45947 28.95733,-21.98449 48.59596,-27.12758 12.53274,-3.28216 34.81334,-3.32205 47.72434,-0.0854 18.91057,4.74061 33.83483,12.76208 47.09165,25.31076 10.30523,9.75477 16.48484,17.77434 21.72267,28.19057 l 3.91637,7.78832 -3.78043,1.58014 c -24.96954,10.43677 -34.53827,14.33837 -35.10407,14.31349 -0.37199,-0.0164 -2.18343,-2.66254 -4.02541,-5.88042 -7.36459,-12.86564 -19.3615,-22.9051 -33.17351,-27.76082 -9.85325,-3.46399 -24.5667,-4.30352 -33.98377,-1.93907 -23.04973,5.78738 -41.74449,24.77798 -46.50323,47.23915 -4.45023,21.00502 1.42349,40.28668 17.09859,56.12959 6.71353,6.7854 9.66434,8.95192 16.5411,12.14465 8.59353,3.9898 16.34104,6.09666 22.4191,6.09666 l 3.45078,0 0,21.5 0,21.5 -4.75,-0.12476 c -2.6125,-0.0686 -7,-0.46618 -9.75,-0.88348 z"
       style="fill:#e4002a;fill-opacity:1;stroke:none" />
  </g>
</svg>
