<?xml version="1.0" encoding="UTF-8" standalone="no"?>
<!-- Created with Inkscape (http://www.inkscape.org/) -->

<svg
   xmlns:dc="http://purl.org/dc/elements/1.1/"
   xmlns:cc="http://creativecommons.org/ns#"
   xmlns:rdf="http://www.w3.org/1999/02/22-rdf-syntax-ns#"
   xmlns:svg="http://www.w3.org/2000/svg"
   xmlns="http://www.w3.org/2000/svg"
   xmlns:sodipodi="http://sodipodi.sourceforge.net/DTD/sodipodi-0.dtd"
   xmlns:inkscape="http://www.inkscape.org/namespaces/inkscape"
   width="421.43399mm"
   height="202.52165mm"
   viewBox="0 0 1493.27 717.5964"
   id="svg6279"
   version="1.1"
   inkscape:version="0.91 r13725"
   sodipodi:docname="Zeichnung.svg">
  <defs
     id="defs6281" />
  <sodipodi:namedview
     id="base"
     pagecolor="#ffffff"
     bordercolor="#666666"
     borderopacity="1.0"
     inkscape:pageopacity="0.0"
     inkscape:pageshadow="2"
     inkscape:zoom="0.35"
     inkscape:cx="765.92072"
     inkscape:cy="-138.34465"
     inkscape:document-units="px"
     inkscape:current-layer="layer1"
     showgrid="false"
     fit-margin-top="0"
     fit-margin-left="0"
     fit-margin-right="0"
     fit-margin-bottom="0"
     inkscape:window-width="947"
     inkscape:window-height="1047"
     inkscape:window-x="965"
     inkscape:window-y="6"
     inkscape:window-maximized="0" />
  <metadata
     id="metadata6284">
    <rdf:RDF>
      <cc:Work
         rdf:about="">
        <dc:format>image/svg+xml</dc:format>
        <dc:type
           rdf:resource="http://purl.org/dc/dcmitype/StillImage" />
        <dc:title></dc:title>
      </cc:Work>
    </rdf:RDF>
  </metadata>
  <g
     inkscape:label="Ebene 1"
     inkscape:groupmode="layer"
     id="layer1"
     transform="translate(915.20643,323.57885)">
    <path
       style="fill:none;stroke:#0000ff;stroke-width:0.83499998;stroke-miterlimit:4;stroke-dasharray:none;stroke-opacity:1"
       d="m -781.59834,8.4700576 a 20.509145,20.253722 0 0 1 -20.50915,20.2537304 20.509145,20.253722 0 0 1 -20.50914,-20.2537304 20.509145,20.253722 0 0 1 20.50914,-20.2537096 20.509145,20.253722 0 0 1 20.50915,20.2537096 z"
       id="path4440-1-2-2-9-7"
       inkscape:connector-curvature="0" />
    <path
       style="fill:none;stroke:#0000ff;stroke-width:0.83499998;stroke-miterlimit:4;stroke-dasharray:none;stroke-opacity:1"
       d="m -568.22127,8.4698376 a 20.509145,20.253722 0 0 1 -20.50915,20.2537204 20.509145,20.253722 0 0 1 -20.50914,-20.2537204 20.509145,20.253722 0 0 1 20.50914,-20.2537296 20.509145,20.253722 0 0 1 20.50915,20.2537296 z"
       id="path4440-1-2-2-9-7-5"
       inkscape:connector-curvature="0" />
    <path
       style="fill:none;stroke:#0000ff;stroke-width:0.83499998;stroke-miterlimit:4;stroke-dasharray:none;stroke-opacity:1"
       d="m -356.39731,8.4705176 a 20.509145,20.253722 0 0 1 -20.50915,20.2537304 20.509145,20.253722 0 0 1 -20.50915,-20.2537304 20.509145,20.253722 0 0 1 20.50915,-20.2537196 20.509145,20.253722 0 0 1 20.50915,20.2537196 z"
       id="path4440-1-2-2-9-7-3"
       inkscape:connector-curvature="0" />
    <path
       style="fill:none;stroke:#0000ff;stroke-width:0.83499998;stroke-miterlimit:4;stroke-dasharray:none;stroke-opacity:1"
       d="m -143.79698,8.4705176 a 20.509145,20.253722 0 0 1 -20.50915,20.2537304 20.509145,20.253722 0 0 1 -20.50915,-20.2537304 20.509145,20.253722 0 0 1 20.50915,-20.2537196 20.509145,20.253722 0 0 1 20.50915,20.2537196 z"
       id="path4440-1-2-2-9-7-5-6"
       inkscape:connector-curvature="0" />
    <path
       style="fill:none;stroke:#0000ff;stroke-width:0.83499998;stroke-miterlimit:4;stroke-dasharray:none;stroke-opacity:1"
       d="M 68.803571,8.4700576 A 20.509145,20.253722 0 0 1 48.294441,28.723788 20.509145,20.253722 0 0 1 27.785321,8.4700576 20.509145,20.253722 0 0 1 48.294441,-11.783652 20.509145,20.253722 0 0 1 68.803571,8.4700576 Z"
       id="path4440-1-2-2-9-7-7"
       inkscape:connector-curvature="0" />
    <path
       style="fill:none;stroke:#0000ff;stroke-width:0.83499998;stroke-miterlimit:4;stroke-dasharray:none;stroke-opacity:1"
       d="m 282.17947,8.4698376 a 20.509145,20.253722 0 0 1 -20.5092,20.2537204 20.509145,20.253722 0 0 1 -20.5091,-20.2537204 20.509145,20.253722 0 0 1 20.5091,-20.2537296 20.509145,20.253722 0 0 1 20.5092,20.2537296 z"
       id="path4440-1-2-2-9-7-5-5"
       inkscape:connector-curvature="0" />
    <path
       style="fill:none;stroke:#0000ff;stroke-width:0.83499998;stroke-miterlimit:4;stroke-dasharray:none;stroke-opacity:1"
       d="m 494.00327,8.4705176 a 20.509145,20.253722 0 0 1 -20.5091,20.2537304 20.509145,20.253722 0 0 1 -20.5091,-20.2537304 20.509145,20.253722 0 0 1 20.5091,-20.2537196 20.509145,20.253722 0 0 1 20.5091,20.2537196 z"
       id="path4440-1-2-2-9-7-3-3"
       inkscape:connector-curvature="0" />
    <path
       style="fill:none;stroke:#0000ff;stroke-width:0.83499998;stroke-miterlimit:4;stroke-dasharray:none;stroke-opacity:1"
       d="m -781.59888,209.71137 a 20.509145,20.253722 0 0 1 -20.50915,20.25372 20.509145,20.253722 0 0 1 -20.50914,-20.25372 20.509145,20.253722 0 0 1 20.50914,-20.25372 20.509145,20.253722 0 0 1 20.50915,20.25372 z"
       id="path4440-1-2-2-9-7-56"
       inkscape:connector-curvature="0" />
    <path
       style="fill:none;stroke:#0000ff;stroke-width:0.83499998;stroke-miterlimit:4;stroke-dasharray:none;stroke-opacity:1"
       d="m -568.22166,209.71106 a 20.509145,20.253722 0 0 1 -20.50913,20.25373 20.509145,20.253722 0 0 1 -20.50915,-20.25373 20.509145,20.253722 0 0 1 20.50915,-20.25372 20.509145,20.253722 0 0 1 20.50913,20.25372 z"
       id="path4440-1-2-2-9-7-5-2"
       inkscape:connector-curvature="0" />
    <path
       style="fill:none;stroke:#0000ff;stroke-width:0.83499998;stroke-miterlimit:4;stroke-dasharray:none;stroke-opacity:1"
       d="m -356.39769,209.71182 a 20.509145,20.253722 0 0 1 -20.50915,20.25373 20.509145,20.253722 0 0 1 -20.50914,-20.25373 20.509145,20.253722 0 0 1 20.50914,-20.25372 20.509145,20.253722 0 0 1 20.50915,20.25372 z"
       id="path4440-1-2-2-9-7-3-9"
       inkscape:connector-curvature="0" />
    <path
       style="fill:none;stroke:#0000ff;stroke-width:0.83499998;stroke-miterlimit:4;stroke-dasharray:none;stroke-opacity:1"
       d="m -143.79722,209.71182 a 20.509145,20.253722 0 0 1 -20.50914,20.25373 20.509145,20.253722 0 0 1 -20.50915,-20.25373 20.509145,20.253722 0 0 1 20.50915,-20.25372 20.509145,20.253722 0 0 1 20.50914,20.25372 z"
       id="path4440-1-2-2-9-7-5-6-1"
       inkscape:connector-curvature="0" />
    <path
       style="fill:none;stroke:#0000ff;stroke-width:0.83499998;stroke-miterlimit:4;stroke-dasharray:none;stroke-opacity:1"
       d="m 68.803071,209.71137 a 20.509145,20.253722 0 0 1 -20.50913,20.25372 20.509145,20.253722 0 0 1 -20.50912,-20.25372 20.509145,20.253722 0 0 1 20.50912,-20.25372 20.509145,20.253722 0 0 1 20.50913,20.25372 z"
       id="path4440-1-2-2-9-7-7-2"
       inkscape:connector-curvature="0" />
    <path
       style="fill:none;stroke:#0000ff;stroke-width:0.83499998;stroke-miterlimit:4;stroke-dasharray:none;stroke-opacity:1"
       d="m 282.17897,209.71106 a 20.509145,20.253722 0 0 1 -20.5092,20.25373 20.509145,20.253722 0 0 1 -20.5091,-20.25373 20.509145,20.253722 0 0 1 20.5091,-20.25372 20.509145,20.253722 0 0 1 20.5092,20.25372 z"
       id="path4440-1-2-2-9-7-5-5-7"
       inkscape:connector-curvature="0" />
    <path
       style="fill:none;stroke:#0000ff;stroke-width:0.83499998;stroke-miterlimit:4;stroke-dasharray:none;stroke-opacity:1"
       d="m 494.00277,209.71182 a 20.509145,20.253722 0 0 1 -20.5091,20.25373 20.509145,20.253722 0 0 1 -20.5091,-20.25373 20.509145,20.253722 0 0 1 20.5091,-20.25372 20.509145,20.253722 0 0 1 20.5091,20.25372 z"
       id="path4440-1-2-2-9-7-3-3-0"
       inkscape:connector-curvature="0" />
    <path
       sodipodi:nodetypes="ccccc"
       inkscape:connector-curvature="0"
       d="m -914.78893,393.60005 1492.435,0 0,-716.7614 -1492.435,0 z"
       id="path3418-6"
       style="fill:none;stroke:#0000ff;stroke-width:0.83499998;stroke-miterlimit:4;stroke-dasharray:none;stroke-opacity:1" />
  </g>
</svg>
